<svg xmlns="http://www.w3.org/2000/svg" xmlns:xlink="http://www.w3.org/1999/xlink" viewBox="0 0 1152 216"><defs><style>.cls-1{fill:#fff;}.cls-2{fill:url(#linear-gradient);}.cls-3{fill:url(#linear-gradient-2);}.cls-4{fill:url(#linear-gradient-3);}.cls-5{fill:#808184;}.cls-6{fill:#58595b;}.cls-7{fill:#a6a8ab;}</style><linearGradient id="linear-gradient" x1="635.54" y1="184.99" x2="660.92" y2="115.25" gradientUnits="userSpaceOnUse"><stop offset="0" stop-color="#fff" stop-opacity="0"/><stop offset="1"/></linearGradient><linearGradient id="linear-gradient-2" x1="419.54" y1="184.99" x2="444.92" y2="115.25" xlink:href="#linear-gradient"/><linearGradient id="linear-gradient-3" x1="511.55" y1="198.57" x2="542.43" y2="113.74" xlink:href="#linear-gradient"/></defs><title>ljAsset 5</title><g id="Layer_2" data-name="Layer 2"><g id="Layer_2-2" data-name="Layer 2"><rect class="cls-1" width="1152" height="216"/></g><g id="Layer_1-2" data-name="Layer 1"><polygon class="cls-2" points="567 164.25 675 110.25 729 137.25 621 191.25 567 164.25"/><polygon class="cls-3" points="351 164.25 459 110.25 513 137.25 405 191.25 351 164.25"/><polygon class="cls-4" points="432 177.75 567 110.25 621 137.25 486 204.75 432 177.75"/><polygon class="cls-5" points="513 56.25 513 137.25 567 164.25 621 137.25 621 56.25 567 83.25 513 56.25"/><polygon class="cls-6" points="513 56.25 567 83.25 567 164.25 513 137.25 513 56.25"/><polygon class="cls-7" points="513 56.25 567 29.25 621 56.25 567 83.25 513 56.25"/><polygon class="cls-5" points="405 83.25 405 137.25 459 164.25 513 137.25 513 83.25 459 110.25 405 83.25"/><polygon class="cls-7" points="405 83.25 459 56.25 513 83.25 459 110.25 405 83.25"/><polygon class="cls-6" points="405 83.25 459 110.25 459 164.25 405 137.25 405 83.25"/><polygon class="cls-5" points="621 83.25 621 137.25 675 164.25 729 137.25 729 83.25 675 110.25 621 83.25"/><polygon class="cls-7" points="621 83.25 675 56.25 729 83.25 675 110.25 621 83.25"/><polygon class="cls-6" points="621 83.25 675 110.25 675 164.25 621 137.25 621 83.25"/></g></g></svg>