<svg xmlns="http://www.w3.org/2000/svg" xmlns:xlink="http://www.w3.org/1999/xlink" viewBox="0 0 1152 360"><defs><style>.cls-1{fill:#fff;}.cls-2{fill:url(#New_Gradient_Swatch_1);}.cls-3{fill:url(#New_Gradient_Swatch_1-2);}.cls-4{fill:url(#New_Gradient_Swatch_1-3);}.cls-5{fill:#808184;}.cls-6{fill:#58595b;}.cls-7{fill:#a6a8ab;}</style><linearGradient id="New_Gradient_Swatch_1" x1="705.78" y1="300.57" x2="747.43" y2="186.13" gradientUnits="userSpaceOnUse"><stop offset="0" stop-color="#fff" stop-opacity="0"/><stop offset="1"/></linearGradient><linearGradient id="New_Gradient_Swatch_1-2" x1="351.32" y1="300.57" x2="392.97" y2="186.13" xlink:href="#New_Gradient_Swatch_1"/><linearGradient id="New_Gradient_Swatch_1-3" x1="502.32" y1="322.85" x2="552.98" y2="183.66" xlink:href="#New_Gradient_Swatch_1"/></defs><title>ljAsset 17</title><g id="Layer_2" data-name="Layer 2"><g id="Layer_2-2" data-name="Layer 2"><rect class="cls-1" width="1152" height="360"/></g><g id="Layer_1-2" data-name="Layer 1"><polygon class="cls-2" points="593.31 266.54 770.54 177.92 859.15 222.23 681.92 310.85 593.31 266.54"/><polygon class="cls-3" points="238.85 266.54 416.08 177.92 504.69 222.23 327.46 310.85 238.85 266.54"/><polygon class="cls-4" points="371.77 288.69 593.31 177.92 681.92 222.23 460.38 333 371.77 288.69"/><polygon class="cls-5" points="504.69 89.31 504.69 222.23 593.31 266.54 681.92 222.23 681.92 89.31 593.31 133.62 504.69 89.31"/><polygon class="cls-6" points="504.69 89.31 593.31 133.62 593.31 266.54 504.69 222.23 504.69 89.31"/><polygon class="cls-7" points="504.69 89.31 593.31 45 681.92 89.31 593.31 133.62 504.69 89.31"/><polygon class="cls-5" points="327.46 133.62 327.46 222.23 416.08 266.54 504.69 222.23 504.69 133.62 416.08 177.92 327.46 133.62"/><polygon class="cls-7" points="327.46 133.62 416.08 89.31 504.69 133.62 416.08 177.92 327.46 133.62"/><polygon class="cls-6" points="327.46 133.62 416.08 177.92 416.08 266.54 327.46 222.23 327.46 133.62"/><polygon class="cls-5" points="681.92 133.62 681.92 222.23 770.54 266.54 859.15 222.23 859.15 133.62 770.54 177.92 681.92 133.62"/><polygon class="cls-7" points="681.92 133.62 770.54 89.31 859.15 133.62 770.54 177.92 681.92 133.62"/><polygon class="cls-6" points="681.92 133.62 770.54 177.92 770.54 266.54 681.92 222.23 681.92 133.62"/></g></g></svg>