<svg xmlns="http://www.w3.org/2000/svg" xmlns:xlink="http://www.w3.org/1999/xlink" viewBox="0 0 1152 360"><defs><style>.cls-1{fill:#fff;}.cls-2{fill:#d0d2d3;}.cls-3,.cls-4,.cls-7,.cls-8{opacity:0.25;}.cls-3{fill:url(#New_Gradient_Swatch_1);}.cls-4{fill:url(#New_Gradient_Swatch_1-2);}.cls-5{fill:#808184;}.cls-6{fill:#e6e7e8;}.cls-7{fill:url(#New_Gradient_Swatch_1-3);}.cls-8{fill:url(#New_Gradient_Swatch_1-4);}</style><linearGradient id="New_Gradient_Swatch_1" x1="629.68" y1="80.64" x2="571.4" y2="80.64" gradientUnits="userSpaceOnUse"><stop offset="0" stop-color="#fff" stop-opacity="0"/><stop offset="1"/></linearGradient><linearGradient id="New_Gradient_Swatch_1-2" x1="481.28" y1="280.45" x2="481.28" y2="308.5" xlink:href="#New_Gradient_Swatch_1"/><linearGradient id="New_Gradient_Swatch_1-3" x1="509.61" y1="222.41" x2="593.71" y2="222.41" xlink:href="#New_Gradient_Swatch_1"/><linearGradient id="New_Gradient_Swatch_1-4" x1="690.66" y1="222.41" x2="606.56" y2="222.41" xlink:href="#New_Gradient_Swatch_1"/></defs><title>Asset 33</title><g id="Layer_2" data-name="Layer 2"><g id="Layer_2-2" data-name="Layer 2"><rect class="cls-1" width="1152" height="360"/><polygon class="cls-2" points="608.97 51.5 608.97 72.21 629.68 72.21 629.68 89.06 608.97 89.06 608.97 109.78 592.11 109.78 592.11 89.06 571.4 89.06 571.4 72.21 592.11 72.21 592.11 51.5 608.97 51.5"/><polygon class="cls-3" points="592.11 109.78 592.11 89.06 571.4 89.06 571.4 72.21 592.11 72.21 592.11 51.5 608.97 51.5 608.97 72.21 629.68 72.21 629.68 89.06 608.97 89.06 608.97 109.78 592.11 109.78"/></g><g id="Layer_1-2" data-name="Layer 1"><polygon class="cls-4" points="553.91 308.5 375.56 280.45 587 280.45 563.73 300.18 553.91 308.5"/><path class="cls-5" d="M517.88,136.32a8.27,8.27,0,0,0-8.22,9.09A90,90,0,0,0,559,216.76,34.9,34.9,0,0,1,578.08,248v.08c0,21-13.8,35.77-28.09,45.45-6.67,4.52-3.4,14.93,4.66,14.93h34.44a4.63,4.63,0,0,0,4.63-4.63V140.94a4.63,4.63,0,0,0-4.63-4.63Z"/><path class="cls-6" d="M682.4,136.32H611.19a4.63,4.63,0,0,0-4.63,4.63V303.87a4.63,4.63,0,0,0,4.63,4.63h36.26c8.06,0,11.33-10.41,4.66-14.93-14.3-9.69-28.09-24.47-28.09-45.45v-1a35.54,35.54,0,0,1,19.17-31.31,89.92,89.92,0,0,0,47.43-70.38A8.26,8.26,0,0,0,682.4,136.32Z"/><path class="cls-7" d="M517.88,136.32a8.27,8.27,0,0,0-8.22,9.09A90,90,0,0,0,559,216.76,34.9,34.9,0,0,1,578.08,248v.08c0,21-13.8,35.77-28.09,45.45-6.67,4.52-3.4,14.93,4.66,14.93h34.44a4.63,4.63,0,0,0,4.63-4.63V140.94a4.63,4.63,0,0,0-4.63-4.63Z"/><path class="cls-8" d="M682.4,136.32H611.19a4.63,4.63,0,0,0-4.63,4.63V303.87a4.63,4.63,0,0,0,4.63,4.63h36.26c8.06,0,11.33-10.41,4.66-14.93-14.3-9.69-28.09-24.47-28.09-45.45v-1a35.54,35.54,0,0,1,19.17-31.31,89.92,89.92,0,0,0,47.43-70.38A8.26,8.26,0,0,0,682.4,136.32Z"/></g></g></svg>