<svg xmlns="http://www.w3.org/2000/svg" viewBox="0 0 104.42 104.18"><title>ljAsset 2</title><g id="Layer_2" data-name="Layer 2"><g id="Layer_1-2" data-name="Layer 1"><path d="M48.56,99.51h-.12a.24.24,0,0,0-.28.22l-.36,3L46.67,100a.25.25,0,0,0-.2-.15H46.4a.25.25,0,0,0-.23.1l-1.74,2.34.36-3a.25.25,0,0,0-.05-.19.25.25,0,0,0-.17-.09h-.12a.25.25,0,0,0-.28.22l-.5,4.17a.25.25,0,0,0,.22.28H44a.27.27,0,0,0,.23-.1l2.1-2.83L47.7,104a.25.25,0,0,0,.2.15H48a.25.25,0,0,0,.25-.22l.5-4.17a.25.25,0,0,0-.05-.19A.25.25,0,0,0,48.56,99.51Z"/><path d="M41.48,98.42l-.13,0a.25.25,0,0,0-.26.08l-.8.94-2.17-.61-.2-1.22a.25.25,0,0,0-.18-.2l-.13,0a.26.26,0,0,0-.23.05.25.25,0,0,0-.08.23l.75,4.57a.25.25,0,0,0,.18.2l.12,0h.07a.25.25,0,0,0,.19-.09l3-3.52a.25.25,0,0,0-.12-.4Zm-1.64,1.5-1.3,1.52-.32-2Z"/><path d="M33.3,95.66a2.35,2.35,0,1,0-1.89,4.3l1.46.64.1,0a.25.25,0,0,0,.23-.15l1.69-3.84a.25.25,0,0,0-.13-.33Zm-1.63,3.75a1.91,1.91,0,0,1-1-1,1.81,1.81,0,0,1,1-2.28,1.64,1.64,0,0,1,.57-.1,2.17,2.17,0,0,1,.87.2l1.11.49-1.4,3.18Z"/><path d="M26,91.67a.24.24,0,0,0-.19,0,.25.25,0,0,0-.16.11l-.06.1a.25.25,0,0,0,.08.34l2.06,1.28-.77,1.24-1.75-1.09a.24.24,0,0,0-.19,0,.25.25,0,0,0-.16.11l-.06.1a.25.25,0,0,0,.08.34l1.75,1.09-.74,1.19-2-1.23a.24.24,0,0,0-.19,0,.25.25,0,0,0-.16.11l-.06.1a.25.25,0,0,0,.08.34l2.3,1.42a.25.25,0,0,0,.13,0h.06a.25.25,0,0,0,.16-.11l2.21-3.57a.25.25,0,0,0,0-.19.25.25,0,0,0-.11-.16Z"/><path d="M19,86a2.16,2.16,0,0,0-1.16-.66,1.3,1.3,0,0,0-1.36,1.64,1.21,1.21,0,0,0-.94.39c-.57.59-.46,1.38.28,2.1L17,90.58a.25.25,0,0,0,.17.07.3.3,0,0,0,.18-.08l2.92-3a.25.25,0,0,0,.07-.18.25.25,0,0,0-.08-.17ZM16.2,89a1.2,1.2,0,0,1-.44-.77.69.69,0,0,1,.63-.64h.08a1.35,1.35,0,0,1,.7.41l.95.91-1,1Zm2.34-.53-1-1c-.81-.78-.46-1.15-.3-1.3a.63.63,0,0,1,.46-.23h.09a1.57,1.57,0,0,1,.77.47l1,1Z"/><path d="M15,81.57a.25.25,0,0,0-.17-.09.26.26,0,0,0-.18.05l-1.06.85-3.16.38a.25.25,0,0,0-.17.4l.09.11a.26.26,0,0,0,.23.09L13.27,83l-.91,2.54a.25.25,0,0,0,0,.24l.09.11a.25.25,0,0,0,.2.09h0a.25.25,0,0,0,.19-.16l1.07-3L15,82a.25.25,0,0,0,0-.35Z"/><path d="M10.26,74.4l-.05-.11a.25.25,0,0,0-.33-.11L8.23,75,7.1,72.69l1.64-.81a.25.25,0,0,0,.11-.33l-.05-.11a.25.25,0,0,0-.14-.13.26.26,0,0,0-.19,0L4.69,73.18a.25.25,0,0,0-.11.34l.05.11a.25.25,0,0,0,.33.11L6.55,73l1.13,2.3L6.1,76a.25.25,0,0,0-.11.33l.05.11a.25.25,0,0,0,.14.13h.08l.11,0,3.77-1.86a.25.25,0,0,0,.11-.34Z"/><path d="M7.39,69a.25.25,0,0,0,.24-.33l0-.13a.25.25,0,0,0-.21-.17l-1.23-.15L5.45,66l.91-.84a.25.25,0,0,0,.07-.26l0-.13a.25.25,0,0,0-.41-.1L2.59,67.87a.25.25,0,0,0-.07.26l0,.11a.25.25,0,0,0,.21.17l4.6.55ZM5,66.51l.52,1.6-2-.24Z"/><path d="M5.67,61.85l0-.12a.25.25,0,0,0-.1-.16.24.24,0,0,0-.19,0l-3.2.56,2.89-3.18a.25.25,0,0,0,.06-.21l0-.1a.25.25,0,0,0-.29-.2l-4.13.73a.25.25,0,0,0-.2.29l0,.12a.25.25,0,0,0,.29.2L4,59.17,1.08,62.35a.25.25,0,0,0-.06.21l0,.1a.25.25,0,0,0,.25.21h0l4.13-.73A.25.25,0,0,0,5.67,61.85Z"/><path d="M4.72,54.9l0-1.59a2.3,2.3,0,0,0-2.34-2.43h0a2.31,2.31,0,0,0-1.67.71A2.53,2.53,0,0,0,0,53.38L0,55a.25.25,0,0,0,.25.25h0l4.2-.06A.25.25,0,0,0,4.72,54.9ZM2.35,51.5A1.67,1.67,0,0,1,3.57,52a1.91,1.91,0,0,1,.51,1.35l0,1.21-3.47.05,0-1.21A1.91,1.91,0,0,1,1.09,52a1.67,1.67,0,0,1,1.23-.51Z"/><path d="M.85,43.76h0l4.42-.49a.25.25,0,0,0,.22-.19l0-.12a.25.25,0,0,0-.11-.27l-3-1.88,3.54-.41a.25.25,0,0,0,.21-.19l0-.12a.25.25,0,0,0-.11-.27L2.28,37.5a.25.25,0,0,0-.37.16l0,.12A.25.25,0,0,0,2,38l3,1.84-3.52.41a.25.25,0,0,0-.21.19l0,.12a.25.25,0,0,0,.11.27l3,1.87-3.5.39a.25.25,0,0,0-.22.19l0,.13a.25.25,0,0,0,.06.22A.25.25,0,0,0,.85,43.76Z"/><path d="M3.32,34.38l3.94,1.45.09,0,.11,0a.25.25,0,0,0,.13-.14l0-.11a.25.25,0,0,0-.15-.32L3.54,33.8a.25.25,0,0,0-.32.15l0,.11A.25.25,0,0,0,3.32,34.38Z"/><path d="M4.78,31A.25.25,0,0,0,5,31a.25.25,0,0,0,.14-.13l.58-1.18L9.13,31.4l.11,0h.08a.25.25,0,0,0,.14-.13l.05-.11a.25.25,0,0,0-.11-.33L6,29.15,6.54,28a.25.25,0,0,0,0-.19.25.25,0,0,0-.13-.14l-.1,0A.25.25,0,0,0,6,27.7L4.56,30.61a.25.25,0,0,0,.11.33Z"/><path d="M11.36,27.23a.25.25,0,0,0,.35-.07l.07-.1a.25.25,0,0,0-.07-.35l-1.52-1,1.42-2.13,1.52,1a.25.25,0,0,0,.35-.07l.07-.1a.25.25,0,0,0-.07-.35L10,21.74a.25.25,0,0,0-.35.07l-.07.1a.25.25,0,0,0,.07.35l1.46,1L9.67,25.36l-1.46-1a.27.27,0,0,0-.19,0,.25.25,0,0,0-.16.11l-.07.1a.25.25,0,0,0,.07.35Z"/><path d="M18.11,18.59a.25.25,0,0,0,.17.08h0a.25.25,0,0,0,.17-.07l.09-.08a.25.25,0,0,0,0-.35l-.82-.86.76-.73a1.65,1.65,0,1,0-2.25-2.36l-1,1a.25.25,0,0,0-.08.18.25.25,0,0,0,.07.18Zm-2.2-3.21.77-.73c.61-.58,1.15-.63,1.62-.14s.39,1-.22,1.61l-.77.73Z"/><path d="M22.91,14.31a.25.25,0,0,0,.16.1h0a.25.25,0,0,0,.15,0l.1-.07a.25.25,0,0,0,.05-.35l-.7-1,.85-.62a3,3,0,0,0,.3-.24l1.59.52a.25.25,0,0,0,.22,0l.12-.09a.25.25,0,0,0-.07-.44l-1.46-.48a1.49,1.49,0,0,0-.13-1.68,1.65,1.65,0,0,0-2.49-.2l-1.15.83a.25.25,0,0,0-.06.35Zm0-4.44a1.07,1.07,0,0,1,.87,1.2,1.48,1.48,0,0,1-.62.79l-.86.62-1.19-1.64.86-.62A1.54,1.54,0,0,1,23,9.87Z"/><path d="M27.79,11.11a.26.26,0,0,0,.12,0,.25.25,0,0,0,.12,0l.12-.07a.25.25,0,0,0,.13-.23l-.07-1.24,2-1.06,1,.74a.25.25,0,0,0,.27,0l.12-.07a.25.25,0,0,0,0-.42L27.91,6a.25.25,0,0,0-.27,0L27.53,6a.25.25,0,0,0-.13.24l.27,4.63A.25.25,0,0,0,27.79,11.11Zm.38-2.21-.12-2,1.6,1.2Z"/><path d="M34.27,6.33l.49,1.27a.25.25,0,0,0,.23.16l.09,0,.11,0a.25.25,0,0,0,.14-.32l-.49-1.27L35.44,3a.25.25,0,0,0-.34-.28l-.13,0a.25.25,0,0,0-.16.19l-.5,2.66L32.17,3.95a.25.25,0,0,0-.24,0L31.8,4a.25.25,0,0,0-.06.43Z"/><path d="M39.44,6.2a.26.26,0,0,0,.13,0h.06l2.72-.67a.25.25,0,0,0,.15-.11.25.25,0,0,0,0-.19l0-.11A.25.25,0,0,0,42.2,5l-2.36.58-.35-1.42,2-.49a.25.25,0,0,0,.15-.11.25.25,0,0,0,0-.19l0-.11a.25.25,0,0,0-.3-.18l-2,.49L39,2.17l2.27-.56a.25.25,0,0,0,.18-.3l0-.11a.25.25,0,0,0-.3-.18l-2.63.65a.25.25,0,0,0-.18.3l1,4.08A.25.25,0,0,0,39.44,6.2Z"/><path d="M45.68,5h.15a.25.25,0,0,0,.22-.28l-.13-1.18,1-.11.38-.06,1.12,1.25a.26.26,0,0,0,.21.08l.15,0A.25.25,0,0,0,49,4.23L48,3.09a1.49,1.49,0,0,0,.73-1.52A1.51,1.51,0,0,0,48,.43,2.11,2.11,0,0,0,46.62.15L45.21.31A.25.25,0,0,0,45,.58l.45,4.18A.25.25,0,0,0,45.68,5Zm2-4a.92.92,0,0,1,.38.71c.07.67-.32,1.06-1.15,1.15l-1.06.11-.22-2L46.7.77A1.48,1.48,0,0,1,47.69.93Z"/><path d="M60.84.6a.25.25,0,0,0-.17-.09h-.1a.27.27,0,0,0-.23.1L58.23,3.42,56.87.16a.25.25,0,0,0-.2-.15h-.1a.28.28,0,0,0-.18.05.25.25,0,0,0-.09.17l-.51,4.17a.25.25,0,0,0,.22.28h.12a.25.25,0,0,0,.28-.22l.37-3,1.13,2.68a.25.25,0,0,0,.2.15h.07a.25.25,0,0,0,.23-.1L60.13,1.9l-.37,3a.25.25,0,0,0,.22.28h.15a.25.25,0,0,0,.25-.22L60.89.78A.25.25,0,0,0,60.84.6Z"/><path d="M63.06,5.77l.13,0a.25.25,0,0,0,.26-.08l.81-.94,2.16.61.2,1.22a.25.25,0,0,0,.18.2l.13,0H67a.25.25,0,0,0,.25-.29L66.51,2a.25.25,0,0,0-.18-.2l-.12,0a.26.26,0,0,0-.26.08l-3,3.51a.25.25,0,0,0,.12.4ZM64.7,4.28,66,2.77l.31,2Z"/><path d="M71.23,8.56a2.77,2.77,0,0,0,1.12.25,2.23,2.23,0,0,0,2.08-1.4,2.31,2.31,0,0,0,.05-1.82,2.53,2.53,0,0,0-1.35-1.33l-1.45-.64a.25.25,0,0,0-.33.13l-1.7,3.83a.25.25,0,0,0,.13.33Zm1.64-3.74a1.9,1.9,0,0,1,1,1,1.67,1.67,0,0,1,0,1.33,1.7,1.7,0,0,1-2.4.83l-1.1-.49,1.4-3.17Z"/><path d="M78.56,12.56a.24.24,0,0,0,.13,0,.25.25,0,0,0,.21-.12l.06-.1a.25.25,0,0,0-.08-.34l-2.06-1.28.77-1.24,1.75,1.09a.25.25,0,0,0,.34-.08l.06-.1a.25.25,0,0,0-.08-.34L77.92,9l.74-1.19,2,1.23A.25.25,0,0,0,81,9l.06-.1A.25.25,0,0,0,81,8.52l-2.3-1.43a.25.25,0,0,0-.34.08L76.1,10.74a.25.25,0,0,0,.08.34Z"/><path d="M85.52,18.28a2,2,0,0,0,1.32.67,1.25,1.25,0,0,0,.89-.41A1.18,1.18,0,0,0,88,17.3a1.17,1.17,0,0,0,.94-.38c.57-.59.47-1.37-.28-2.1l-1.19-1.16a.25.25,0,0,0-.35,0l-2.93,3a.25.25,0,0,0,0,.35Zm2.78-3c.48.47.56.88.24,1.21a.58.58,0,0,1-.52.2,1.35,1.35,0,0,1-.7-.41l-.94-.92,1-1ZM86,15.8l1,1c.8.78.45,1.15.3,1.3s-.6.44-1.32-.26l-1-1Z"/><path d="M89.47,22.69a.25.25,0,0,0,.35,0l1.06-.84,3.16-.37a.25.25,0,0,0,.17-.4L94.13,21a.26.26,0,0,0-.23-.09l-2.68.32.92-2.54a.25.25,0,0,0,0-.24L92,18.34a.26.26,0,0,0-.24-.09.25.25,0,0,0-.19.16l-1.09,3-1.06.84a.25.25,0,0,0,0,.35Z"/><path d="M94.21,29.86l.05.11a.25.25,0,0,0,.33.11l1.64-.8,1.13,2.3-1.64.8a.25.25,0,0,0-.11.33l.05.11a.25.25,0,0,0,.22.14l.11,0,3.77-1.85a.25.25,0,0,0,.11-.33l-.05-.11a.25.25,0,0,0-.33-.11l-1.58.77L96.78,29l1.58-.77a.25.25,0,0,0,.11-.33l-.05-.11a.25.25,0,0,0-.33-.11l-3.77,1.85a.25.25,0,0,0-.11.33Z"/><path d="M96.87,35.4a.25.25,0,0,0,0,.24l0,.13a.25.25,0,0,0,.21.17l1.23.15L99,38.23l-.91.84a.25.25,0,0,0-.07.26l0,.13a.25.25,0,0,0,.17.16h.06a.25.25,0,0,0,.17-.07l3.39-3.15a.25.25,0,0,0,.07-.26l0-.11a.25.25,0,0,0-.21-.17l-4.59-.56A.26.26,0,0,0,96.87,35.4Zm2.62,2.37L99,36.18l2,.24Z"/><path d="M98.81,42.24a.25.25,0,0,0,0,.19l0,.12a.24.24,0,0,0,.29.2l3.2-.55-2.91,3.17a.25.25,0,0,0-.06.21l0,.1a.25.25,0,0,0,.25.21h0l4.14-.72a.24.24,0,0,0,.16-.1.25.25,0,0,0,0-.19l0-.12a.24.24,0,0,0-.29-.2l-3.2.55,2.91-3.17a.25.25,0,0,0,.06-.21l0-.1a.24.24,0,0,0-.29-.2L99,42.14A.24.24,0,0,0,98.81,42.24Z"/><path d="M104.39,49.32a.25.25,0,0,0-.25-.25h0l-4.2.06a.25.25,0,0,0-.25.25l0,1.59a2.53,2.53,0,0,0,.69,1.77,2.3,2.3,0,0,0,1.65.66h0a2.3,2.3,0,0,0,2.31-2.5Zm-3.55,3a1.91,1.91,0,0,1-.51-1.35l0-1.21,3.47-.05,0,1.21a1.91,1.91,0,0,1-.47,1.37,1.67,1.67,0,0,1-1.23.51A1.73,1.73,0,0,1,100.85,52.32Z"/><path d="M103.51,60.56,99.09,61a.25.25,0,0,0-.22.19l0,.12a.25.25,0,0,0,.11.27l3,1.89-3.53.39a.25.25,0,0,0-.22.19l0,.12a.25.25,0,0,0,.11.27l3.77,2.34a.25.25,0,0,0,.13,0l.1,0a.24.24,0,0,0,.15-.17l0-.12a.25.25,0,0,0-.11-.27l-3-1.86,3.51-.39a.25.25,0,0,0,.22-.19l0-.12a.25.25,0,0,0-.11-.27l-3-1.88,3.5-.37a.25.25,0,0,0,.22-.19l0-.13a.25.25,0,0,0-.06-.22A.25.25,0,0,0,103.51,60.56Z"/><path d="M101,69.9l-3.94-1.46a.25.25,0,0,0-.32.15l0,.11a.25.25,0,0,0,.15.32l3.94,1.46.09,0,.1,0a.25.25,0,0,0,.13-.14l0-.11A.25.25,0,0,0,101,69.9Z"/><path d="M99.58,73.3a.25.25,0,0,0-.33.11l-.58,1.18-3.44-1.7a.25.25,0,0,0-.19,0,.25.25,0,0,0-.14.13l-.05.11a.25.25,0,0,0,.11.33l3.44,1.7-.58,1.18a.25.25,0,0,0,.11.33l.1.05.11,0h.08a.25.25,0,0,0,.14-.13l1.43-2.91a.25.25,0,0,0,0-.19.25.25,0,0,0-.13-.14Z"/><path d="M93,77.05a.26.26,0,0,0-.19,0,.25.25,0,0,0-.16.11l-.07.1a.25.25,0,0,0,.07.35l1.52,1-1.43,2.13-1.52-1a.25.25,0,0,0-.35.07l-.07.1a.25.25,0,0,0,.07.35l3.49,2.34a.25.25,0,0,0,.35-.07l.07-.1a.25.25,0,0,0-.07-.35l-1.46-1,1.43-2.13,1.46,1a.25.25,0,0,0,.35-.07l.07-.1a.25.25,0,0,0-.07-.35Z"/><path d="M86.23,85.66a.25.25,0,0,0-.35,0l-.09.08a.25.25,0,0,0-.08.17.25.25,0,0,0,.07.18l.82.86-.76.72a1.65,1.65,0,0,0-.25,2.49,1.52,1.52,0,0,0,1.12.51A2,2,0,0,0,88.08,90l1-1a.25.25,0,0,0,0-.35ZM86,89.73a.92.92,0,0,1-.29-.75,1.49,1.49,0,0,1,.51-.86l.77-.73,1.4,1.47-.77.73c-.61.58-1.16.62-1.62.14Z"/><path d="M81.4,89.93a.25.25,0,0,0-.16-.1.26.26,0,0,0-.19,0l-.1.07a.25.25,0,0,0-.06.35l.7,1-.85.62-.29.24-1.59-.53a.24.24,0,0,0-.23,0l-.12.09a.25.25,0,0,0,.07.44l1.45.48A1.61,1.61,0,0,0,81.39,95a2.19,2.19,0,0,0,1.26-.46l1.15-.83a.25.25,0,0,0,.06-.35Zm-.07,4.44a1.07,1.07,0,0,1-.87-1.21,1.49,1.49,0,0,1,.63-.79l.86-.62,1.19,1.65-.86.62A1.47,1.47,0,0,1,81.34,94.37Z"/><path d="M76.53,93.11a.26.26,0,0,0-.24,0l-.12.06a.25.25,0,0,0-.13.23l.07,1.24-2,1.06-1-.74a.25.25,0,0,0-.27,0l-.12.07a.25.25,0,0,0,0,.42l3.7,2.79a.24.24,0,0,0,.15.05.25.25,0,0,0,.12,0l.11-.06a.25.25,0,0,0,.13-.23l-.25-4.62A.25.25,0,0,0,76.53,93.11Zm-.39,2.21.11,2-1.59-1.21Z"/><path d="M70,97.88l-.48-1.27a.25.25,0,0,0-.32-.14l-.11,0a.25.25,0,0,0-.14.32l.48,1.27-.6,3.13a.25.25,0,0,0,.25.3l.09,0,.13,0a.25.25,0,0,0,.16-.19L70,98.62l2.14,1.64a.24.24,0,0,0,.24,0l.13,0a.25.25,0,0,0,.06-.43Z"/><path d="M64.68,98,62,98.63a.25.25,0,0,0-.15.11.25.25,0,0,0,0,.19l0,.11a.25.25,0,0,0,.3.18l2.36-.57.35,1.42-2,.49a.25.25,0,0,0-.18.3l0,.11a.25.25,0,0,0,.11.16.25.25,0,0,0,.19,0l2-.49.33,1.36-2.27.55a.25.25,0,0,0-.15.11.25.25,0,0,0,0,.19l0,.11a.25.25,0,0,0,.24.19h.06l2.63-.64a.25.25,0,0,0,.18-.3l-1-4.08A.25.25,0,0,0,64.68,98Z"/><path d="M58.75,99.25a.25.25,0,0,0-.18-.05h-.12a.25.25,0,0,0-.22.28l.12,1.18-1,.11-.37.06-1.11-1.25a.25.25,0,0,0-.21-.08l-.15,0a.25.25,0,0,0-.16.42l1,1.14a1.49,1.49,0,0,0-.73,1.52A1.58,1.58,0,0,0,57.33,104l.31,0,1.41-.15a.25.25,0,0,0,.22-.28l-.44-4.18A.25.25,0,0,0,58.75,99.25Zm-2.55,3.28c-.07-.67.32-1.06,1.16-1.14l1.06-.11.21,2-1.06.11C57,103.47,56.29,103.37,56.2,102.54Z"/><path d="M48.6,85.91l-1.76-.26c-1.51-.23-1.87.57-1.95,1.07a1.18,1.18,0,0,0,.46,1.19,1.27,1.27,0,0,0-.21,1.92,2,2,0,0,0,1.12.49l1.64.25h0a.25.25,0,0,0,.25-.21l.62-4.16a.25.25,0,0,0-.21-.28Zm-3.17,3c.06-.38.32-.57.78-.57l.33,0,1.3.19-.21,1.38-1.3-.19C45.66,89.6,45.36,89.32,45.42,88.86Zm2.5-1-1.42-.21c-1.11-.17-1-.67-1-.89s.23-.71,1.22-.56l1.42.21Z"/><path d="M41.58,84.62a.25.25,0,0,0-.16-.32l-.11,0a.25.25,0,0,0-.32.16l-.43,1.28-2.45,2a.25.25,0,0,0,.08.43l.13,0a.25.25,0,0,0,.24,0l2.08-1.72.61,2.63a.25.25,0,0,0,.16.18l.13,0h.08a.25.25,0,0,0,.24-.31l-.71-3.1Z"/><path d="M32.06,85.06h0a.25.25,0,0,0,.16-.11l.06-.09a.25.25,0,0,0-.07-.35l-1.08-.74,2.16-3.17a.25.25,0,0,0-.07-.35l-.1-.07a.24.24,0,0,0-.19,0,.26.26,0,0,0-.16.11l-2.16,3.17-1.08-.74a.25.25,0,0,0-.35.07l-.06.09a.25.25,0,0,0,0,.19.26.26,0,0,0,.11.16L31.92,85A.25.25,0,0,0,32.06,85.06Z"/><path d="M27.54,75.45l-.11-.1a.25.25,0,0,0-.42.15L26.8,77a1.5,1.5,0,0,0-1.63.42,1.65,1.65,0,0,0,.25,2.49l1,1a.25.25,0,0,0,.17.07.25.25,0,0,0,.18-.08l2.91-3a.25.25,0,0,0,0-.35l-.09-.08a.25.25,0,0,0-.35,0l-.82.86-.76-.73a3.08,3.08,0,0,0-.29-.25l.23-1.66A.25.25,0,0,0,27.54,75.45Zm-1.71,4c-.61-.58-.68-1.12-.21-1.61a.94.94,0,0,1,.68-.33,1.41,1.41,0,0,1,.93.48l.77.74L26.6,80.21Z"/><path d="M25.87,73.78a.25.25,0,0,0,0-.24l-.08-.11a.25.25,0,0,0-.25-.1l-1.22.24L23,71.74l.6-1.08a.25.25,0,0,0,0-.27l-.08-.11a.25.25,0,0,0-.42,0l-2.26,4a.25.25,0,0,0,0,.27l.07.1a.25.25,0,0,0,.2.1h0l4.55-.89A.25.25,0,0,0,25.87,73.78Zm-3.23-1.45,1,1.36-2,.38Z"/><path d="M17.85,69.86a.25.25,0,0,0,.23.14l.11,0L22,68.16a.25.25,0,0,0,.12-.33L22,67.72a.25.25,0,0,0-.14-.13.24.24,0,0,0-.19,0l-1.08.51-.45-1a1.65,1.65,0,1,0-2.94,1.41Zm1.1-3.19a1.5,1.5,0,0,1,.66.76l.46,1-1.83.88-.46-1c-.36-.76-.24-1.29.37-1.58a1.09,1.09,0,0,1,.47-.12A.78.78,0,0,1,18.95,66.66Z"/><path d="M15.18,63.34a.25.25,0,0,0,.24.19h.06l4.06-1.09a.25.25,0,0,0,.18-.31l0-.12a.25.25,0,0,0-.31-.18l-1.15.31-.27-1a2.12,2.12,0,0,0-.76-1.22,1.52,1.52,0,0,0-1.3-.2A1.65,1.65,0,0,0,14.81,62Zm.5-.52-.28-1c-.22-.81,0-1.31.65-1.49s1.09.15,1.31,1l.28,1Z"/><path d="M13.87,56.72a.24.24,0,0,0,.16.05h0l4.18-.48a.25.25,0,0,0,.22-.28v-.12a.25.25,0,0,0-.28-.22L14,56.15a.25.25,0,0,0-.22.28v.12A.25.25,0,0,0,13.87,56.72Z"/><path d="M14.53,49.86a.25.25,0,0,0-.1-.17l-.09-.07a.25.25,0,0,0-.34,0A2.32,2.32,0,0,0,13.52,51c0,1.22.66,1.67,1.26,1.69,1,0,1.22-.84,1.41-1.54s.37-1.07.79-1.08a.56.56,0,0,1,.41.17,1.27,1.27,0,0,1,.25.91,1.62,1.62,0,0,1-.5,1.18.25.25,0,0,0,0,.36l.08.09a.25.25,0,0,0,.19.08.25.25,0,0,0,.15-.05,2.2,2.2,0,0,0,.73-1.65,1.92,1.92,0,0,0-.34-1.26,1.18,1.18,0,0,0-.92-.46h0c-.93,0-1.16.84-1.35,1.52s-.37,1.1-.8,1.09-.69-.4-.67-1.06a1.74,1.74,0,0,1,.34-1A.25.25,0,0,0,14.53,49.86Z"/><path d="M14.07,46.88l.11,0h0a.24.24,0,0,0,.14,0,.25.25,0,0,0,.11-.16l.24-1.29,3.78.7a.26.26,0,0,0,.19,0,.25.25,0,0,0,.1-.16l0-.12a.25.25,0,0,0-.2-.29l-3.78-.7.24-1.29a.25.25,0,0,0,0-.19.25.25,0,0,0-.16-.1l-.11,0a.25.25,0,0,0-.29.2l-.59,3.19A.25.25,0,0,0,14.07,46.88Z"/><path d="M18.9,32.3l0,.09a.25.25,0,0,0,0,.25l1.9,3-3.53.12a.25.25,0,0,0-.21.13L17,36a.25.25,0,0,0,0,.19.25.25,0,0,0,.12.15l3.72,2,.12,0H21a.25.25,0,0,0,.15-.12l.06-.11a.25.25,0,0,0-.11-.34l-2.65-1.39,2.91-.11a.25.25,0,0,0,.21-.13l0-.06a.25.25,0,0,0,0-.25L20,33.31l2.66,1.4A.25.25,0,0,0,23,34.6l.06-.11a.25.25,0,0,0-.11-.34l-3.72-2A.25.25,0,0,0,18.9,32.3Z"/><path d="M24.11,26.39A2.51,2.51,0,0,0,21.92,29a2.43,2.43,0,0,0,2.38,2.18h.22a2.42,2.42,0,0,0,1.62-.88,2.38,2.38,0,0,0-2-3.92Zm-.94,3.77a1.73,1.73,0,0,1-.2-2.49A1.78,1.78,0,0,1,24.34,27a1.78,1.78,0,1,1-1.16,3.16Z"/><path d="M29.4,26.48a.25.25,0,0,0,.17.09h0a.25.25,0,0,0,.16-.05l.09-.08a.25.25,0,0,0,0-.35l-2-2.53,4.17,1a.25.25,0,0,0,.22,0l.08-.06a.25.25,0,0,0,0-.35l-2.62-3.28a.25.25,0,0,0-.35,0l-.09.07a.25.25,0,0,0,0,.35l2,2.53-4.17-1a.24.24,0,0,0-.21,0l-.08.06a.25.25,0,0,0-.09.17.25.25,0,0,0,.05.18Z"/><path d="M33.57,18.45a.25.25,0,0,0-.34-.1l-.11.06a.25.25,0,0,0-.11.34l2,3.72a.25.25,0,0,0,.34.11l.11-.06a.25.25,0,0,0,.11-.34l-.47-.9.32-1.08,2.48.94a.25.25,0,0,0,.21,0L38.2,21a.25.25,0,0,0,0-.46l-2.62-1,.7-2.35a.25.25,0,0,0-.08-.26.25.25,0,0,0-.28,0l-.14.08a.25.25,0,0,0-.12.15l-1,3.32Z"/><path d="M41.13,17.17c-.77.05-1.15,0-1.29-.4s.16-.78.78-1a1.73,1.73,0,0,1,1,0,.25.25,0,0,0,.32-.17l0-.11a.25.25,0,0,0-.16-.31,2.32,2.32,0,0,0-1.44,0,1.84,1.84,0,0,0-1.06.74,1.2,1.2,0,0,0-.12,1c.3.94,1.2.88,1.91.82s1.14,0,1.28.39-.16.77-.81,1a1.63,1.63,0,0,1-1.28-.08.25.25,0,0,0-.19,0,.25.25,0,0,0-.16.12l-.06.1a.25.25,0,0,0,.08.33,1.86,1.86,0,0,0,1,.27,2.6,2.6,0,0,0,.78-.12C43,19.35,43.21,18.55,43,18,42.73,17.06,41.84,17.12,41.13,17.17Z"/><path d="M49.77,18.11a.25.25,0,0,0,.17.06h.14a.25.25,0,0,0,.23-.26L50,13.71a.25.25,0,0,0-.08-.17.22.22,0,0,0-.18-.06h-.12a.25.25,0,0,0-.23.26l.27,4.19A.25.25,0,0,0,49.77,18.11Z"/><path d="M53.7,18.09h.12a.24.24,0,0,0,.27-.23l.3-3.24,2.31,3.63a.25.25,0,0,0,.19.12H57a.25.25,0,0,0,.25-.23L57.64,14a.25.25,0,0,0-.22-.27H57.3a.24.24,0,0,0-.18.06.25.25,0,0,0-.09.17l-.3,3.24-2.31-3.63a.25.25,0,0,0-.19-.12h-.1a.22.22,0,0,0-.18.06.25.25,0,0,0-.09.17l-.38,4.19a.25.25,0,0,0,.23.27Z"/><path d="M65.48,16.43a2.42,2.42,0,0,0-1.3,3.12,2.41,2.41,0,0,0,1.32,1.28,2.48,2.48,0,0,0,1,.2,2,2,0,0,0,.77-.15.25.25,0,0,0,.14-.31l0-.1a.25.25,0,0,0-.13-.15.25.25,0,0,0-.2,0,1.63,1.63,0,0,1-1.26,0,1.8,1.8,0,0,1-1-1,1.79,1.79,0,0,1,1-2.31,1.8,1.8,0,0,1,1.37,0,1.63,1.63,0,0,1,.92.86.25.25,0,0,0,.14.13.25.25,0,0,0,.2,0l.1,0a.25.25,0,0,0,.12-.32,2.23,2.23,0,0,0-1.25-1.18A2.41,2.41,0,0,0,65.48,16.43Z"/><path d="M71.89,24.39a.25.25,0,0,0,.14,0h.05a.24.24,0,0,0,.16-.11l.06-.1a.25.25,0,0,0-.07-.34l-2-1.32.8-1.23,1.73,1.12a.25.25,0,0,0,.34-.07l.06-.1a.24.24,0,0,0,0-.19.25.25,0,0,0-.11-.16l-1.73-1.12.76-1.17,2,1.27a.25.25,0,0,0,.34-.07l.06-.1a.24.24,0,0,0,0-.19.25.25,0,0,0-.11-.16L72.1,18.92a.25.25,0,0,0-.35.07l-2.29,3.53a.25.25,0,0,0,.07.35Z"/><path d="M76.73,28.57l.07.07a.25.25,0,0,0,.17.07h0a.25.25,0,0,0,.17-.08l2.9-3a.25.25,0,0,0,.07-.18.25.25,0,0,0-.08-.17L80,25.15a.25.25,0,0,0-.35,0l-2.24,2.35.44-4.28a.25.25,0,0,0-.08-.21L77.65,23a.25.25,0,0,0-.35,0L74.4,26a.25.25,0,0,0,0,.35l.09.08a.2.2,0,0,0,.18.07.25.25,0,0,0,.18-.08l2.24-2.35-.44,4.28A.25.25,0,0,0,76.73,28.57Z"/><path d="M82.72,29.38l-3.09,2.27a.25.25,0,0,0-.05.35l.07.1a.25.25,0,0,0,.35.05l3.09-2.27.78,1.06a.25.25,0,0,0,.35.05l.09-.07a.25.25,0,0,0,.1-.16.25.25,0,0,0,0-.19L82.44,28a.25.25,0,0,0-.16-.1.25.25,0,0,0-.19,0L82,28a.25.25,0,0,0-.05.35Z"/><path d="M83.36,38.45l.07.13a.28.28,0,0,0,.22.14.25.25,0,0,0,.22-.13l.71-1.36a1.49,1.49,0,0,0,1.68.15,1.52,1.52,0,0,0,.84-1,2.11,2.11,0,0,0-.24-1.42l-.64-1.27a.25.25,0,0,0-.14-.13.26.26,0,0,0-.19,0l-3.76,1.88a.25.25,0,0,0-.11.33l.05.11a.25.25,0,0,0,.14.13.25.25,0,0,0,.19,0l1.07-.53.47.94a3.35,3.35,0,0,0,.19.33l-.78,1.48A.25.25,0,0,0,83.36,38.45Zm2.49-4.17.48,1c.38.75.26,1.29-.34,1.59s-1.1.07-1.48-.68l-.48-1Z"/><path d="M85.4,44.55l0,.13a.25.25,0,0,0,.17.17h.07a.25.25,0,0,0,.16-.06l3.5-3a.25.25,0,0,0,.08-.26l0-.12a.25.25,0,0,0-.2-.18L84.6,40.5a.25.25,0,0,0-.28.32l0,.13a.25.25,0,0,0,.2.18l1.22.19.62,2.16-.93.81A.25.25,0,0,0,85.4,44.55Zm3-2.82L86.92,43l-.46-1.61Z"/><path d="M90.47,46.81a.24.24,0,0,0-.18-.05l-4.18.45a.25.25,0,0,0-.22.28l.28,2.61a.25.25,0,0,0,.25.22h.14a.25.25,0,0,0,.22-.28l-.24-2.24,3.81-.41a.25.25,0,0,0,.22-.28V47A.25.25,0,0,0,90.47,46.81Z"/><path d="M90.35,57.08l-4.14-.71a.24.24,0,0,0-.29.2l0,.12a.25.25,0,0,0,.2.29l1,.17.67.91-2.26,1.4a.25.25,0,0,0-.11.17l0,.16a.25.25,0,0,0,.11.25.25.25,0,0,0,.27,0l2.38-1.48,1.45,2a.25.25,0,0,0,.2.1h.06a.25.25,0,0,0,.19-.2l0-.16a.25.25,0,0,0,0-.19l-2-2.8,2.28.39a.24.24,0,0,0,.29-.2l0-.12a.25.25,0,0,0-.2-.29Z"/><path d="M87.64,66.82l.11,0h.08l.11,0a.25.25,0,0,0,.13-.14L89,64.16a.25.25,0,0,0-.15-.32l-4-1.43a.25.25,0,0,0-.32.15l-1,2.63a.25.25,0,0,0,.15.32l.11,0a.24.24,0,0,0,.19,0,.25.25,0,0,0,.13-.14L85,63.12l1.38.5-.7,1.94a.25.25,0,0,0,.15.32l.11,0a.25.25,0,0,0,.32-.15l.7-1.94,1.31.48-.8,2.2A.25.25,0,0,0,87.64,66.82Z"/><path d="M81.8,71.19l4.27-.52a.25.25,0,0,0,.19-.12l.05-.09a.25.25,0,0,0-.09-.34L82.6,68a.25.25,0,0,0-.19,0,.25.25,0,0,0-.15.11l-.06.1a.25.25,0,0,0,.09.34l2.79,1.66-4.27.52a.25.25,0,0,0-.19.12l-.05.09a.25.25,0,0,0,.09.34l3.61,2.15a.25.25,0,0,0,.13,0h.06a.25.25,0,0,0,.15-.11l.06-.1a.25.25,0,0,0-.09-.34Z"/><path d="M79.81,78.48a.25.25,0,0,0,.09.17l.09.07a.25.25,0,0,0,.35,0l2.13-2.45a.25.25,0,0,0,.06-.18.25.25,0,0,0-.09-.17l-.09-.07a.25.25,0,0,0-.35,0l-.86,1-2.9-2.52a.25.25,0,0,0-.35,0l-.08.09a.25.25,0,0,0,0,.35l2.9,2.52-.86,1A.25.25,0,0,0,79.81,78.48Z"/><path d="M76.3,78.89a1.88,1.88,0,1,0-2.91,2.36l1.54,1.9a.25.25,0,0,0,.35,0l.09-.08a.26.26,0,0,0,.09-.17.25.25,0,0,0-.05-.18l-1.54-1.9a1.56,1.56,0,0,1-.43-1.05,1.45,1.45,0,0,1,1.44-1.17,1.57,1.57,0,0,1,.94.64l1.54,1.9a.25.25,0,0,0,.17.09.24.24,0,0,0,.18-.06l.09-.08a.25.25,0,0,0,0-.35Z"/><path d="M70.09,86.41a2.38,2.38,0,0,0-.4-4.39,2.42,2.42,0,0,0-1.83.21,2.24,2.24,0,0,0-1.13,1.3.25.25,0,0,0,.15.31l.1,0a.25.25,0,0,0,.2,0,.25.25,0,0,0,.13-.15,1.63,1.63,0,0,1,.84-.95,1.8,1.8,0,0,1,1.36-.16,1.79,1.79,0,0,1,1.18,2.21,1.8,1.8,0,0,1-.89,1,1.62,1.62,0,0,1-1.25.17.24.24,0,0,0-.19,0,.25.25,0,0,0-.12.16l0,.11a.25.25,0,0,0,.17.29,2,2,0,0,0,.56.08A2.43,2.43,0,0,0,70.09,86.41Z"/><path d="M61.88,89.16a.25.25,0,0,0,.22.36h.08l.15,0a.25.25,0,0,0,.15-.13L64,86.24l.7,2.2a.25.25,0,0,0,.31.16l.11,0a.25.25,0,0,0,.15-.12.24.24,0,0,0,0-.19l-1.27-4a.25.25,0,0,0-.31-.16l-.11,0a.25.25,0,0,0-.16.31l.31,1-.5,1L61,85a.24.24,0,0,0-.2,0l-.15,0a.25.25,0,0,0-.17.21.25.25,0,0,0,.12.24L63,87Z"/><path d="M57.55,87.27l-.19-1.34a.25.25,0,0,0-.28-.21l-.12,0a.25.25,0,0,0-.17.1.25.25,0,0,0,0,.19l.19,1.34-1.28,2.92a.25.25,0,0,0,.23.35h0l.14,0a.25.25,0,0,0,.2-.15L57.34,88l1.73,2.08a.25.25,0,0,0,.23.09l.14,0a.25.25,0,0,0,.2-.16.25.25,0,0,0,0-.25Z"/><path d="M47.69,70.29a1.92,1.92,0,0,0-1.3.06,1.18,1.18,0,0,0-.65.8c-.23.94.55,1.36,1.19,1.69s1,.58.89,1-.54.58-1.18.43a1.74,1.74,0,0,1-.89-.55.25.25,0,0,0-.17-.09.24.24,0,0,0-.18.06l-.09.08a.25.25,0,0,0,0,.34,2.33,2.33,0,0,0,1.23.75,2.5,2.5,0,0,0,.6.08A1.27,1.27,0,0,0,48.42,74c.24-1-.56-1.38-1.2-1.71s-1-.57-.88-1a.56.56,0,0,1,.26-.36,1.28,1.28,0,0,1,.95,0,1.62,1.62,0,0,1,1,.75.25.25,0,0,0,.15.13.24.24,0,0,0,.2,0l.1-.06a.25.25,0,0,0,.11-.32A2.2,2.2,0,0,0,47.69,70.29Z"/><path d="M43.09,68.48a.24.24,0,0,0-.19,0,.25.25,0,0,0-.15.12l-2,3.67a.25.25,0,0,0,.1.34l.11.06a.25.25,0,0,0,.12,0h.07a.25.25,0,0,0,.15-.12l2-3.67a.25.25,0,0,0-.1-.34Z"/><path d="M39.93,66.35l-.08-.09a.25.25,0,0,0-.18-.08.2.2,0,0,0-.18.07l-2.33,2.26.6-4.26a.25.25,0,0,0-.07-.21L37.63,64a.25.25,0,0,0-.35,0l-3,2.93a.25.25,0,0,0,0,.35l.08.09a.25.25,0,0,0,.18.08.18.18,0,0,0,.18-.07L37,65.09l-.6,4.25a.25.25,0,0,0,.07.21l.07.07a.25.25,0,0,0,.35,0l3-2.93A.25.25,0,0,0,39.93,66.35Z"/><path d="M32.74,62.74a2.44,2.44,0,0,0,1-.22,2.34,2.34,0,0,0,1.18-3.17,2.24,2.24,0,0,0-1.22-1.21.25.25,0,0,0-.32.13l0,.1a.25.25,0,0,0,.13.34,1.63,1.63,0,0,1,.89.9A1.79,1.79,0,0,1,34.42,61a1.79,1.79,0,0,1-2.27,1,1.79,1.79,0,0,1-1-1,1.63,1.63,0,0,1-.09-1.26.25.25,0,0,0-.17-.32l-.11,0a.25.25,0,0,0-.3.15,2.24,2.24,0,0,0,.1,1.71A2.35,2.35,0,0,0,32.74,62.74Z"/><path d="M33.6,54.93l-.24-2.79a.24.24,0,0,0-.27-.23H33a.25.25,0,0,0-.23.27L33,54.61l-1.46.13-.18-2.06a.25.25,0,0,0-.09-.17.25.25,0,0,0-.18-.06h-.11a.25.25,0,0,0-.23.27l.18,2.06-1.39.12-.2-2.33a.24.24,0,0,0-.27-.23h-.11a.25.25,0,0,0-.23.27l.23,2.7a.25.25,0,0,0,.25.23h0l4.19-.36A.25.25,0,0,0,33.6,54.93Z"/><path d="M30.76,44.06l.32-.76,3.53,1.49.1,0,.09,0a.25.25,0,0,0,.14-.13l0-.1a.25.25,0,0,0-.13-.33L31,42.59a.25.25,0,0,0-.33.13l-.46,1.1a.25.25,0,0,0,.13.33l.11,0A.25.25,0,0,0,30.76,44.06Z"/><path d="M36.13,41.21a1.87,1.87,0,0,0,1.4-.82c.69-.87.7-1.74,0-2.27a1.21,1.21,0,0,0-1.25-.18,1.13,1.13,0,0,0-.44-1c-.62-.49-1.42-.3-2,.48a1.91,1.91,0,0,0-.46,1.11,1.18,1.18,0,0,0,.46,1,1.13,1.13,0,0,0,1,.22,1.21,1.21,0,0,0,.46,1.17A1.28,1.28,0,0,0,36.13,41.21Zm-.66-1.32a1.53,1.53,0,0,1,.38-.84,1.56,1.56,0,0,1,.74-.56l.19,0a.63.63,0,0,1,.4.15c.55.44.09,1.13-.13,1.4s-.79.86-1.33.43A.63.63,0,0,1,35.46,39.89Zm-.34-2.58a.57.57,0,0,1,.36.13c.48.39,0,1-.12,1.22a1.32,1.32,0,0,1-.65.49.6.6,0,0,1-.73-.5,1.2,1.2,0,0,1,.32-.83A1.23,1.23,0,0,1,35.12,37.31Z"/><path d="M42.82,34l-.06-.1a.25.25,0,0,0-.16-.11.27.27,0,0,0-.19,0l-.57.38-.47-.71a.25.25,0,0,0-.35-.07l-.1.07a.25.25,0,0,0-.07.35l.47.71-1.25.82.35-3.14A.25.25,0,0,0,40.3,32,.25.25,0,0,0,40,32l-.12.08a.25.25,0,0,0-.11.18l-.41,3.69a.25.25,0,0,0,0,.17l0,.08a.25.25,0,0,0,.21.11.25.25,0,0,0,.14,0L41.65,35l.55.84a.25.25,0,0,0,.35.07l.1-.07a.25.25,0,0,0,.07-.35l-.55-.83.57-.38A.25.25,0,0,0,42.82,34Z"/><path d="M45.57,31.85a1.21,1.21,0,0,0-.32,1.21,1.25,1.25,0,0,0,.75.87,1.68,1.68,0,0,0,.63.11,2.72,2.72,0,0,0,.7-.1c1.07-.29,1.6-1,1.38-1.81a1.21,1.21,0,0,0-.9-.89,1.13,1.13,0,0,0,.22-1c-.2-.76-1-1.09-1.93-.83s-1.45.92-1.24,1.68A1.13,1.13,0,0,0,45.57,31.85Zm.68,1.52a.65.65,0,0,1-.4-.46.63.63,0,0,1,.12-.59,1.53,1.53,0,0,1,.81-.45,2.11,2.11,0,0,1,.54-.08,1.11,1.11,0,0,1,.39.06.63.63,0,0,1,.4.45h0a.64.64,0,0,1-.06.5,1.41,1.41,0,0,1-.88.55A1.54,1.54,0,0,1,46.25,33.37Zm.37-2.09c-.3.08-1,.2-1.16-.39S46,30,46.26,30a1.89,1.89,0,0,1,.46-.06.65.65,0,0,1,.71.46C47.59,31,46.85,31.22,46.61,31.28Z"/><path d="M57.16,30a1.21,1.21,0,0,1,.91,0,1.75,1.75,0,0,1,.88.56.25.25,0,0,0,.36,0l.09-.08a.25.25,0,0,0,0-.34,2.33,2.33,0,0,0-1.21-.77c-1.18-.31-1.78.26-1.93.84-.25,1,.54,1.38,1.17,1.73s1,.58.87,1-.55.56-1.21.39a1.62,1.62,0,0,1-1-.76.25.25,0,0,0-.34-.11l-.1.05a.25.25,0,0,0-.11.32A2.21,2.21,0,0,0,57,33.93a2.55,2.55,0,0,0,.65.09,1.26,1.26,0,0,0,1.31-.92c.25-.94-.54-1.36-1.17-1.7s-1-.59-.87-1A.58.58,0,0,1,57.16,30Z"/><path d="M61.54,35.8a.25.25,0,0,0,.13,0h.06a.25.25,0,0,0,.15-.12L64,32.07a.25.25,0,0,0-.09-.34l-.1-.06a.25.25,0,0,0-.34.09L61.34,35.4a.25.25,0,0,0,.09.34Z"/><path d="M66.86,40.27l.07.07a.25.25,0,0,0,.35,0l3-2.89a.25.25,0,0,0,0-.35L70.25,37a.25.25,0,0,0-.35,0l-2.35,2.24L68.2,35a.25.25,0,0,0-.07-.21l-.07-.07a.25.25,0,0,0-.17-.08.2.2,0,0,0-.18.07l-3,2.89a.25.25,0,0,0,0,.35l.08.09a.25.25,0,0,0,.35,0l2.35-2.24-.65,4.25A.25.25,0,0,0,66.86,40.27Z"/><path d="M73.45,44.82a.25.25,0,0,0,.15.13l.11,0a.25.25,0,0,0,.31-.15,2.24,2.24,0,0,0-.08-1.72,2.39,2.39,0,0,0-4.41,0A2.43,2.43,0,0,0,69.59,45a2.24,2.24,0,0,0,1.2,1.23l.09,0a.25.25,0,0,0,.23-.14l0-.1a.25.25,0,0,0-.13-.34,1.64,1.64,0,0,1-.88-.91A1.77,1.77,0,0,1,72.4,42.4a1.79,1.79,0,0,1,1,1,1.63,1.63,0,0,1,.07,1.26A.24.24,0,0,0,73.45,44.82Z"/><path d="M75.12,51.85a.25.25,0,0,0,.27.23h.11a.25.25,0,0,0,.17-.08.25.25,0,0,0,.06-.18l-.2-2.7a.25.25,0,0,0-.09-.17.23.23,0,0,0-.18-.06l-4.19.31a.25.25,0,0,0-.23.27l.21,2.79a.25.25,0,0,0,.25.23h.13a.25.25,0,0,0,.23-.27l-.18-2.42,1.46-.11.15,2.06a.25.25,0,0,0,.09.17.24.24,0,0,0,.18.06h.11a.25.25,0,0,0,.23-.27l-.15-2.06,1.39-.1Z"/><path d="M73.31,61.81l.1,0,.09,0a.25.25,0,0,0,.14-.13l.48-1.09a.25.25,0,0,0,0-.19.25.25,0,0,0-.13-.14l-.1,0a.25.25,0,0,0-.33.13l-.33.76-3.51-1.53a.26.26,0,0,0-.19,0,.25.25,0,0,0-.14.13l0,.1a.25.25,0,0,0,.13.33Z"/><path d="M67.92,66.43a1.13,1.13,0,0,0,.43,1,1.18,1.18,0,0,0,.75.28A1.74,1.74,0,0,0,70.4,67a1.78,1.78,0,0,0,.47-1.28,1.18,1.18,0,0,0-.44-.81,1.12,1.12,0,0,0-1-.23,1.21,1.21,0,0,0-.44-1.17,1.24,1.24,0,0,0-1.12-.27,2.12,2.12,0,0,0-1.09.77,2,2,0,0,0-.54,1.41,1.26,1.26,0,0,0,.48.86A1.21,1.21,0,0,0,67.92,66.43Zm1.35.61a.57.57,0,0,1-.53-.12c-.48-.39,0-1,.13-1.22a1.33,1.33,0,0,1,.65-.48.55.55,0,0,1,.51.12.56.56,0,0,1,.22.49,1.32,1.32,0,0,1-.34.73A1.34,1.34,0,0,1,69.27,67Zm-.87-1.72a1.56,1.56,0,0,1-.75.56.63.63,0,0,1-.59-.13.64.64,0,0,1-.25-.56,1.56,1.56,0,0,1,.4-.84,1.52,1.52,0,0,1,.74-.55l.17,0a.66.66,0,0,1,.42.16C69.08,64.37,68.63,65,68.4,65.32Z"/><path d="M63.89,72.31a.25.25,0,0,0,.27,0l.12-.08a.25.25,0,0,0,.11-.18l.45-3.68a.25.25,0,0,0,0-.17l0-.08a.25.25,0,0,0-.35-.08l-1.83,1.18L62,68.39a.25.25,0,0,0-.35-.08l-.1.06a.25.25,0,0,0-.08.35l.54.84-.58.37a.25.25,0,0,0-.11.16.25.25,0,0,0,0,.19l.06.1a.25.25,0,0,0,.34.08l.58-.37.46.71a.25.25,0,0,0,.35.08l.1-.07a.25.25,0,0,0,.07-.34l-.46-.71,1.25-.8-.38,3.13A.25.25,0,0,0,63.89,72.31Z"/><path d="M58.94,71.18c-.21-.83-1-1.18-2.08-.91s-1.61,1-1.4,1.8a1.21,1.21,0,0,0,.88.9,1.13,1.13,0,0,0-.23,1,1.18,1.18,0,0,0,.71.82,1.61,1.61,0,0,0,.61.11,2.44,2.44,0,0,0,.6-.08,1.77,1.77,0,0,0,1.14-.75,1.17,1.17,0,0,0,.12-.91,1.13,1.13,0,0,0-.7-.8A1.21,1.21,0,0,0,58.94,71.18Zm-2.22,2.67a.55.55,0,0,1,.11-.51,1.36,1.36,0,0,1,.72-.39,1.88,1.88,0,0,1,.45-.06.64.64,0,0,1,.7.46.57.57,0,0,1-.11.52,1.32,1.32,0,0,1-.7.39C57.65,74.32,56.88,74.46,56.72,73.85Zm1.23-3a.65.65,0,0,1,.4.46c.17.67-.6.94-.94,1-.72.18-1.21,0-1.33-.45a.64.64,0,0,1,.13-.6,1.55,1.55,0,0,1,.82-.44A1.53,1.53,0,0,1,57.94,70.86Z"/><path d="M59.06,48.19H45.35a.93.93,0,0,0-.69.31,1,1,0,0,0-.24.73,7.73,7.73,0,0,0,5.37,6.59.45.45,0,0,1,.33.42v1.51a4.33,4.33,0,0,1-2.23,3.58.93.93,0,0,0,.53,1.7h7.73a.93.93,0,0,0,.53-1.7,4.33,4.33,0,0,1-2.23-3.58V56.19a.44.44,0,0,1,.32-.42A7.76,7.76,0,0,0,60,49.23a1,1,0,0,0-.24-.73A.93.93,0,0,0,59.06,48.19Zm-5.11,8.35v.93H50.62v-.93ZM50.6,58H54a4,4,0,0,0,.16.93H50.45A4,4,0,0,0,50.6,58Zm5.79,3.77a.42.42,0,0,1,.17.48.42.42,0,0,1-.42.31H48.42a.42.42,0,0,1-.42-.31.42.42,0,0,1,.17-.48,5.72,5.72,0,0,0,2.09-2.34h4A5.72,5.72,0,0,0,56.4,61.75ZM54.6,55.3A1,1,0,0,0,54,56H50.59a1,1,0,0,0-.64-.69,7.23,7.23,0,0,1-5-6.17.44.44,0,0,1,.11-.34.43.43,0,0,1,.32-.14H59.06a.43.43,0,0,1,.32.14.45.45,0,0,1,.11.34A7.25,7.25,0,0,1,54.6,55.3Z"/><path d="M49.53,43.1v1.4a.25.25,0,0,0,.25.25h1.48v1.48a.25.25,0,0,0,.25.25h1.4a.25.25,0,0,0,.25-.25V44.76h1.48a.25.25,0,0,0,.25-.25V43.1a.25.25,0,0,0-.25-.25H53.16V41.38a.25.25,0,0,0-.25-.25h-1.4a.25.25,0,0,0-.25.25v1.48H49.78A.25.25,0,0,0,49.53,43.1Zm.5.25h1.48a.25.25,0,0,0,.25-.25V41.63h.9V43.1a.25.25,0,0,0,.25.25h1.48v.9H52.91a.25.25,0,0,0-.25.25V46h-.9V44.51a.25.25,0,0,0-.25-.25H50Z"/></g></g></svg>