<svg xmlns="http://www.w3.org/2000/svg" viewBox="0 0 633.94 633.21"><title>ljAsset 5</title><g id="Layer_2" data-name="Layer 2"><g id="Layer_1-2" data-name="Layer 1"><path d="M294.82,604.16l-.72-.08a1.48,1.48,0,0,0-1.68,1.32l-1.74,14.44-.17-.24c-.45-.63-2.2-2.88-4-4.93l-3.18-7.49a1.52,1.52,0,0,0-1.21-.91l-.43-.05a1.51,1.51,0,0,0-1.41.6l-6,8.09c-.92.59-1.68,1.08-2.1,1.33a9.94,9.94,0,0,1-2,.91l1.71-14.21a1.54,1.54,0,0,0-.31-1.13,1.5,1.5,0,0,0-1-.56l-.72-.08a1.51,1.51,0,0,0-1.68,1.32l-3,25.29a1.52,1.52,0,0,0,1.32,1.69l.62.08a1.63,1.63,0,0,0,1.41-.6l.65-.87a19.3,19.3,0,0,0,2.93-1.64c2.59-1.67,5.07-10.48,8.63-10.7a3.83,3.83,0,0,1,2.54.72l5,11.76A13.36,13.36,0,0,0,289,630l.64,1.51a1.51,1.51,0,0,0,1.21.91l.61.08h.19a1.47,1.47,0,0,0,1.21-.62c3.15-.85,2.48-4,1-6.93l2.3-19.08a1.54,1.54,0,0,0-.31-1.13A1.5,1.5,0,0,0,294.82,604.16Z"/><path d="M251.81,597.53l-.81-.23a1.55,1.55,0,0,0-1.57.48l-4.88,5.7-10.79-3a9.3,9.3,0,0,0-2.58-1.93l-1-6.15a1.52,1.52,0,0,0-1.09-1.22l-.81-.23a1.57,1.57,0,0,0-1.42.33,1.53,1.53,0,0,0-.49,1.38l4.54,27.77a1.52,1.52,0,0,0,1.09,1.22l.7.2a1.61,1.61,0,0,0,.41.05,1.52,1.52,0,0,0,1.16-.53l1.05-1.23a15,15,0,0,0,4.78-3.3c2.31-2.3,11.12-10.92,11.12-14.05a3.7,3.7,0,0,0-.81-.3l2.14-2.5a1.52,1.52,0,0,0-.75-2.45Zm-12.57,9.66a19.2,19.2,0,0,0-1.07,3.77L236,613.49a8.45,8.45,0,0,0-2.35.36l-1-6.24a9.11,9.11,0,0,0,2.21-1.1c1.87.49,2.38-.15,2.12-1.26l3.38.95A12.07,12.07,0,0,0,239.24,607.19Z"/><path d="M211,584.66l-8.84-3.88c-8.06-3.53-16-.64-19.43,7s-.19,15.29,7.62,18.9a14.44,14.44,0,0,0,1.86,1.61,15,15,0,0,0,7.12,2.34l.2.09a1.5,1.5,0,0,0,1.78-.43c1.75-.67,3-2.36,3-5.68a1.29,1.29,0,0,0-.18-.71l2.56-5.83c2.47.27,4.66-7.85,4.26-9.71l.77-1.76A1.51,1.51,0,0,0,211,584.66Zm-11.68,21-.9.55-6.16-2.7a13.81,13.81,0,0,1-3.59-2.26,8,8,0,0,0-1.73-1.91,9.79,9.79,0,0,1-1-1.89,9.62,9.62,0,0,1-.6-5.1l.06,0c.38.1,7.88-7,11.54-7,0-1.21,7.27,1.6,7.9,2.23a6,6,0,0,1,1.15,3Zm-7.06-22.13a31.52,31.52,0,0,0-3.62,2.19,9.49,9.49,0,0,1,3.32-2.09Z"/><path d="M172,565.5l-14.42-8.93a1.49,1.49,0,0,0-1.15-.18,1.51,1.51,0,0,0-.94.68l-.36.59a1.52,1.52,0,0,0,.49,2.09l2.91,1.8c-.07,0-.07.12,0,.23,2.41,3.46,7.83,3.47,8,8.38l-3,4.77-.27,0-10.45-6.48a1.47,1.47,0,0,0-1.15-.18,1.51,1.51,0,0,0-.95.69l-.36.59a1.52,1.52,0,0,0,.5,2.08l4.45,2.76c.76,1.66,3.17,4.38,4.43,6.69l-2.61,4.21h-.32L145,577.93a1.47,1.47,0,0,0-1.15-.18,1.51,1.51,0,0,0-.94.68l-.36.59a1.52,1.52,0,0,0,.49,2.09l3.15,2c.27,2.21,4.59,3.83,6.12,4.45a13.22,13.22,0,0,0,2.11.66l2.57,1.59a1.54,1.54,0,0,0,.8.23,1.4,1.4,0,0,0,.35,0,1.5,1.5,0,0,0,.94-.68l1-1.61c4.23-1.92,7-7.2,9.51-12.44,1.24-2.62,2-4.08,1.85-5.89l1.07-1.72a1.53,1.53,0,0,0,.18-1.15A1.5,1.5,0,0,0,172,565.5Z"/><path d="M115.16,521.89c-2.44-2.35-4.8-3.69-7-4a7.89,7.89,0,0,0-8.27,9.94,7.37,7.37,0,0,0-5.7,2.35c-3.42,3.55-2.83,8.23,1.56,12.56,0,1.83,3.6,4.46,6,5.83l1.39,1.34a1.53,1.53,0,0,0,1.06.43,1.84,1.84,0,0,0,1.09-.46l.4-.42c3.06-.41,4.58-2.67,7.05-5a71.33,71.33,0,0,0,7.7-10.34l2.54-2.64a1.54,1.54,0,0,0,.43-1.09,1.5,1.5,0,0,0-.46-1.06Zm-11.05,23.8-5.75-5.55A9.55,9.55,0,0,1,96,536.9c2.45-1.19,6.8-4.17,10.43.15a8.57,8.57,0,0,1,2.07,4.07Zm8.47-8.79-6.27-6c-3.75-3.61-3.38-5.77-2.59-7,1.61,1.29,5.84,2.24,8.26,1.71.36-.08,1.6.72,2.56.91l4.2,4.05Z"/><path d="M91.15,495.21a1.51,1.51,0,0,0-1-.56A1.59,1.59,0,0,0,89,495l-6.43,5.13L63.4,502.43a1.52,1.52,0,0,0-1,2.45l.52.65a1.59,1.59,0,0,0,1.37.56l11.53-1.4a1.32,1.32,0,0,0-.1.38c-.09,1.39,1.82,2.42,3.15,3.74L75,519.54a1.51,1.51,0,0,0,.24,1.45l.52.66a1.52,1.52,0,0,0,1.19.58l.25,0a1.52,1.52,0,0,0,1.18-1l1.13-3.16c.21-.11.35-.38.4-.83l-.09,0,1.38-3.85c2.09-2.24,7-10,6.79-11.25a7.79,7.79,0,0,1-.16-1.39l3.5-2.79a1.52,1.52,0,0,0,.24-2.13Z"/><path d="M62.28,451.69,62,451a1.53,1.53,0,0,0-2-.69L52.49,454c-1.4-.62-2.85-1.33-4.13-2l-3.44-7a22.78,22.78,0,0,0,6.7-7,2,2,0,0,0-1-.48L53,436.4a1.52,1.52,0,0,0,.69-2l-.32-.65a1.52,1.52,0,0,0-.87-.76,1.57,1.57,0,0,0-1.16.07L28.49,444.3a1.51,1.51,0,0,0-.69,2l.33.65a1.51,1.51,0,0,0,2,.69l8.47-4.18c-.15.88.33,1.71,1.77,2.36a2.94,2.94,0,0,0,.9.22l3.32,6.75a15.07,15.07,0,0,1,.77,4.67L37,461.63a1.52,1.52,0,0,0-.69,2l.32.65a1.52,1.52,0,0,0,.87.76,1.52,1.52,0,0,0,1.16-.07l1.89-.93c1.18,1.68,17.55-5.29,17.76-8.48-.08.19-.4.23-.88.16l.86-.43a.84.84,0,0,1,0,.26.39.39,0,0,0,0-.27l3.25-1.6a1.51,1.51,0,0,0,.69-2Z"/><path d="M31.11,417.06a3.15,3.15,0,0,0,.46.94c1.19,1.67,4.32,1,5.69-.21l7.46.89h.18a1.52,1.52,0,0,0,1.44-2l-.26-.79a1.52,1.52,0,0,0-1.26-1l-6.76-.82A23.27,23.27,0,0,0,36,409.79l-1.68-5.16a3.75,3.75,0,0,1,.16-.82c-.11-1.5-.57-2.3-1.27-2.58l-.08-.24,5.5-5.12a1.52,1.52,0,0,0,.4-1.58l-.26-.79a1.51,1.51,0,0,0-2.47-.63L15.7,412a1.51,1.51,0,0,0-.41,1.58l.23.69a1.5,1.5,0,0,0,1.26,1l2.86.34c-.09,1,.56,1.22,2.28.27Zm.7-7.35a3.87,3.87,0,0,1,.4.52l.41,1.27a3.88,3.88,0,0,1-.52,1.86l-5.82-.69C27.57,410.59,27.71,405.21,31.81,409.71Z"/><path d="M5.15,265.67h.17l1.73-.19c-.13.68.3.89,1.29.64a1.48,1.48,0,0,0-.17-.76l9.16-1c0,.07,0,.14.07.22.69,1.69,12.92,1.15,14.68-1.84h0a1.51,1.51,0,0,0,1.32-1.17l.16-.71a1.51,1.51,0,0,0-.68-1.62L19,250.53c-.77-1.14-.66-2.26-1.53-3.1l5.29-.62.09.15c1.71,2.75,9.88,1.28,12.31-1.6l.89-.1a1.51,1.51,0,0,0,1.3-1.16l.17-.71a1.52,1.52,0,0,0-.68-1.64l-23-14.12a1.52,1.52,0,0,0-2.28,1l-.17.75a1.52,1.52,0,0,0,.69,1.62l3.84,2.35a53.83,53.83,0,0,0,5.51,4.29c3,2.77,3.18,4.21,2.61,5.29L9,244.68a1.51,1.51,0,0,0-1.3,1.17l-.16.71a1.51,1.51,0,0,0,.68,1.62L15.86,253c1.63,1.33,3.09,2.41,3.4,2.71,2.21,2.12,3.13,3.44,3.31,4.28l-17.4,1.92A1.52,1.52,0,0,0,3.84,263l-.17.78A1.49,1.49,0,0,0,4,265.17,1.51,1.51,0,0,0,5.15,265.67Z"/><path d="M20.18,208.73l6.39,2.35c0,.23.26.26.55.2l4.46,1.65c1,1.5,6.2,3.26,7.51,2.77l5,1.85a1.48,1.48,0,0,0,.53.09,1.52,1.52,0,0,0,1.42-1l.25-.68a1.51,1.51,0,0,0-.9-1.94L21.49,205.2a1.51,1.51,0,0,0-2,.9l-.25.68A1.51,1.51,0,0,0,20.18,208.73Z"/><path d="M28.38,187.89l.62.31a1.5,1.5,0,0,0,1.16.08,1.52,1.52,0,0,0,.88-.77l1.41-2.87c2.52-.05,8.27.07,10.42-.18l12.58,6.16a1.52,1.52,0,0,0,1.16.07,1.51,1.51,0,0,0,.87-.77l.32-.66a1.52,1.52,0,0,0-.69-2l-17.23-8.45a5.62,5.62,0,0,1-1.43-3.27c2.71,0,1-1.2-.53-2l1.79-3.64a1.52,1.52,0,0,0,.07-1.16,1.49,1.49,0,0,0-.77-.87l-.62-.3a1.52,1.52,0,0,0-2,.69L27.7,185.86A1.52,1.52,0,0,0,28.38,187.89Z"/><path d="M47.75,151.16l2.88,1.92c-.83,3.1,9,7.63,11.36,9,3.91,2.21,5.6,3.35,6,2.61l1,.64a1.52,1.52,0,0,0,2.1-.42l.4-.6a1.52,1.52,0,0,0-.42-2.1l-4.15-2.77c-1-1.91-2.61-2.24-1.91-5.77.25-1.28,3.08-5.75,4.25-6.34,1.82-.92,6.24.64,8.27.52l2.16,1.44a1.52,1.52,0,0,0,2.1-.42l.4-.6a1.52,1.52,0,0,0-.42-2.1L60.54,132a1.52,1.52,0,0,0-2.1.42l-.4.6a1.52,1.52,0,0,0,.42,2.1l3.37,2.25c.67,1.46,3.54,3.5,4.31,5.49l-7.27,10.89-.36.07L49.84,148a1.64,1.64,0,0,0-1.14-.23,1.5,1.5,0,0,0-1,.65l-.4.6a1.52,1.52,0,0,0,.42,2.1Z"/><path d="M94.55,96.67A1.81,1.81,0,0,0,95.84,98l7.75,8.14c.68,2.34,3.69,6.08,6,6.31l.35.36a1.5,1.5,0,0,0,1.06.47h0a1.51,1.51,0,0,0,1-.42l.53-.5a1.51,1.51,0,0,0,0-2.14l-1.9-2a9.69,9.69,0,0,0-2.48-3.8l4-3.84a17.45,17.45,0,0,0,1.91-2.13c.48-.15.64-.37.47-.65,2.83-4.21,2.59-8.73-.84-12.33-4.22-4.43-10-4.13-15.18.77l-6.26,6a1.52,1.52,0,0,0-.47,1.07,1.5,1.5,0,0,0,.42,1.08Zm15.25,1.19-4.68,4.45-5.89-6.2c2.05-2.68,5.22-6.94,8-7.42.34-.06,2.82.48,4.89.64C113.75,92,113,94.83,109.8,97.86Z"/><path d="M130.39,74.91c1.31,2.23,3,6.07,5.14,7.27l.23.13,3.32,4.58a1.53,1.53,0,0,0,1,.61l.24,0a1.52,1.52,0,0,0,.9-.29l.59-.43a1.52,1.52,0,0,0,.33-2.12l-2.57-3.55a5.12,5.12,0,0,1,.85-.76c1.27-.92,8.21-4,8.67-4.47a3.78,3.78,0,0,1,.76-.63l1,.34c.19.44.24.9.63.21l3,1a1.54,1.54,0,0,0,1.36-.21l.74-.53a1.51,1.51,0,0,0-.42-2.67l-5.83-1.91c-.61-1.53-1.28-3.34-1.81-4.81a9.45,9.45,0,0,0-2-6.36c-3.59-4.93-9.4-5.4-15.14-1.22l-7,5.07a1.51,1.51,0,0,0-.34,2.12Zm4.56-.13-4-5.49a8.83,8.83,0,0,1,.2-2c1.34-6.27,12-7.09,13.65-.75a4.79,4.79,0,0,1-.11.68c-.41,1.65-1.68,3.27-3.78,4.79l-4.33,3.14A7.9,7.9,0,0,1,134.95,74.78Z"/><path d="M168.74,67.43a1.57,1.57,0,0,0,.74.19,1.49,1.49,0,0,0,.72-.18l.74-.4a1.53,1.53,0,0,0,.79-1.42l-.06-1.06c1.15-1.93,3.74-6.65,4.49-7.23,3.89-3.06,8.65-2.74,11.14-2.71l2.07,1.55a1.51,1.51,0,0,0,1.64.12l.74-.4a1.52,1.52,0,0,0,.19-2.55l-22.51-16.9a1.53,1.53,0,0,0-1.63-.12l-.64.34a1.53,1.53,0,0,0-.8,1.43L168,66.19A1.53,1.53,0,0,0,168.74,67.43ZM173,45.69c2.63,2.88,3.51,4.46,3.4,5.45L171.07,54l-.56-9.63A12.15,12.15,0,0,1,173,45.69Z"/><path d="M199.74,32.07c2.66,2.9,6.45,6.91,9.31,8.9l2,5.14a1.51,1.51,0,0,0,1.42,1A1.45,1.45,0,0,0,213,47l.68-.26a1.52,1.52,0,0,0,.88-2l-1.5-3.9a3.79,3.79,0,0,0,.05-.41c.09-3-.36-4.3-1.2-5l3.27-17.38a1.52,1.52,0,0,0-2-1.7l-.78.3a1.53,1.53,0,0,0-.95,1.14l-3,16.13-13-10a1.54,1.54,0,0,0-1.46-.21l-.78.3a1.52,1.52,0,0,0-.37,2.63Z"/><path d="M238.75,36.68a1.53,1.53,0,0,0,.69.94,1.57,1.57,0,0,0,.79.22,1.51,1.51,0,0,0,.36,0l1.14-.28c.68,2.07,2,3,3.63-.89l11.72-2.89A1.52,1.52,0,0,0,258,33a1.5,1.5,0,0,0,.17-1.15l-.17-.67a1.51,1.51,0,0,0-1.83-1.11l-12.43,3.06c-1.14-1.74-1.86-1.75-2.24-1l-1-4.08c2.15-.78,2.3-2.13,1.68-3.73L251.95,22a1.52,1.52,0,0,0,.94-.69,1.5,1.5,0,0,0,.17-1.15l-.17-.67a1.51,1.51,0,0,0-1.83-1.11L240.35,21c-1.27-2.06-2.48-4.15-1.68-5.74,1.16-2.3,8.19-2,7.62-4.45l4.33-1.07a1.53,1.53,0,0,0,1.11-1.84l-.17-.68a1.52,1.52,0,0,0-1.84-1.11l-16,3.93a1.53,1.53,0,0,0-1.11,1.84Zm-.62-23.84c-.38.39-.74.78-1.07,1.17l-.21-.85Z"/><path d="M275.84,28.89a1.53,1.53,0,0,0,1.51,1.36h.16l.72-.08a1.53,1.53,0,0,0,1.35-1.67l-.33-3.1a4,4,0,0,1,2.19-2c2.38-.86,8.18,1.4,11.35,2.83l1.44,1.6a1.55,1.55,0,0,0,1.29.49l.9-.1a1.51,1.51,0,0,0,1-2.52l-2.48-2.76a43,43,0,0,0-1.18-6.37,9.3,9.3,0,0,0,1.86-7,9.2,9.2,0,0,0-4-7A12.84,12.84,0,0,0,283,.94l-8.59.92a1.53,1.53,0,0,0-1.35,1.67Zm9-12-5,.54c-.9-1-1.18-2.56-1.31-5,.4-4.91,1.55-5.76,6.22-5.84,1.92,0,5,2.33,7.08,3.61C292.17,14.11,289.82,16.37,284.84,16.91Z"/><path d="M382.84,35l.81.23a1.53,1.53,0,0,0,1.56-.47l3-3.5c.79,2.11,5.51,1.45,8.65-.27l1.63.46c1.42,1.45,3.43,3.79,5.31,4.93l.61,3.81a1.52,1.52,0,0,0,1.08,1.22l.81.23a1.47,1.47,0,0,0,.42.06,1.52,1.52,0,0,0,1.5-1.76l-.91-5.7c0-2.54-.38-6.39-.93-6.74l-.17-.09-2.44-15.2A1.53,1.53,0,0,0,402.68,11l-.7-.2a1.55,1.55,0,0,0-1.56.47L382.1,32.58a1.52,1.52,0,0,0,.74,2.45Zm16.72-13a5,5,0,0,0,1.93-.14l.86,5.41a10.47,10.47,0,0,0-1.57.92L396.21,27a5.21,5.21,0,0,0-2.15-2.46l2.48-2.89C397,22.16,397.93,22.39,399.56,22.07Z"/><path d="M423.67,48.05l2.68,1.19a4,4,0,0,0,3,1.32l3.15,1.4a16.81,16.81,0,0,0,6.81,1.52,13.68,13.68,0,0,0,4.74-.83.72.72,0,0,0,.11.24c2.23,2.9,7.65-5.55,7.88-6.6a2,2,0,0,0-.53-.43c.15-.29.29-.58.42-.88a14,14,0,0,0,.33-11A15.35,15.35,0,0,0,444,25.9L435.21,22a1.52,1.52,0,0,0-2,.77L422.89,46A1.52,1.52,0,0,0,423.67,48.05Zm25.11-12.7a10.15,10.15,0,0,1-.3,8.1c-2.55,5.76-8.4,7.8-14.55,5.07l-4.86-2.16A5.6,5.6,0,0,0,427.48,45l2.66-6c.22.08.53,0,.93-.33,2.13-1.72,1.47-5,3.19-6.82a31.25,31.25,0,0,1,5.42-3.14,3.31,3.31,0,0,1,.19-.55l2.57,1.14A11.55,11.55,0,0,1,448.77,35.35Z"/><path d="M462.52,67.27,466.88,70a17.92,17.92,0,0,0,1.37,1.52c.79.79,7,5.49,8.28,4.49l.41.25a1.47,1.47,0,0,0,.8.23,1.53,1.53,0,0,0,1.29-.71l.37-.59a1.52,1.52,0,0,0-.49-2.09l-9.55-5.95c-2.28-3.14-2.53-5.93,4.85-6,1.36,0,5.26,3.52,7,3l.5.31a1.51,1.51,0,0,0,2.09-.48l.37-.59a1.52,1.52,0,0,0-.49-2.09l-7.8-4.86a3.4,3.4,0,0,1-.46-1.07c-.78-7.86,7.65-3.58,11.72-1.92l2.42,1.5a1.53,1.53,0,0,0,1.15.19,1.51,1.51,0,0,0,.94-.68l.36-.59a1.51,1.51,0,0,0-.49-2.08l-14-8.69a1.5,1.5,0,0,0-2.09.49L462,65.18a1.51,1.51,0,0,0,.49,2.09Z"/><path d="M514.1,106a15.53,15.53,0,0,0,3.78,3.67l1.32,1.28c3.15,3.05,5.82,4.08,8,4.08a6.74,6.74,0,0,0,2.59-.52c4.19-1.37,9-7.94,10.65-11.41a8.46,8.46,0,0,0,.44-1.13c2.72-3.48,1.89-7.89-2.32-12l-7.24-7a1.52,1.52,0,0,0-2.15,0L511.4,101.28a1.52,1.52,0,0,0,0,2.15Zm18.22-14.79c3,.48,6.34,4.67,5.9,8a4.69,4.69,0,0,1-.69.91,3.5,3.5,0,0,1-3.15,1.22,8.19,8.19,0,0,1-4.23-2.49l-3.78-3.67C528.21,93.1,530.2,90.88,532.32,91.22Zm-11.56,6.44c.93,1.08,1.92.9,3,.13l4.36,4.23a14.58,14.58,0,0,1,2.09,2.47l-.18.16c-1.21,1.53.29,2.71.88,4a4.81,4.81,0,0,1-1,1.33c-1.44,1.49-3.66,2.66-8-1.56l-2.76-2.68c-1.1-1.92-2.06-3.54-3.09-3.8l4.46-4.59A3.18,3.18,0,0,0,520.76,97.66Zm9.57-10.46.2.19-.55.17Z"/><path d="M542.77,137.21l.45.57a1.52,1.52,0,0,0,2.13.25L548,136a5.55,5.55,0,0,0-.41,1.63c2.44-.21,8-2.92,9.82-5.33l5-.59c.69,1.07,2.78,3.28,2.85-.21,0,0,0-.08,0-.12l5.81-.69a1.52,1.52,0,0,0,1-2.44l-.52-.66a1.56,1.56,0,0,0-1.37-.57L557,128.54c-.63-2.62-1.27-5.92-.55-5.6a1.4,1.4,0,0,0-.36-.11l1.58-4.35a2.19,2.19,0,0,0,.28-.23l-.15-.14,1.68-4.63a1.52,1.52,0,0,0-.24-1.46l-.52-.65a1.55,1.55,0,0,0-1.43-.55,1.53,1.53,0,0,0-1.18,1L549.47,130,543,135.08A1.52,1.52,0,0,0,542.77,137.21Z"/><path d="M571.87,180.1a1.52,1.52,0,0,0,.07,1.16l.32.65a1.51,1.51,0,0,0,2,.69l2.14-1c.89,1.49,6.37-1.12,8.37-.26a13.59,13.59,0,0,1,1.59.81l3.58,7.31a14,14,0,0,1-1.08,3.35l-7.75,3.8a1.53,1.53,0,0,0-.69,2l.32.65a1.53,1.53,0,0,0,1.36.85,1.51,1.51,0,0,0,.67-.15l2.92-1.43c-.3.62-.41,1.06-.17,1.23,1.15.84,18.73-5,16.83-9.4l3.31-1.62a1.53,1.53,0,0,0,.69-2l-.32-.65a1.52,1.52,0,0,0-2-.69l-8.66,4.24a9.08,9.08,0,0,1-2.22-2.18l-2.23-4.56c-1.29-4.6.24-4.61,2.11-9a1.56,1.56,0,0,0-.41-.21l4.59-2.24a1.53,1.53,0,0,0,.69-2l-.32-.65a1.52,1.52,0,0,0-2-.69l-22.89,11.22A1.52,1.52,0,0,0,571.87,180.1Z"/><path d="M588.13,214.95a1.52,1.52,0,0,0-.28,1.43l.25.79a1.53,1.53,0,0,0,1.26,1l5.87.72a3,3,0,0,0-.16,1.27,23,23,0,0,0,3.14,3.23l2.37,7.33a12.91,12.91,0,0,0-.88,2.57l-4.19,3.88a1.53,1.53,0,0,0-.41,1.59l.26.79a1.52,1.52,0,0,0,1.06,1,1.65,1.65,0,0,0,.38,0,1.53,1.53,0,0,0,1-.4l2.36-2.19a2.48,2.48,0,0,0,1.53.86c1,.17,15.4-13.39,15.33-15.76a3.74,3.74,0,0,0-.09-.65l1.48-1.37a1.53,1.53,0,0,0,.41-1.59l-.23-.69a1.51,1.51,0,0,0-1.26-1l-27.9-3.42A1.56,1.56,0,0,0,588.13,214.95Zm20.77,9.87-3.64,3.37c-.49,0-1-.07-1.64-.14l-1.25-3.87c1.27-1.23,3-2.91,3.06-3.12a2.76,2.76,0,0,0-.51-.94l3,.36a2.31,2.31,0,0,0-.4.37C606.91,221.55,608.18,223.24,608.9,224.82Z"/><path d="M599.91,256.44a1.5,1.5,0,0,0-.26,1.13l.12.72a1.47,1.47,0,0,0,1.76,1.23l16.14-2.78a6.25,6.25,0,0,0-1.75,5l-12.59,13.75a1.53,1.53,0,0,0-.37,1.29l.11.61a1.52,1.52,0,0,0,1.49,1.26l.26,0,2-.35a3.87,3.87,0,0,0,2.33,1c2.87,0,6.53-.38,7.84-2.79l3.64-.63c.18.35.59.54,1-.17l8.36-1.44a1.49,1.49,0,0,0,1-.62,1.5,1.5,0,0,0,.26-1.13l-.12-.72a1.47,1.47,0,0,0-1.76-1.23l-13.81,2.38c-.61-1.35-1-2.68-.43-2.34a3,3,0,0,0-1.84-.37l5.15-5.63c.13.05.25.12.39.17,1.72.55,8.5-5.15,7-8.28l1.69-1.84a1.53,1.53,0,0,0,.37-1.29l-.11-.61a1.48,1.48,0,0,0-1.75-1.23l-25.16,4.35A1.49,1.49,0,0,0,599.91,256.44Z"/><path d="M628.42,367.67l-26.79,2.8a1.52,1.52,0,0,0-1.32,1.17l-.17.71a1.52,1.52,0,0,0,.67,1.63l2.79,1.76a3.89,3.89,0,0,0,.09.8c.58,2.67,6.88,3.53,8.6,5.8a16.26,16.26,0,0,1,1.5,3.72l-16.17,1.8A1.51,1.51,0,0,0,596.3,389l-.16.71a1.51,1.51,0,0,0,.68,1.62l2.07,1.29c0,.1,0,.18,0,.28-.16,2.29,10.55,7.71,16.76,10.11l4.08,2.54a1.5,1.5,0,0,0,.8.23,1.42,1.42,0,0,0,.58-.12,1.49,1.49,0,0,0,.9-1.06l.17-.75a1.52,1.52,0,0,0-.68-1.63l-10.81-6.7a13.14,13.14,0,0,0-2.63-3.73,11.5,11.5,0,0,0-1.8-1.17l11.44-1.28c2.74,1,6,1.34,6.55-.73l.4,0a1.51,1.51,0,0,0,1.32-1.17l.16-.71a1.53,1.53,0,0,0-.67-1.62L612.65,377a4.34,4.34,0,0,1,.43-2.47,2,2,0,0,0-.56-1.43l9.6-1c-.24.55-.16,1,.45.86.9-.14,3.52,2.2,3.87-1.22v-.09l2.13-.22a1.53,1.53,0,0,0,1.32-1.17l.18-.78a1.54,1.54,0,0,0-.34-1.35A1.53,1.53,0,0,0,628.42,367.67Z"/><path d="M613.49,424.38l-23.92-8.89a1.52,1.52,0,0,0-2,.89l-.25.68a1.52,1.52,0,0,0,.9,2l5.59,2.08c.8,2.43,8.88,5.26,11.7,4.34l6.64,2.47a1.52,1.52,0,0,0,2-.9l.25-.68A1.52,1.52,0,0,0,613.49,424.38Z"/><path d="M605.2,445.3l-.62-.3a1.53,1.53,0,0,0-2,.69L599,452.83l-20.91-10.31a1.55,1.55,0,0,0-1.16-.07,1.53,1.53,0,0,0-.87.77l-.32.66a1.52,1.52,0,0,0,.69,2l3.94,1.94c1.49,2.69,10.88,5.84,12.19,7,1.47,1.3,2.37,1.64,3.56,3a1.39,1.39,0,0,1,.21.35l-2.52,5.11a1.52,1.52,0,0,0,.69,2l.62.31a1.51,1.51,0,0,0,.68.16,1.37,1.37,0,0,0,.49-.08,1.49,1.49,0,0,0,.88-.76l.65-1.31c2.85-.44,6.95-10.17,6.95-12.88a2.52,2.52,0,0,0-.43-.35l1.53-3.11a1.52,1.52,0,0,0,.07-1.16A1.49,1.49,0,0,0,605.2,445.3Z"/><path d="M585.76,482l-21.21-14.2a1.58,1.58,0,0,0-1.14-.23,1.5,1.5,0,0,0-1,.65l-.4.6a1.52,1.52,0,0,0,.42,2.1l4.08,2.73a2,2,0,0,0-.52.83c-.43,1.27,2.42,3.13,3.47,5.88l-5.59,8.34a13,13,0,0,1-2.82,0l-7.28-4.88a1.52,1.52,0,0,0-2.1.42l-.41.6a1.52,1.52,0,0,0,.42,2.11l4.34,2.91C558,493,569,499.38,570.21,499.5l.22,0,2.49,1.67a1.52,1.52,0,0,0,2.1-.42l.41-.6a1.52,1.52,0,0,0-.42-2.11l-5.53-3.71c-.18-3.77-.29-9,4.48-11.17,2.79-1.26,5.72,2,8.38,1.06l1.33.89a1.51,1.51,0,0,0,2.1-.41l.41-.6a1.52,1.52,0,0,0-.42-2.11Z"/><path d="M523.52,520a1.52,1.52,0,0,0-2.15-.06l-.53.5a1.53,1.53,0,0,0-.47,1.06,1.51,1.51,0,0,0,.42,1.08l2.79,2.94a35.68,35.68,0,0,0,.66,3.75l-3.1,2.95c-5.16,4.9-5.75,10.7-1.54,15.12.2.21.4.4.61.59.65,1.24,1.48,2,2.45,1.68a8.54,8.54,0,0,0,3.72.86,10.49,10.49,0,0,0,5.12-1.45c.08.21.42.35.81-.17a1.73,1.73,0,0,0-.32-.12,16.85,16.85,0,0,0,2.79-2.16l2.19-2.08c1.68,1.24,3.68,0,3.34-3.17l.74-.7a1.52,1.52,0,0,0,.06-2.15ZM532.16,544c-3.42,3.25-6.49,3.72-9.15,1.47-.28-5.6,0-15,6.6-11.66.71.22,1.13,0,1.33-.47l5,5.25a6,6,0,0,0-.86,2.46c0,.05,0,.1,0,.15Z"/><path d="M494.21,546a1.53,1.53,0,0,0-1-.61,1.6,1.6,0,0,0-1.13.27l-.59.43a1.52,1.52,0,0,0-.34,2.12l4.23,5.86-5.19,3.74a21.77,21.77,0,0,0-1.79,1.45L478.77,556a1.48,1.48,0,0,0-1.37.21l-.74.53a1.52,1.52,0,0,0,.41,2.67l5.31,1.76-.07.43c.08-.48,1.2,2.07,2.38,4.88a9.55,9.55,0,0,0,1.94,6.06A10.67,10.67,0,0,0,489,575c1.29,1.44,1.86,1.61,2.14,1.13a8.71,8.71,0,0,0,3,.53,11.44,11.44,0,0,0,4.7-1.09.38.38,0,0,0,0,.16c1.17,2.14,7.49-2.9,9.32-6.51l.56-.41a1.53,1.53,0,0,0,.34-2.12Zm-.4,27a4.78,4.78,0,0,1-2.06-.65c0-3.39-3.26-12.1,4.73-11.8a10.91,10.91,0,0,1,3.83.37l2.67,3.7a13.22,13.22,0,0,1-1.28,4.74l-2.15,1.55C497.43,572.39,495.48,573.1,493.81,573Z"/><path d="M428.63,597a19.88,19.88,0,0,0-3.57-2.81l-2.89-7.58a1.51,1.51,0,0,0-2-.88l-.68.26a1.51,1.51,0,0,0-.88,2l2.93,7.69-3.62,19a1.51,1.51,0,0,0,1.49,1.8,1.59,1.59,0,0,0,.55-.1l.78-.3a1.51,1.51,0,0,0,.94-1.13l2.47-12.95c1.58.77,3.85.8,6.54,2,1.67.75,4.08,4.32,6,3.94l1.11.85a1.49,1.49,0,0,0,1.46.21l.78-.3a1.52,1.52,0,0,0,.39-2.62Z"/><path d="M395.55,600.2a.65.65,0,0,0-.15-.6l-.9-3.69a1.51,1.51,0,0,0-1.84-1.11l-16.49,4a1.51,1.51,0,0,0-.94.69,1.53,1.53,0,0,0-.18,1.15l.17.68a1.52,1.52,0,0,0,1.84,1.11l2.77-.68a2.67,2.67,0,0,0,1.24.84,40,40,0,0,0,11.07-.47l1.33,5.45-12.18,3a1.52,1.52,0,0,0-1.12,1.83l.16.68a1.52,1.52,0,0,0,.68.94,1.54,1.54,0,0,0,1.16.18l3.8-.93c1.43.91,6.4,1.17,9.2,1.33l1.18,4.87-13.78,3.35a1.51,1.51,0,0,0-.94.69,1.53,1.53,0,0,0-.18,1.15l.17.68a1.53,1.53,0,0,0,1.84,1.11l11.7-2.85a1.09,1.09,0,0,0,.73.53,3.1,3.1,0,0,0,2.33-1.27l1.2-.29a1.53,1.53,0,0,0,1.11-1.84Z"/><path d="M252.28,532.23c-.31-3.26-.69-10.1-1.62-11.14a2.21,2.21,0,0,0-.53-.43l2.34-6.91a1.53,1.53,0,0,0-1-1.93l-.69-.23a1.53,1.53,0,0,0-1.92,1l-2.64,7.79-14.89,12.33a1.51,1.51,0,0,0,.49,2.61l.79.27a1.51,1.51,0,0,0,1.45-.27l1.14-.95c-.07.62.1,1,.63,1,1-.2,6.73-3.74,5-5.36l-.17-.13,3.75-3.1a18.2,18.2,0,0,0,4.06,5.88l1.89,8.21a1.51,1.51,0,0,0,1,1.1l.79.27a1.48,1.48,0,0,0,.48.08,1.51,1.51,0,0,0,1.48-1.86Z"/><path d="M180.75,471.66a1.53,1.53,0,0,0-.47-1.06l-.53-.5a1.53,1.53,0,0,0-2.15,0l-5,5.22L168,470.94c-.26-.24-.5-.47-.75-.68-.1-.62-.25-1.39-.47-2.37a1.67,1.67,0,0,0-.16-1.08l1-7.43a1.52,1.52,0,0,0-.45-1.3l-.66-.63a1.52,1.52,0,0,0-2.56.88l-1.23,8.84-.49.25a9.07,9.07,0,0,0-9.45,2.68c-4,4.16-3.69,9.56.66,14.28,1.77,3.16,4.61,6.2,7.48,7.09a1.47,1.47,0,0,0,.29.09,5,5,0,0,0,2.12.11c2.36-.4,14.47-12.35,14.13-14.15a5.91,5.91,0,0,0-.42-1.4l3.24-3.39A1.53,1.53,0,0,0,180.75,471.66ZM170,478l-8.21,8.57a3.42,3.42,0,0,1-.7,0l-4.29-4.11a13.38,13.38,0,0,1-2-2.36c-1.21-4,3.43-5.39,7-6.79a9.09,9.09,0,0,1,2.57-.61c.32.26.64.54,1,.85Z"/><path d="M92.15,384.55a1.51,1.51,0,0,0,1.46,1.13,1.48,1.48,0,0,0,.39-.05l1-.28a8.6,8.6,0,0,0,2.66.33c2.31,0,16.08-2.23,16.58-5.09a2.91,2.91,0,0,0,0-.42l4.34-1.17a1.51,1.51,0,0,0,1.07-1.86l-.19-.7a1.52,1.52,0,0,0-1.86-1.07L111.74,377a9.77,9.77,0,0,0-1.24-.44L109,371.08a12.85,12.85,0,0,0-4.63-7.39,9.23,9.23,0,0,0-7.92-1.19c-5.9,1.58-8.41,6.84-6.57,13.71ZM105.41,372l1.29,4.81c-.25.47-.64,1.15-1,1.82l-8.53,2.29a3.62,3.62,0,0,0-1.85,0L95,381l-1.56-5.8a10.93,10.93,0,0,1-.39-4.66,60.84,60.84,0,0,0,10-3.13A10.17,10.17,0,0,1,105.41,372Z"/><path d="M83.64,343.34a1.5,1.5,0,0,0,.56,1,1.48,1.48,0,0,0,.94.33h.17l1.91-.22A11.52,11.52,0,0,0,88.6,346a6.2,6.2,0,0,0,1.3-1.82l10.5-1.21a4.37,4.37,0,0,0,1.37,1.21,5.62,5.62,0,0,0,1.94-1.59l7-.8a1.51,1.51,0,0,0,1.33-1.68l-.08-.72a1.51,1.51,0,0,0-1.68-1.33l-25.35,2.92a1.51,1.51,0,0,0-1.33,1.68Z"/><path d="M88.21,302.74a1.49,1.49,0,0,0-.6-1l-.57-.42a1.53,1.53,0,0,0-2.07.27,14.09,14.09,0,0,0-2.86,8.24c-.19,7.41,4,10.15,7.67,10.25.28,0,.54,0,.8,0,3.12.66,6.67-.25,6.8-6.1.37-1.07.67-2.17.95-3.21a25.64,25.64,0,0,1,1.33-4,33.38,33.38,0,0,0,6.87,0,10.29,10.29,0,0,1,.58,4,9.83,9.83,0,0,1-3,7.17,1.52,1.52,0,0,0-.19,2.19l.46.52a1.52,1.52,0,0,0,1.14.51,1.49,1.49,0,0,0,.93-.31,10.07,10.07,0,0,0,2.55-3,1.09,1.09,0,0,0,.32-.64,15.35,15.35,0,0,0,1.55-6.33,11.64,11.64,0,0,0-2.07-7.64,7.15,7.15,0,0,0-5.56-2.78H103c-5.67,0-7.07,5.12-8.2,9.26-.76,2.8-1.44,4.67-2.45,5.69-1.06.29-2.15.58-3.11.83-2.24-.44-3.46-2.68-3.37-6.32a10.59,10.59,0,0,1,2.08-6A1.5,1.5,0,0,0,88.21,302.74Zm13.61,1.68.07,0Zm.29-.09.13,0Z"/><path d="M85.43,284.6l.68.13.28,0a1.47,1.47,0,0,0,.85-.27,1.5,1.5,0,0,0,.64-1l1.1-5.94c.87.77,1.92,0,2.47-1.5l15.33,2.85a1,1,0,0,0,.3.06l5.17,1a1.6,1.6,0,0,0,1.14-.24,1.52,1.52,0,0,0,.63-1l.13-.72a1.52,1.52,0,0,0-1.22-1.77L91.72,272.3c0-.27-.1-.54-.18-.81a9.24,9.24,0,0,0-1-2.42l.92-4.92a1.54,1.54,0,0,0-.24-1.14,1.52,1.52,0,0,0-1-.63l-.68-.12a1.5,1.5,0,0,0-1.77,1.22l-3.6,19.36A1.52,1.52,0,0,0,85.43,284.6Z"/><path d="M114.74,196.13l-.29.55a1.52,1.52,0,0,0,.06,1.52l2.83,4.44c-.11,2.12,2.43,4.57,4.43,6.94l2.18,3.42a3,3,0,0,1,.14,1.18,3.61,3.61,0,0,1-1,2.18l-18.45.64a1.52,1.52,0,0,0-1.29.81l-.29.55a1.51,1.51,0,0,0-.11,1.16,1.54,1.54,0,0,0,.75.9l4,2.11c.87,1.09,3,2.61,6.8,4.81,2,1.14,7.68,5,10.06,4.05l1.7.89a1.55,1.55,0,0,0,.71.17,1.46,1.46,0,0,0,.45-.07,1.52,1.52,0,0,0,.9-.74l.34-.65A1.53,1.53,0,0,0,128,229l-9.25-4.87a2.36,2.36,0,0,1-.22-1.28c1.44,0,8.59-1,9.62-2.41l.35-.5,1.07,0a1.53,1.53,0,0,0,1.28-.8l.21-.39a1.52,1.52,0,0,0-.05-1.54l-3.7-5.81-1-2.56q.6-1.7,2.4-1c0,.39,1,0,1.76-.82l7.12,3.74a1.53,1.53,0,0,0,2.05-.64l.34-.65a1.53,1.53,0,0,0-.64-2.05l-22.57-11.87A1.52,1.52,0,0,0,114.74,196.13Z"/><path d="M157,163.59a14.11,14.11,0,0,0-10.58-3.36,15.26,15.26,0,0,0-13.33,16,14.23,14.23,0,0,0,5.21,9.79,15.16,15.16,0,0,0,3.24,2.08.9.9,0,0,0,.69.29,13.88,13.88,0,0,0,5.28,1.07,13.15,13.15,0,0,0,1.36-.07,14,14,0,0,0,4.9-1.44c.16.54.41.93.74.17a2.7,2.7,0,0,0,0-.59,15.55,15.55,0,0,0,4.14-3.5c.27-.33.52-.67.77-1q.5,0,.59-.9a14.36,14.36,0,0,0,2.15-8.85c.85-1.24.29-2.74-1.09-4.23A14.69,14.69,0,0,0,157,163.59Zm-1.17,18a10.51,10.51,0,0,1-15.12,1.49A10.39,10.39,0,0,1,137.63,171a1.14,1.14,0,0,0,.31-.29l-.15-.06a11.67,11.67,0,0,1,4.29-5,4.82,4.82,0,0,0,0,.5,6,6,0,0,0,5.93-.53c-.08-.62,5.42,2,9.4,4.54A10.59,10.59,0,0,1,155.81,181.63Z"/><path d="M166.06,145.21c1.36,3.76,6.19,9.27,9.71,12.17l2.72,3.4a1.5,1.5,0,0,0,1,.56h.17a1.53,1.53,0,0,0,.95-.33l.57-.46a1.52,1.52,0,0,0,.24-2.13l-6.62-8.3a11.78,11.78,0,0,1-.84-3.34c1.3-.75,1.87-1.45,1.94-2.1l9.51,2.31c1.07,1.37,2.85,2,6.59,2.57a3.66,3.66,0,0,0,1.64-.57l.82.2a1.53,1.53,0,0,0,1.31-.29l.48-.39a1.52,1.52,0,0,0,.24-2.13l-15.88-19.9a1.53,1.53,0,0,0-2.13-.24l-.57.45a1.53,1.53,0,0,0-.24,2.14l2.77,3.47c-.1,1.91,3.39,3.86,4.63,6-.12.75-.13,3-.23,4.68l-20.22-4.92a1.46,1.46,0,0,0-1.3.28l-.49.39a1.52,1.52,0,0,0-.56,1,1.5,1.5,0,0,0,.32,1.12Z"/><path d="M249.7,104.26c-4.68.33-7,.19-7.84-2.41-.62-1.94.28-3.7,2.43-5a.77.77,0,0,0,0,.58c.53,1.42,4.63-.94,4.81-1.92a1.1,1.1,0,0,0-.34-.11,10.17,10.17,0,0,1,4.16.43,1.52,1.52,0,0,0,1.93-1l.2-.68a1.51,1.51,0,0,0-.94-1.86,14.08,14.08,0,0,0-8.72,0A11.18,11.18,0,0,0,239,96.85a7.26,7.26,0,0,0-.72,6.12,6.62,6.62,0,0,0,4.53,4.66,10.76,10.76,0,0,0,3.3,1.94c2.4,1,9.71-.59,11.72,2-.07,2-1.85,3.62-5.09,4.66a9.87,9.87,0,0,1-7.78-.49,1.51,1.51,0,0,0-2.12.55l-.34.6a1.51,1.51,0,0,0,.49,2,11.32,11.32,0,0,0,6.17,1.62,15.78,15.78,0,0,0,4.75-.75l.42-.15c.08.38.47.66,1.41.71,2.32.12,3.93-2.8,4.79-5.21a7.24,7.24,0,0,0,.7-6C259.42,103.58,254,104,249.7,104.26Z"/><path d="M302.19,109.95a1.53,1.53,0,0,0,1,.38h.1l.72,0a1.51,1.51,0,0,0,1.41-1.61l-.06-.9c.42-.1.74-.56.77-1.71.05-1.94-.42-2.58-1-2.53l-.85-13.39a4.2,4.2,0,0,0,.27-1.77,4,4,0,0,0-.47-1.49l-.23-3.62a1.51,1.51,0,0,0-.51-1,1.35,1.35,0,0,0-1.1-.37l-.73,0a1.51,1.51,0,0,0-1.41,1.61l1.62,25.42A1.51,1.51,0,0,0,302.19,109.95Z"/><path d="M326,109.83l.72.07a1.47,1.47,0,0,0,1.65-1.38l.13-1.44c.48-.6.89-1.38.16-1.79L329.62,95c1.29.12,2.82-.19,4.09.91a21.87,21.87,0,0,1,3.59,4.1l6.92,10.86a1.52,1.52,0,0,0,1.15.7l.62.05h.13a1.52,1.52,0,0,0,1.51-1.38l.25-2.68c1-2.61,1.4-7.28,2.45-11a5.35,5.35,0,0,0-1.24-2.11l.88-9.59a1.52,1.52,0,0,0-1.36-1.65l-.72-.07a1.47,1.47,0,0,0-1.11.34,1.5,1.5,0,0,0-.55,1l-1.29,14a3.13,3.13,0,0,1-3.66.68L330.39,82.14a1.52,1.52,0,0,0-1.14-.7l-.62-.06a1.36,1.36,0,0,0-1.11.34,1.5,1.5,0,0,0-.55,1l-2.33,25.42a1.51,1.51,0,0,0,1.38,1.65Z"/><path d="M397.56,99.78a14.3,14.3,0,0,0-3.9,24.3c.84,1.15,1.75,2,2.43,1.66a16.1,16.1,0,0,0,1.62.79,15,15,0,0,0,5.77,1.2,12.18,12.18,0,0,0,4.65-.9,1.52,1.52,0,0,0,.86-1.88l-.21-.63a1.51,1.51,0,0,0-.79-.9,1.53,1.53,0,0,0-1.2,0,9.93,9.93,0,0,1-7.66-.29,11.48,11.48,0,0,1-3.72-2.47,20.41,20.41,0,0,1-1.71-5c-.08-1.58,2-6.94.29-8a10.54,10.54,0,0,1,3.26-3.41c0,.05,0,.1-.07.16q1.43,1.51,3.41.18c.11,0,6.54.54,9.31.36a9.17,9.17,0,0,1,3,3.74,1.53,1.53,0,0,0,.88.82,1.49,1.49,0,0,0,1.19-.07l.6-.3a1.52,1.52,0,0,0,.72-1.93,13.53,13.53,0,0,0-7.58-7.14A14.62,14.62,0,0,0,397.56,99.78Z"/><path d="M422.23,138.82,427,141.9c2.52,2.53,6.42,5.33,8.25,5.35l1.25.81a1.52,1.52,0,0,0,.82.24,1.53,1.53,0,0,0,1.27-.7L439,147a1.51,1.51,0,0,0-.45-2.09l-9.93-6.43c-3.58-8,7.24-4.11,11.34-3.23l1.58,1a1.51,1.51,0,0,0,2.09-.44l.38-.58a1.47,1.47,0,0,0,.21-1.14,1.51,1.51,0,0,0-.66-1l-7.69-5a3.69,3.69,0,0,1,.73-3.9c3.29-4.17,7.08,2.65,10.6,1.92a3.88,3.88,0,0,0,.82-.26l1.53,1a1.51,1.51,0,0,0,2.09-.44l.38-.58a1.47,1.47,0,0,0,.21-1.14,1.51,1.51,0,0,0-.66-1l-13.79-8.94a1.52,1.52,0,0,0-2.1.45l-13.87,21.4A1.52,1.52,0,0,0,422.23,138.82Z"/><path d="M465.84,173.44l.44.43a1.53,1.53,0,0,0,1,.42h0a1.5,1.5,0,0,0,1.06-.47l1.29-1.36c2-.33,4.88-3.06,7.5-5.68.46-.46,7.91-7.33,5.75-8.25l3-3.19a1.51,1.51,0,0,0,.42-1.08,1.53,1.53,0,0,0-.47-1.06l-.53-.5a1.52,1.52,0,0,0-2.15.06l-9.91,10.42a10.92,10.92,0,0,0-1.57.48,3.54,3.54,0,0,1-1.78.2l1.13-11.06c.75-.39,1.17-1.43,1.33-4.57a10.66,10.66,0,0,0-.65-2.14l.51-5a1.52,1.52,0,0,0-.47-1.26l-.45-.43a1.52,1.52,0,0,0-2.15.06l-17.57,18.48a1.52,1.52,0,0,0,.05,2.14l.53.5a1.24,1.24,0,0,0,1.08.42,1.52,1.52,0,0,0,1.07-.47l3.47-3.65c1.83,1.19,2.57-2.06,4.17-2.35.52-.09,3.83-.7,5.19-.93l-1.9,18.61A1.53,1.53,0,0,0,465.84,173.44Z"/><path d="M500.81,176.47a13.51,13.51,0,0,0,.57,2.51l-17.95,13.2a1.51,1.51,0,0,0-.6,1,1.53,1.53,0,0,0,.28,1.13l.43.59a1.52,1.52,0,0,0,2.12.32l1.88-1.38c2.25,1.48,8.84-4.73,11-6.1,2.55-1.6,4.64-1.86,6.79-2.87.68-.32,1.49.39,2.36,1l1.44,2a1.51,1.51,0,0,0,2.12.32l.56-.41a1.5,1.5,0,0,0,.6-1,1.52,1.52,0,0,0-.28-1.13L500.5,169.75a1.51,1.51,0,0,0-1-.6,1.55,1.55,0,0,0-1.13.28l-.56.42a1.51,1.51,0,0,0-.31,2.12Z"/><path d="M506.1,232a1.51,1.51,0,0,0,0,1.38l.4.81a1.67,1.67,0,0,0,1.36.84,1.52,1.52,0,0,0,1.35-.81l.87-1.67c1.29-.13,5.82-3.63,7-3.63,0,.38,10-.46,10.67-4.24a2.24,2.24,0,0,0,0-1.2,8.6,8.6,0,0,0,1.17-2.74,12.82,12.82,0,0,0-1.44-8.6l-3.86-7.73a1.53,1.53,0,0,0-.88-.76,1.55,1.55,0,0,0-1.16.08l-22.83,11.42a1.52,1.52,0,0,0-.68,2l.33.65a1.53,1.53,0,0,0,.88.76,1.5,1.5,0,0,0,1.16-.08l3.62-1.81c.3,1.8,3.5,1.25,4.95,3.46.87,1.33.88,3.21.7,5.13ZM522,223.55a6.62,6.62,0,0,1-3,.77,13.37,13.37,0,0,1-2.36-.63,9.46,9.46,0,0,1-3.55-4.16,8.36,8.36,0,0,1,0-2.1c.48-4.84,4.38-3.76,7.62-5.9.48-.32,1.1-.69,1.69-1.08l1.72,3.43C526.37,218.47,525.67,221.72,522,223.55Z"/><path d="M549.85,285.19a1.52,1.52,0,0,0-.56-1,1.47,1.47,0,0,0-1.11-.33l-25.36,2.73a1.53,1.53,0,0,0-1.35,1.67l1.7,15.82a1.52,1.52,0,0,0,1.51,1.36h.15l.69-.07a1.53,1.53,0,0,0,1.36-1.67l-1.08-10c.83-.63.19-1.83-.27-2.55l-.11-1,10-1.08c.29,2.09,1.79,4,3.71-.32l-.05-.07,9.46-1a1.53,1.53,0,0,0,1.35-1.67Z"/><path d="M548.55,346.57l-25.16-4.28a1.47,1.47,0,0,0-1.75,1.24l-.12.72a1.51,1.51,0,0,0,1.24,1.75l6.08,1,.34.47c-.93,1.59,3.11,4.11,2.75,5.6l0,.06-12.74,7.92a1.5,1.5,0,0,0-.69,1l-.17,1a1.51,1.51,0,0,0,.65,1.51,1.52,1.52,0,0,0,1.65,0l1.2-.75c2.07,2.87,10-5.35,12.68-5.17,1.79.12,4.29,3,6.42,4.91l3,4.06a1.52,1.52,0,0,0,1.23.62,1.44,1.44,0,0,0,.35,0,1.51,1.51,0,0,0,1.14-1.22l.17-1a1.5,1.5,0,0,0-.27-1.15l-8.73-12c-.11-1.87,1-3.18,1.6-4.14l8.55,1.45a1.48,1.48,0,0,0,1.75-1.23l.12-.72a1.51,1.51,0,0,0-1.24-1.75Z"/><path d="M539.37,387.61l-24-8.69a1.52,1.52,0,0,0-1.94.91l-5.79,16a1.52,1.52,0,0,0,.91,1.94l.65.24a1.48,1.48,0,0,0,1.16-.05,1.52,1.52,0,0,0,.79-.86l1-2.79c.38,0,.61-.25.68-.88l-.3-.17,1.21-3.34c1.85-.59,4-3.87,6.2-4.11a3.82,3.82,0,0,1,3.85,2.47l-3.55,9.8a1.53,1.53,0,0,0,.92,1.94l.65.23a1.52,1.52,0,0,0,1.94-.91l.33-.92c3-1.13,2.46-9.15,8.55-8.35-.26,0,1.05,1.13,2.66,2.31l-4.13,11.4a1.52,1.52,0,0,0,.91,1.94l.65.24a1.53,1.53,0,0,0,.52.09,1.5,1.5,0,0,0,.64-.14,1.52,1.52,0,0,0,.79-.86l.79-2.18c.23,0,.38-.15.12-.34l1.41-3.88c.25-.14.31-.32.19-.53l1.35-3.72c1.62.73,2.53.46.91-2.53l.82-2.27A1.52,1.52,0,0,0,539.37,387.61Z"/><path d="M511.3,430.4c0,.74.92,1,5,.6,2.8-.28,4.32-.94,4.91-1.82l1.3-.16a1.53,1.53,0,0,0,1.13-.74l.31-.53a1.52,1.52,0,0,0-.53-2.08l-21.92-13a1.51,1.51,0,0,0-1.15-.17,1.53,1.53,0,0,0-.93.69l-.37.63a1.52,1.52,0,0,0,.53,2.08l4.89,2.91c1.51,2.31,5.9,5.93,6.84,7.42a3.58,3.58,0,0,1,.2.36l-20.89,2.56a1.53,1.53,0,0,0-1.13.74l-.31.53a1.52,1.52,0,0,0,.53,2.08l4.5,2.68c.17.37.37.77.62,1.21,1.05,1.82,13.15,8.67,14.94,8.48a5.77,5.77,0,0,0,.57-.09l1.29.77a1.5,1.5,0,0,0,.78.21,1.62,1.62,0,0,0,.37,0,1.53,1.53,0,0,0,.93-.69l.37-.63a1.52,1.52,0,0,0-.53-2.08l-10.21-6.07c-.47-1.83-.21-3.59-.74-4.74Z"/><path d="M501,461.83a1.52,1.52,0,0,0-.52-1l-.52-.45a1.51,1.51,0,0,0-2.13.15l-4.46,5.13c-1-.4-2.34-1.05-3.64-1.63L475,451.21a1.52,1.52,0,0,0-2.14.15l-.48.55a1.52,1.52,0,0,0,.15,2.14l2.81,2.44c.31,1.65,3,4.21,4.88,4.24l4.06,3.53c.22.68,4.08,5.15,4.44,6.45,0,.07,0,.13,0,.19l-3.86,4.45a1.52,1.52,0,0,0,.15,2.15l.52.45a1.5,1.5,0,0,0,1,.37,1.51,1.51,0,0,0,1.14-.52l.44-.51a3.21,3.21,0,0,0,.27.42c1.75-.12,8.34-7.61,9.11-9.19,1.5-3.06,1.76-3.58,1.18-3.4l1.9-2.19A1.5,1.5,0,0,0,501,461.83Z"/><path d="M463.22,479c-4.92-6.07-11-7-16.59-2.41s-6,10.65-1.08,16.73l2.06,2.54c1.58,2.7,3.86,5.72,5.67,7l1.62,2A1.52,1.52,0,0,0,457,505l.57-.46a1.55,1.55,0,0,0,.56-1,1.52,1.52,0,0,0-.33-1.11l-9.33-11.51c-1.86-2.29-2.75-4.44-2.61-6.38a5.49,5.49,0,0,1,.24-1.28,1.42,1.42,0,0,0,.94-.19c0-.53-.19-.84-.45-.94a9.31,9.31,0,0,1,2.35-2.7c.3-.24.6-.46.9-.66-.08.25.27.67.83.08a1.1,1.1,0,0,0-.6-.23,6.59,6.59,0,0,1,4.52-1.16c1.82.26,3.64,1.47,5.41,3.55,1.62,2.81,4.74,7.08,6.56,8.07l3.05,3.77a1.52,1.52,0,0,0,1,.56,1.45,1.45,0,0,0,1.11-.34l.56-.46a1.51,1.51,0,0,0,.22-2.13Z"/><path d="M419.66,526.4a2.2,2.2,0,0,0,.86,1.13,2.12,2.12,0,0,0,2.29-1.76,16.31,16.31,0,0,0,2.73-1.15l.31-.18a.87.87,0,0,0,.62.65c1.48,0,6.39-3.22,4.43-5.17a14,14,0,0,0,.76-14.86,14.25,14.25,0,0,0-8.53-7.1A14.71,14.71,0,0,0,412,499.24a13.58,13.58,0,0,0-6.85,7.87,1.51,1.51,0,0,0,.9,1.86l.62.24a1.51,1.51,0,0,0,1.2,0,1.54,1.54,0,0,0,.53-.43,1.59,1.59,0,0,0,.78.1c-.33,0,9.24-6,7.4-7.38A10.72,10.72,0,0,1,429.18,515a10.92,10.92,0,0,1-5.4,6.34,9.86,9.86,0,0,1-7.58,1,1.48,1.48,0,0,0-1.18.16,1.54,1.54,0,0,0-.71,1l-.15.65a1.53,1.53,0,0,0,1,1.79,11.86,11.86,0,0,0,3.43.5C419,526.45,419.32,526.43,419.66,526.4Z"/><path d="M353,534.22c-1.08-2.14-2.41-4.4-3.79-5.46l-1-7.05a1.53,1.53,0,0,0-1.71-1.29l-.72.1a1.52,1.52,0,0,0-1,.59,1.5,1.5,0,0,0-.29,1.13l1.15,8.15-7.74,17.7a1.52,1.52,0,0,0,1.39,2.13h.21l.82-.11a1.53,1.53,0,0,0,1.19-.9l2.22-5.09c2.18-.56,3.42-3.86,5.41-4.86.48-.24,2.4.66,3.94.93l3.4,4.09a2.59,2.59,0,0,0,1.3,1.56l.78.94a1.49,1.49,0,0,0,1.38.53l.83-.12a1.51,1.51,0,0,0,1.2-1,1.53,1.53,0,0,0-.25-1.52Z"/><path d="M289.53,426.77a11.67,11.67,0,0,0-7.92.36,7.17,7.17,0,0,0-3.92,4.83c-1.2,4.83,2,7.37,5.39,9.27,2.77,2.1,6.12,3.9,6.57,6.6a14,14,0,0,1,.18,1.7c-1.07,1.71-3.45,2.27-6.67,1.47a10.54,10.54,0,0,1-5.41-3.34,1.53,1.53,0,0,0-1.06-.54,1.47,1.47,0,0,0-1.12.38L275,448a1.52,1.52,0,0,0-.18,2.08,13.23,13.23,0,0,0,4.3,3.4c1.12,3,13.22,3.87,14.7-2.69a5.9,5.9,0,0,0,.14-1.57c1.32-5.71-3.45-8.21-7.29-10.23-.82-.43-1.55-.83-2.19-1.2a11.24,11.24,0,0,1-2.45-3.39c2.7-1.72,9-.44,12.21-.57a6,6,0,0,1,.74,1.12,1.53,1.53,0,0,0,.91.78,1.47,1.47,0,0,0,1.19-.12l.61-.34a1.51,1.51,0,0,0,.64-2C297,430.31,293.52,427.76,289.53,426.77Z"/><path d="M262.23,416.14l-.64-.36a1.47,1.47,0,0,0-1.15-.13,1.51,1.51,0,0,0-.91.72l-12.39,22.31a1.52,1.52,0,0,0,.59,2.06l.64.36a1.53,1.53,0,0,0,.74.19,1.4,1.4,0,0,0,.42-.06,1.51,1.51,0,0,0,.91-.72l.84-1.51c3.23-1.17,10.22-15.14,10.7-17.2,0-.63-.39-.71-.93-.41l1.78-3.2A1.52,1.52,0,0,0,262.23,416.14Z"/><path d="M228,231.4a7.29,7.29,0,0,0-5.08-1.65,25.17,25.17,0,0,0-2.63-1.35,6.89,6.89,0,0,0-2.53-4c-3.74-3-8.61-1.84-12.4,2.89a11.59,11.59,0,0,0-2.82,6.76,7.17,7.17,0,0,0,2.79,5.91,8,8,0,0,0,.83.58,20.27,20.27,0,0,0,7.39,7,8.34,8.34,0,0,0,.88.82,7.74,7.74,0,0,0,4.88,1.8,7.61,7.61,0,0,0,1.36-.14c5.19.61,9.64-1.83,9.75-9.38C231.72,237.05,230.92,233.72,228,231.4Zm-20.51,4.75c-1.8-4.6,6.36-9.59,9.23-6.08a8.71,8.71,0,0,1-2,4.66,8,8,0,0,1-3.92,3,3.35,3.35,0,0,1-2.66-.4A4.94,4.94,0,0,1,207.52,236.16Zm8.71,6.47c-.67-5.63,8.79-8.86,11-4.53a10.43,10.43,0,0,1-2.3,4.79c-1.22,1.54-4.25,4.69-7.31,3.09A5.53,5.53,0,0,1,216.23,242.63Zm-3-16.11a3.27,3.27,0,0,1,1,.16,14.89,14.89,0,0,0-1.5-.1A3.49,3.49,0,0,1,213.24,226.52Z"/><path d="M260,206.31l-.38-.58a1.51,1.51,0,0,0-1-.66,1.63,1.63,0,0,0-1.14.22l-3.19,2.09h-.42l-2.71-4.12a1.52,1.52,0,0,0-2.1-.44l-.61.4a1.52,1.52,0,0,0-.44,2.11l2.09,3.19a2.14,2.14,0,0,0-.67,2L245.69,213c-1.16-1.29-.94-4.19-1.67-5l1.37-12.41a1.51,1.51,0,0,0-.71-1.46,1.54,1.54,0,0,0-1.63,0l-.73.48a1.52,1.52,0,0,0-.67,1.1l-2.47,22.42a1.5,1.5,0,0,0,.24,1l.3.46a1.5,1.5,0,0,0,1.26.68,1.52,1.52,0,0,0,.83-.25l.68-.45c1.26,1.3.81-.82,5-1.06a55.49,55.49,0,0,1,7.95-1.88l.79,1.2a1.52,1.52,0,0,0,2.11.43l.6-.4a1.52,1.52,0,0,0,.43-2.1l-1-1.58a23.7,23.7,0,0,0,.2-2.64,4.54,4.54,0,0,0-.4-2.22l1.39-.92A1.51,1.51,0,0,0,260,206.31Z"/><path d="M275.15,192.61c.18.66.37,1.31.56,1.92a7.29,7.29,0,0,0-1,6.22,7.57,7.57,0,0,0,4.58,5.3,10.17,10.17,0,0,0,3.82.68,16.52,16.52,0,0,0,4.26-.6,18.35,18.35,0,0,0,2.44-.84c1.37,2,3.18-.28,4.2-2.86a7.54,7.54,0,0,0,1.71-7.32,7.39,7.39,0,0,0-2.43-3.85,12,12,0,0,0-1.85-3.53,7,7,0,0,0,.18-4.35c-1.24-4.64-5.85-6.62-11.71-5s-8.8,5.57-7.55,10.2A6.94,6.94,0,0,0,275.15,192.61Zm11.24,9.92a9.32,9.32,0,0,1-5.63.08,4.22,4.22,0,0,1-.84-.44c.46-3.16,1.72-7.44,6.37-7.42,7,0,5.32,3.33,3.86,6.1A11.56,11.56,0,0,1,286.39,202.54ZM280.86,182a11.48,11.48,0,0,1,2.82-.39c1.75,0,3.7.55,4.3,2.8,1,3.63-3.56,5.16-5,5.54a9.23,9.23,0,0,1-4.45.21A12.29,12.29,0,0,1,278,189c-.91-2.05,3.79-5.38,1.33-6.49A12.16,12.16,0,0,1,280.86,182Z"/><path d="M347,182.12c1.29-.76,3.21-.84,5.52-.23a10.64,10.64,0,0,1,5.37,3.4,1.52,1.52,0,0,0,2.16.2l.53-.46a1.52,1.52,0,0,0,.21-2.09,14.14,14.14,0,0,0-7.36-4.68c-7.14-1.86-10.79,1.58-11.73,5.12-1.07,4.09,1,6.58,3.65,8.42.17.34.35.44.52.35,1,.63,2,1.18,2.95,1.7,1.15.62,2.1,1.16,2.89,1.68.36.62,1.39,1.33,1.29,2.16a10.94,10.94,0,0,0,.31,3.77c-1.2,1.37-3.48,1.71-6.56.89a9.82,9.82,0,0,1-6.28-4.59,1.51,1.51,0,0,0-2.09-.68l-.62.33a1.51,1.51,0,0,0-.66,2,11.21,11.21,0,0,0,4,4.46c.95,1.23,3.31,2.55,4.78,2.16a15.43,15.43,0,0,0,3.84.53,8.55,8.55,0,0,0,5.53-1.78c.81.18,1.72-.81,2.55-3.9,0-.06,0-.14,0-.22,1.23-5.45-3.39-8-7.14-10a29.18,29.18,0,0,1-3.53-2.15c.4-2.51.46-5.37-.28-5.5a1.77,1.77,0,0,0-.85,0A3.44,3.44,0,0,1,347,182.12Z"/><path d="M373,217l.63.36a1.52,1.52,0,0,0,2.08-.55l.24-.42a1.46,1.46,0,0,0,.28.26c2.07-.9,11.33-16.49,10-18.15l2.19-3.8a1.52,1.52,0,0,0-.56-2.08l-.63-.36a1.51,1.51,0,0,0-2.07.56l-12.71,22.11A1.53,1.53,0,0,0,373,217Z"/><path d="M405.91,244.51l.43.44a1.52,1.52,0,0,0,2.14.05l1.15-1.09c4.49,1.26,12.46-9.3,11.95-11.36l5.39-5.12a1.52,1.52,0,0,0,.47-1.07,1.51,1.51,0,0,0-.42-1.08l-.5-.53a1.51,1.51,0,0,0-2.14,0l-9.06,8.61c-1.52.39-2.74.75-2.84.79a16.62,16.62,0,0,1-1.86.73l.71-4.61a4.07,4.07,0,0,0,.26-.35.78.78,0,0,0-.13-.46l1.4-9.14a7.67,7.67,0,0,0,1.14-2.2,5.23,5.23,0,0,0-.64-1l.7-4.54a1.52,1.52,0,0,0-.4-1.27l-.43-.45a1.53,1.53,0,0,0-1.06-.47,1.24,1.24,0,0,0-1.09.42l-18.48,17.57a1.52,1.52,0,0,0-.05,2.15l.5.53a1.52,1.52,0,0,0,2.14.05l1.29-1.23c1.45,1.35,3.32-1.74,3.5-2.61a1.25,1.25,0,0,0-.12-.6l6.46-6.14c.47,1.88,1.31,2.65,2.27,2.73l-3.08,20.07A1.51,1.51,0,0,0,405.91,244.51Z"/><path d="M450,366.65a1.5,1.5,0,0,0-.81-.84l-.63-.27a1.51,1.51,0,0,0-2,.79l-1.82,4.19-.9.11-20.61-9a1.57,1.57,0,0,0-1.16,0,1.5,1.5,0,0,0-.84.81l-.27.63a1.52,1.52,0,0,0,.79,2l4.48,2c.35,1.75,3.37,2.51,4.74,2.49a4.44,4.44,0,0,0,.64-.14l6.65,2.9c-.12.08-.18.14-.16.18,1,2,3.89,2.9,6.43,2.55l.56.25a1.52,1.52,0,0,0,2-.79l.22-.51a3.67,3.67,0,0,0,1.42-1.93,1.39,1.39,0,0,0-.28-.7l1.52-3.5A1.52,1.52,0,0,0,450,366.65Z"/><path d="M357.84,432.13c-1.29-5.06-6.13-7.19-12.6-5.54s-9.78,5.85-8.48,10.91a7.33,7.33,0,0,0,2.58,4.06,36.89,36.89,0,0,0,1.33,4.19,7.38,7.38,0,0,0,4.32,8.5,9.76,9.76,0,0,0,3.73.69,14.81,14.81,0,0,0,3.62-.49A14.25,14.25,0,0,0,356,453a1,1,0,0,0,1.11.51c1.08-.19,1.65-1.49,1.91-3.28.07-.11.15-.21.22-.32a7.12,7.12,0,0,0,.74-5.53,7.4,7.4,0,0,0-1.16-2.52,34.89,34.89,0,0,0-.8-4.45c0-.08-.16-.39-.38-.84A7.46,7.46,0,0,0,357.84,432.13ZM350.92,430a4,4,0,0,0-.25.68c-.29,1.09,1.68,3.89,2.34,6.38a10.75,10.75,0,0,1-4.54,2.25c-3.18.8-5.62.46-7-.87.58-2.81,5.4-6.62,5.26-7.17a2.09,2.09,0,0,0-.54-1A10.41,10.41,0,0,1,350.92,430Zm.51,20.88a9.6,9.6,0,0,1-4.4.14c-.4-1.4-.61-3.1.29-4.34,1.62-2.24,6-3.2,8-.93a4.09,4.09,0,0,1,.48,2.57c0,.07-.08.14-.13.2A8,8,0,0,1,351.42,450.83Z"/><path d="M358.57,292.58H275.35a5.66,5.66,0,0,0-4.21,1.88,5.74,5.74,0,0,0-1.45,4.43,47,47,0,0,0,32.62,40,2.72,2.72,0,0,1,2,2.54v9.18c0,8.34-4.55,15.65-13.54,21.74A5.66,5.66,0,0,0,294,382.71h46.94a5.74,5.74,0,0,0,2.59-.61l0,0c2.57.22,3.07-1.42,2.72-3.16,0-.09.08-.17.1-.26a5.52,5.52,0,0,0-2.22-6.31c-9-6.09-13.54-13.4-13.54-21.74v-7.1c.18-.07.16-.35,0-.7v-1.68a2.68,2.68,0,0,1,1.92-2.53,47.09,47.09,0,0,0,31.76-39.75,5.76,5.76,0,0,0-1.46-4.43A5.67,5.67,0,0,0,358.57,292.58Zm-52.28,65.07a23.11,23.11,0,0,0,.83-4.2,1.6,1.6,0,0,0,.71,0l1-1.52h18.25a1.4,1.4,0,0,0,.64,1.33,23.25,23.25,0,0,0,.84,4.34Zm21.24-12.57v3.86h-20.2v-4.21c.89.62,1.77.67,1.73-1.46h18c0,.08,0,.16,0,.25C327,344.5,327.17,344.94,327.52,345.08Zm14.87,29.82a2.68,2.68,0,0,1,.72.71,5,5,0,0,0-.22,2.44,5.65,5.65,0,0,0-.34,1.06,2.55,2.55,0,0,1-1.66.57H294l-.31,0a2.76,2.76,0,0,0-1.85-2.15,1.74,1.74,0,0,0-.41.17,2.51,2.51,0,0,1,1.06-2.78c5.66-3.83,9.74-8.28,12.18-13.14a2.27,2.27,0,0,0,1.14.22c1.89,0,2.54-.57,2.56-1.28H329c.39.87.88,1.85,1.59,1.89A36.18,36.18,0,0,0,342.39,374.9ZM331.5,335.76a5.75,5.75,0,0,0-3.83,4.48H307.12a5.75,5.75,0,0,0-3.89-4.21A43.9,43.9,0,0,1,273,301c1.18.06,2.47-3.81,2.2-3.19-.72-1.29-1.66-1.19-2.33-.54a2.63,2.63,0,0,1,.49-.81,2.59,2.59,0,0,1,2-.88h83.21a2.62,2.62,0,0,1,2,.87,2.73,2.73,0,0,1,.68,2.09A44,44,0,0,1,331.5,335.76Z"/><path d="M300.71,261.68v8.39a1,1,0,0,0-.44.59,6.16,6.16,0,0,0,.83.55,1.51,1.51,0,0,0,.77.47c1.83,1.11,4.6,2.72,4.67,2.74,2.18.58,2.87,1.54,4.66.62v5.65a1.52,1.52,0,0,0,1.52,1.52h8.53a1.52,1.52,0,0,0,1.52-1.52v-9h9a1.52,1.52,0,0,0,1.52-1.52v-8.53a1.52,1.52,0,0,0-1.52-1.52h-6a12.17,12.17,0,0,0-2.93-2.18V251.2a1.52,1.52,0,0,0-1.52-1.52H312.7a1.52,1.52,0,0,0-1.52,1.52v9h-9A1.52,1.52,0,0,0,300.71,261.68Zm3,1.52h9a1.52,1.52,0,0,0,1.52-1.52v-9h5.49v4.55c-.7.27-.87,1.2,0,3.12v1.29a1.52,1.52,0,0,0,1.52,1.52h1.68c2,.84,4.59,1.41,5.62,0h1.66v5.49h-9a1.52,1.52,0,0,0-1.52,1.52v9h-5.49v-9a1.52,1.52,0,0,0-1.52-1.52h-1.57a17,17,0,0,0-6.24,0h-1.15Z"/><path d="M415,409.21l0,0a7.15,7.15,0,0,0,4.58,1.71,8.77,8.77,0,0,0,5.09-1.81c.16.67.67.93,1.79.47,4.05-1.67,4.71-4.67,3.58-7.92a8.29,8.29,0,0,0,.27-3,7.14,7.14,0,0,0-2.69-4.89,6.86,6.86,0,0,0-4.85-1.65c-.45-.39-.91-.76-1.36-1.11a7.27,7.27,0,0,0-2.79-5.79,7.56,7.56,0,0,0-6.81-1.63,12.85,12.85,0,0,0-6.61,4.65c-2.4,2.92-3.52,5.88-3.25,8.58a7.63,7.63,0,0,0,2.89,5.22,8.06,8.06,0,0,0,1.37.9A20.65,20.65,0,0,0,415,409.21Zm5.6-2.18a3.46,3.46,0,0,1-2.15-.12c.16-4.4,1.45-13.91,7.32-7.32a3.09,3.09,0,0,1,.21,2.36,10.9,10.9,0,0,1-1.41,2.17A8.15,8.15,0,0,1,420.56,407Zm-12.49-16.39a9.25,9.25,0,0,1,4.52-3.33,4.17,4.17,0,0,1,1-.13,3.89,3.89,0,0,1,2.23.73,5.15,5.15,0,0,0-1.46-.26s-3.91-.34-3.7,1.14c.16,1.16,4.49,2,6.85,3.64a11.24,11.24,0,0,1-2.24,4.13,9.49,9.49,0,0,1-4.55,3.37,4,4,0,0,1-1.64.08c-.48-1.73-.18-4.67-1.61-6.49a5.2,5.2,0,0,0-.82-.86A14,14,0,0,1,408.07,390.64Z"/><path d="M466.74,591.36l-.66-12c.54-.92.8-2.37.6-4.77-.28-2.76-.63-3.81-1.08-4l-.22-4a1.53,1.53,0,0,0-.77-1.24,1.55,1.55,0,0,0-1.46,0l-.74.39a1.52,1.52,0,0,0-.81,1.42l.36,6.48a18.57,18.57,0,0,0-2.43,2.35l-9.38,5-.37-.05-5.8-4.37a1.51,1.51,0,0,0-1.63-.13l-.74.4a1.52,1.52,0,0,0-.2,2.55l3.5,2.64s0,0,0,.06c-.33,2.48,10.72,8.77,12.49,10,1.13.81,3.89,3.14,6.17,4l.31.23a1.48,1.48,0,0,0,.91.31,1.55,1.55,0,0,0,.72-.18l.64-.34a1.53,1.53,0,0,0,.8-1.42v-.09a6.35,6.35,0,0,0,.13-1.24A4.82,4.82,0,0,0,466.74,591.36Zm-5.47-1.78-5.24-4c.33-1.14,2.08-1.92,3.38-3.16a5.61,5.61,0,0,1,3-1.31l.47,8.43Z"/><path d="M142.85,452.79c6.16.3,7.14-.84,6.43-2.62l6.67-1.3a1.51,1.51,0,0,0,1.12-.93,1.53,1.53,0,0,0-.18-1.45l-.49-.68a1.53,1.53,0,0,0-1.52-.59l-7.38,1.43-1.88-2.6c-1.53-2.8-4.27-7.91-5.18-10.23l2.7-4.83a1.53,1.53,0,0,0-.1-1.64l-.49-.68a1.51,1.51,0,0,0-2.55.15l-13.73,24.58a1.52,1.52,0,0,0,.09,1.63l.43.59a1.53,1.53,0,0,0,1.23.63l.29,0,2.06-.4c1.3,1.84,3.73,1.6,5.5-1.07l4.91-1A2.69,2.69,0,0,0,142.85,452.79Zm-6.86-3.9c-.29-3.32.19-8.26,4.37-4.45a3.31,3.31,0,0,1,.83,3.44Z"/><path d="M523.62,264.84l-4.67,4.06a1.51,1.51,0,0,0-.46,1.57l.23.8a1.53,1.53,0,0,0,1,1,1.55,1.55,0,0,0,.43.06,1.52,1.52,0,0,0,1-.37l1.92-1.67a3.2,3.2,0,0,0,2.22,0c3.31-.94,10-7.75,12.28-10.69a17.88,17.88,0,0,0,2.82-4.33l2-1.73a1.51,1.51,0,0,0,.46-1.57l-.2-.7a1.51,1.51,0,0,0-1.23-1.08l-27.79-4.32A1.52,1.52,0,0,0,512,247.8l.24.81a1.52,1.52,0,0,0,1.23,1.07l7.42,1.15.15.53c-.66,1.08-.15,2,.77,2.66l2.74,9.5A14.2,14.2,0,0,0,523.62,264.84Zm8.56-10.47a4.18,4.18,0,0,1,1.44,1.78l-5.12,4.43a2.7,2.7,0,0,0-.92.22l-1.48-5.15C527.92,255.53,529.43,252.27,532.18,254.37Z"/><path d="M194,337.63c2.84-.3,6.29-.75,8.44-2.49h.17a1.52,1.52,0,0,0,1.38-1.64l0-.3a6.64,6.64,0,0,0,.49-3.48c-.22-3-.64-4.27-1.18-4.51l-.75-8.63a1.47,1.47,0,0,0-1.64-1.38l-.69.06a1.51,1.51,0,0,0-1.38,1.64L199.95,330c-.28.61-.54,1.18-.78,1.64l-7.93.69-1.08-12.51a1.54,1.54,0,0,0-.54-1,1.5,1.5,0,0,0-1.11-.34l-.69.07a1.52,1.52,0,0,0-1.37,1.64l1.08,12.5-6,.52c-.46-.33-1-.76-1.66-1.33s-.64-3.47-1.36-4.58l-.7-8a1.49,1.49,0,0,0-1.64-1.38l-.69.06a1.51,1.51,0,0,0-1.38,1.64l1.42,16.38a1.52,1.52,0,0,0,1.51,1.39h.13l1.61-.14a6.56,6.56,0,0,0,2,1.46C183.1,339.61,191.32,337.91,194,337.63Z"/><path d="M380.38,528.69a6.94,6.94,0,0,1,.1,3l-4.81,9.61a1.52,1.52,0,0,0,1.36,2.2,1.6,1.6,0,0,0,.47-.07l.94-.3a1.53,1.53,0,0,0,.89-.76l.39-.77c3-.62,6.11-10.68,7.88-12.09a3.75,3.75,0,0,1,2.79-.8l2.61,8.21a1.53,1.53,0,0,0,1.9,1l.69-.22a1.5,1.5,0,0,0,.89-.75,1.48,1.48,0,0,0,.1-1.16l-3.68-11.61c0-4.14-.73-5.49-1.73-5.46l-2.3-7.24a1.53,1.53,0,0,0-1.9-1l-.69.22a1.52,1.52,0,0,0-1,1.9l1.86,5.88L384.37,524a6.08,6.08,0,0,1-1,.21l-13.18-7.88a1.48,1.48,0,0,0-1.23-.14l-.94.3a1.51,1.51,0,0,0-1,1.27,1.52,1.52,0,0,0,.72,1.48l4.51,2.7C372.8,524.16,379.3,526.64,380.38,528.69Z"/><path d="M210.3,121.9l-1.79-1-4.7-8.94a1.51,1.51,0,0,0-2.05-.63l-.64.34a1.52,1.52,0,0,0-.64,2l3,5.76c.55,2.12,3.65,8.28,6.35,12.09l2.48,4.72a1.52,1.52,0,0,0,2.05.64l.65-.34a1.52,1.52,0,0,0,.74-.9,1.51,1.51,0,0,0-.1-1.16l-1.74-3.31c-.27-.92-.51-1.82-.15-2.39,1.3-2.06,3.42-3.09,4.78-4.87l3.81,1.44c.34,1.53,2.58,2,4.11,1.56l3.32,1.26a1.52,1.52,0,0,0,1.25-.07l.87-.46a1.52,1.52,0,0,0-.17-2.76l-13.33-5.06c-.39-2.11-.77-3.35-1.79-3.64l1.33-4.5a2.81,2.81,0,0,0,.43-.18,1.65,1.65,0,0,0-.17-.73l1.84-6.22a1.53,1.53,0,0,0-.49-1.61,1.55,1.55,0,0,0-1.67-.17l-.87.46a1.51,1.51,0,0,0-.75.91l-5.14,17.35A7.27,7.27,0,0,1,210.3,121.9Z"/><path d="M193.71,516.2l.06-.06h0a1.52,1.52,0,0,0,.85.26l.29,0a1.53,1.53,0,0,0,1-.64l.39-.58a1.53,1.53,0,0,0-.41-2.1l-3.12-2.12c0-.05,0-.1,0-.15.14-3.63,1.13-6,3.21-9.47,2.36-4,6.1-9.29,3.89-8.21l2.55-3.75a1.52,1.52,0,0,0-.4-2.1l-.6-.41a1.47,1.47,0,0,0-1.14-.24,1.56,1.56,0,0,0-1,.64L186.49,506c-.27,0-.57,0-.87.06l-6-4.08a1.53,1.53,0,0,0-2.1.4l-.39.57a1.52,1.52,0,0,0-.24,1.14,1.56,1.56,0,0,0,.64,1l3.59,2.44C181.84,510.83,191.67,515.73,193.71,516.2Z"/><path d="M393.82,422.32a11.29,11.29,0,0,0-.75-2.34l.6-4.9a1.53,1.53,0,0,0-.23-1l-.3-.46a1.54,1.54,0,0,0-2.1-.46L379.9,420.3l-3.27-5.1a1.52,1.52,0,0,0-2.1-.46l-.61.39a1.52,1.52,0,0,0-.46,2.1l3,4.64a2.45,2.45,0,0,0-1.07,1.34l-2.13,1.36a1.52,1.52,0,0,0-.66,1,1.49,1.49,0,0,0,.21,1.14l.37.58a1.51,1.51,0,0,0,2.09.46l.65-.42c1.72,4.76,3.74,3.87,5.35,2.07l.28.43a1.53,1.53,0,0,0,2.11.46l.61-.4a1.53,1.53,0,0,0,.45-2.09l-1.06-1.65c.15-.19.28-.31.36-.33q.7-3.18,3-2.4a5,5,0,0,1,1.87.45l-1.67,13.71a1.52,1.52,0,0,0,2.32,1.46l.74-.47a1.52,1.52,0,0,0,.69-1.1l0-.16c1.37-.22.87-1.16.24-1.95l1.24-10.19C393.35,424.82,393.36,424.7,393.82,422.32Z"/><path d="M341.71,621.06c.11.08.18.09,0,0Z"/><path d="M368.92,15.58a16.13,16.13,0,0,0,.19-6l.59-4.78a1.52,1.52,0,0,0-1.33-1.69L367.75,3a1.61,1.61,0,0,0-1.39.6l-11.9,15.94a4.82,4.82,0,0,1-2.16-1.78l-2-4.71a20,20,0,0,0-1-2.31L345.28,1a1.51,1.51,0,0,0-1.21-.92L343.46,0a1.68,1.68,0,0,0-1.12.31,1.5,1.5,0,0,0-.57,1l-3.12,25.29A1.51,1.51,0,0,0,340,28.3l.72.09a1.54,1.54,0,0,0,1.69-1.32l.45-3.65c1.2-.3.81-1,.2-1.64l.91-7.36c1.38,1.62,3.36,3.24,4.89,4.69l2.61,6.2a1.52,1.52,0,0,0,1.22.92l.44.05a1.54,1.54,0,0,0,1.4-.6l.06-.08c1.14.7,2,.08,2.49-3.33L358.78,20c.56,0,1.15,0,1.52-.08,2-.2,2.47.26,3.72.24l-1.16,9.49a1.52,1.52,0,0,0,1.32,1.69l.72.09h.18a1.52,1.52,0,0,0,1.51-1.33l1.11-9C368.17,21.15,368.15,20.19,368.92,15.58Z"/><path d="M632.4,316.56a16.6,16.6,0,0,0,1.54-7.46l-.15-9.65a1.52,1.52,0,0,0-1.52-1.49h0l-25.49.39a1.52,1.52,0,0,0-1.49,1.54l.15,9.65a15.37,15.37,0,0,0,4.2,10.73,13.32,13.32,0,0,0,5.06,3.16c6.16,2.8,15.15,3.19,17.67-5C632.67,317.39,632.65,316.81,632.4,316.56Zm-19.8,1.35c-.11-.1-.23-.19-.33-.3a11.58,11.58,0,0,1-3.12-8.21l-.09-5.89c2,1.58,9.72.68,11.2.68,0,.9,6.34.05,9.86-1.1l.09,6a11.57,11.57,0,0,1-2.87,8.3,10.14,10.14,0,0,1-7.49,3.12,11.24,11.24,0,0,1-5.6-1.4Z"/><path d="M21.26,379.33l11.9-2.09a1.52,1.52,0,0,0,1.24-1.74l-.12-.72a1.55,1.55,0,0,0-.62-1,1.46,1.46,0,0,0-1.14-.26l-12.14,2.13c-.17-2-.34-5.17-.32-5.09,0-.31-.85.14-2.07,1l5-5.45.28.14c3.36-1.29,6.69-4.38,5.83-6.86l1.61-1.77a1.49,1.49,0,0,0,.37-1.28l-.11-.61a1.51,1.51,0,0,0-1.75-1.23L4.09,358.94a1.52,1.52,0,0,0-1.23,1.75l.12.72a1.52,1.52,0,0,0,1.75,1.23L19.61,360a4.28,4.28,0,0,0,.47,3.65L6.58,378.52a1.49,1.49,0,0,0-.37,1.28l.11.61a1.51,1.51,0,0,0,1.49,1.26,1.25,1.25,0,0,0,.26,0l1.86-.33c.51.91,2.48,1.1,6.82,0C22.16,379.9,21.92,380.06,21.26,379.33Z"/><path d="M359.33,623.32l-.88-8.42a8,8,0,0,0,.48-3.82c-.32-2-.74-2.9-1.21-3.21l-.44-4.24a1.52,1.52,0,0,0-.56-1,1.5,1.5,0,0,0-1.11-.33l-.72.08a1.52,1.52,0,0,0-1.35,1.67l.75,7.18-6.26.65c-1.42-.46-2.85-1-4.13-1.58l-5-5.61a1.52,1.52,0,0,0-1.29-.5l-.91.09a1.52,1.52,0,0,0-1,2.53l4.62,5.16c.1.84.19,1.77.27,2.71a9.72,9.72,0,0,0,4.7,16.74c4.21,2.13,10.15,3,13.17-.73h.11a1.53,1.53,0,0,0,1.35-1.67l-.1-.93a11.16,11.16,0,0,0,.42-1.87A7.82,7.82,0,0,0,359.33,623.32Zm-4.53,4-5.27.55a12.92,12.92,0,0,1-3.35-.06c-1.46-.72-2.82-1.5-3.73-2a6.14,6.14,0,0,1-1.21-3.25,7.82,7.82,0,0,1,0-1.69l.49.23c-.26-.17-.69-.61,1.24-.7.22,0,8-2.43,9.14-2.89a13.3,13.3,0,0,1,2.76-.69l1,9.08C355.48,626.34,355.15,626.83,354.8,627.29Z"/><path d="M6.09,335.7a1.86,1.86,0,0,0,.23-.55l20.85-.32a1.52,1.52,0,0,0,1.49-1.54l0-1.07a10.15,10.15,0,0,0,1-3.4,19.54,19.54,0,0,0-1.26-7.42c-1-7.48-6.52-12.49-14-12.49H14a14,14,0,0,0-10.16,4.32A15.37,15.37,0,0,0,0,324.07l.15,9.65a1.52,1.52,0,0,0,1.52,1.49h0l1.21,0C3.82,336.77,4.94,337.44,6.09,335.7Zm8-23h.2a10.49,10.49,0,0,1,6,1.75,4.8,4.8,0,0,0-.07.92c0,.4,3.13,4,4.2,5.4a14.48,14.48,0,0,1,.37,3l.11,7.33-18.69.28c-.49-3.44-1.53-7.85-.76-10.08.21-.62,4.22-5.81,3.63-7.42A10.92,10.92,0,0,1,14.1,312.67Z"/><path d="M294.81,533.37l.81-5.45c.1-.25.2-.52.31-.81l-.14-.31.52-3.5a1.51,1.51,0,0,0-1.27-1.73L284.34,520c-9.2-1.39-11.37,3.49-11.82,6.51a7.2,7.2,0,0,0,2,6.56c0,.39.09.78.12,1.16a7.24,7.24,0,0,0-2.59,4.74,7.16,7.16,0,0,0,2,6.42,8.54,8.54,0,0,0,1.45,1.13c1.25,1.2,3.65,2.75,5.17,1.79l.16,0,9,1.34a1.2,1.2,0,0,0,.69.1l.33,0,.23,0a1.52,1.52,0,0,0,1.5-1.29l.29-1.93a39.08,39.08,0,0,0,1.89-9.16C299.17,537.44,296.68,534.87,294.81,533.37Zm-2.54-8.45L291,533.53l-.27.13-8.37-1.24a11,11,0,0,1-4.53-1.49,3.4,3.4,0,0,1-.07-1.83c.68-3.45,4.23-2.93,6.14-5.31,0,0,0-.07,0-.11Zm-3.11,20.86-7.9-1.18a12.16,12.16,0,0,1-2.54-.64,4,4,0,0,1-1.22-2.85c.56-3.26,4.51-2.66,5-4.9h0l3,.45c-.11,2.24,3.28.75,4.16,3.25a4.5,4.5,0,0,1,.17,1.41Z"/><path d="M130,415.41l3.36-1.61a1.52,1.52,0,0,0,.71-2l-.31-.66a1.49,1.49,0,0,0-.87-.78,1.47,1.47,0,0,0-1.16.06L127,412.69c-1-.66-2.21-1.48-3.24-2.26l-1.28-2.67c-3.08-6.42-8.42-8.77-13.92-6.13s-7,8.26-3.95,14.69l3.74,7.8a1.52,1.52,0,0,0,2,.71l.42-.2a3.08,3.08,0,0,0,1.37.39c3.41-.47,3.77-1.38,2.89-2.42l7.22-3.46C124.74,420.84,130.24,418.43,130,415.41Zm-10.95-6.1.31.64c.24,1.26,1.34,2.95,1.95,4.88-.05.22-.09.42-.13.62l-9.6,4.6c-.56-.35-1.1-.68-1.55-1l-2.12-4.42c-.23-.48-.42-.93-.58-1.38.41-4.48,7.22-5.63,7.29-8.07a2.82,2.82,0,0,0,0-.61c.15.05.3.08.44.15A9.08,9.08,0,0,1,119.08,409.31Z"/><path d="M230.86,416.17,242.36,405a1.52,1.52,0,0,0,0-2.15l-.5-.52a1.51,1.51,0,0,0-1.07-.46,1.19,1.19,0,0,0-1.08.43L228,413.71l-.33-.08c-.28.67.1-2.93-1.16-3.83l1.35-9.49c1.52-1.8,2-4.68.86-6l.58-4.09a1.5,1.5,0,0,0-.42-1.27l-.43-.44a1.52,1.52,0,0,0-2.14,0L208,406.2a1.52,1.52,0,0,0,0,2.15l.51.53a1.51,1.51,0,0,0,1.07.46,1.07,1.07,0,0,0,1.08-.43l4.7-4.57c.44.75,2.46.09,7-3.38a5,5,0,0,0,1.55.75L221.09,421a1.5,1.5,0,0,0,.42,1.27l.43.44a1.52,1.52,0,0,0,2.14,0l.71-.69a1.88,1.88,0,0,0,.79.28C228.05,422.63,231.43,418.9,230.86,416.17Z"/><path d="M455.15,302.43l.92,12.38a1.5,1.5,0,0,0,1.62,1.4l.69,0a1.49,1.49,0,0,0,1-.52,1.52,1.52,0,0,0,.2-.3c1.2-.17.75-1.27.07-2.11l-1.11-15.08a1.5,1.5,0,0,0-.52-1,1.38,1.38,0,0,0-1.1-.36l-25.42,1.89a1.51,1.51,0,0,0-1.4,1.62l1.25,16.92a1.51,1.51,0,0,0,1.51,1.41H433l.69-.05a1.51,1.51,0,0,0,1.39-1.62l0-.52c.29-.2.48-.65.49-1.45l-.66-.73-.78-10.45a52.48,52.48,0,0,1,9.08,2.44l.58,7.88a1.52,1.52,0,0,0,.52,1,1.44,1.44,0,0,0,1.11.36l.69-.05a1.51,1.51,0,0,0,1.39-1.62l-.53-7.22a10.43,10.43,0,0,0,.67-2.08,3.56,3.56,0,0,0-1-3.06v-.15l6.56-.48A18.86,18.86,0,0,0,455.15,302.43Z"/><path d="M192.13,379.2a13.8,13.8,0,0,0,4.19,1.47c0,.47.73,1,2.85,1.48,4.25,1,10.69-4.12,12.59-7.51a9.29,9.29,0,0,0,.66-2.93,14.66,14.66,0,0,0-.44-11.35,13.62,13.62,0,0,0-7.39-7.37,1.5,1.5,0,0,0-1.92.78l-.28.61a1.52,1.52,0,0,0,.8,2,9.26,9.26,0,0,1,2.88,1.84,1.74,1.74,0,0,0,.6.61,11.6,11.6,0,0,1,1.91,3,11.84,11.84,0,0,1,.67,1.94,4,4,0,0,0,.27,1.46,10.73,10.73,0,0,1-14.36,11.16,10.88,10.88,0,0,1-6-5.84,9.87,9.87,0,0,1-.53-7.64,1.52,1.52,0,0,0-1-2l-.65-.19a1.51,1.51,0,0,0-1.84.92,13.61,13.61,0,0,0,.62,10.41,15.48,15.48,0,0,0,3.23,4.69C189.05,378.17,190.84,379.68,192.13,379.2Z"/><path d="M447.05,258.68a14.07,14.07,0,0,0-17.21-4.54,14.29,14.29,0,0,0-7.76,8,14.73,14.73,0,0,0,.39,11.19,13.59,13.59,0,0,0,7.31,7.46,1.55,1.55,0,0,0,.56.11,1.52,1.52,0,0,0,1.37-.86l.29-.6a1.53,1.53,0,0,0-.78-2.06,9.93,9.93,0,0,1-5.3-5.47c0-3.39.35-7.81.75-8.56a1.13,1.13,0,0,0-.73-.57,10.33,10.33,0,0,1,2.95-3.66c1.24,1.21,10.25.13,11.43-1.32a10.46,10.46,0,0,1,2.84,2.09c-.69,1.7.21,2.05,1.39,1.77a11.9,11.9,0,0,1,.89,1.67,9.91,9.91,0,0,1,.45,7.65,1.48,1.48,0,0,0,.07,1.2,1.52,1.52,0,0,0,.91.78l.64.2a1.53,1.53,0,0,0,1.86-.9,13.63,13.63,0,0,0-.5-10.42,16.08,16.08,0,0,0-1.29-2.37C447.63,259.13,447.48,258.87,447.05,258.68Z"/><path d="M200.85,268l9.32,3.94a1.58,1.58,0,0,0,.59.12,1.43,1.43,0,0,0,.57-.11,1.5,1.5,0,0,0,.83-.82l.27-.63a1.52,1.52,0,0,0-.81-2l-23.47-9.93a1.53,1.53,0,0,0-2,.81l-2.82,6.68a1.52,1.52,0,0,0,.82,2l.64.27a1.51,1.51,0,0,0,2-.81l.49-1.17c1.73.79,5.45.23,6.64-1.28L199,267.2C198.28,268,199.41,268.17,200.85,268Z"/></g></g></svg>