<svg xmlns="http://www.w3.org/2000/svg" viewBox="0 0 1152 360"><defs><style>.cls-1{fill:#fff;}.cls-2{fill:#5dc1b9;}.cls-3{fill:#848acc;}.cls-4{fill:#404041;}.cls-5{fill:#d0d2d3;}</style></defs><title>ljAsset 13</title><g id="Layer_2" data-name="Layer 2"><g id="Layer_2-2" data-name="Layer 2"><rect class="cls-1" width="1152" height="360"/></g><g id="Layer_1-2" data-name="Layer 1"><path class="cls-2" d="M419.14,228.21"/><path class="cls-3" d="M105.43,71.36c78.43,0,78.43,78.43,78.43,78.43H105.43Z"/><path class="cls-4" d="M262.29,71.36c78.43,0,78.43,78.43,78.43,78.43H262.29Z"/><path class="cls-3" d="M262.29,149.79c0,78.43-78.43,78.43-78.43,78.43V149.79Z"/><path class="cls-5" d="M105.43,149.79c0,78.43,78.43,78.43,78.43,78.43V149.79Z"/><path class="cls-5" d="M262.29,71.36c-78.43,0-78.43,78.43-78.43,78.43h78.43Z"/><path class="cls-3" d="M262.29,71.36c78.43,0,78.43,78.43,78.43,78.43H262.29Z"/><path class="cls-3" d="M419.14,71.36c78.43,0,78.43,78.43,78.43,78.43H419.14Z"/><path class="cls-3" d="M419.14,149.79c0,78.43-78.43,78.43-78.43,78.43V149.79Z"/><path class="cls-5" d="M262.29,149.79c0,78.43,78.43,78.43,78.43,78.43V149.79Z"/><path class="cls-5" d="M419.14,71.36c-78.43,0-78.43,78.43-78.43,78.43h78.43Z"/><path class="cls-5" d="M105.43,149.79C27,149.79,27,71.36,27,71.36h78.43Z"/><path class="cls-3" d="M811.29,71.36c78.43,0,78.43,78.43,78.43,78.43H811.29Z"/><path class="cls-3" d="M968.14,71.36c0,78.43,78.43,78.43,78.43,78.43V71.36Z"/><path class="cls-3" d="M732.86,71.36c78.43,0,78.43,78.43,78.43,78.43H732.86Z"/><path class="cls-3" d="M654.43,149.79c0-78.43,78.43-78.43,78.43-78.43v78.43Z"/><path class="cls-4" d="M889.71,71.36c78.43,0,78.43,78.43,78.43,78.43H889.71Z"/><path class="cls-3" d="M889.71,149.79c0,78.43-78.43,78.43-78.43,78.43V149.79Z"/><path class="cls-3" d="M811.29,228.21c0,78.43-78.43,78.43-78.43,78.43V228.21Z"/><path class="cls-3" d="M968.14,228.21c0,78.43-78.43,78.43-78.43,78.43V228.21Z"/><path class="cls-5" d="M732.86,149.79c0,78.43,78.43,78.43,78.43,78.43V149.79Z"/><path class="cls-5" d="M889.71,71.36c-78.43,0-78.43,78.43-78.43,78.43h78.43Z"/><path class="cls-3" d="M889.71,71.36c78.43,0,78.43,78.43,78.43,78.43H889.71Z"/><path class="cls-3" d="M1046.57,71.36c78.43,0,78.43,78.43,78.43,78.43h-78.43Z"/><path class="cls-3" d="M1046.57,149.79c0,78.43-78.43,78.43-78.43,78.43V149.79Z"/><path class="cls-5" d="M889.71,149.79c0,78.43,78.43,78.43,78.43,78.43V149.79Z"/><path class="cls-5" d="M1046.57,71.36c-78.43,0-78.43,78.43-78.43,78.43h78.43Z"/><circle class="cls-5" cx="1071.08" cy="105.67" r="14.71"/><circle class="cls-3" cx="1071.08" cy="105.67" r="4.9"/><path class="cls-5" d="M732.86,149.79c-78.43,0-78.43-78.43-78.43-78.43h78.43Z"/><path class="cls-2" d="M889.71,228.21"/></g></g></svg>