<svg xmlns="http://www.w3.org/2000/svg" xmlns:xlink="http://www.w3.org/1999/xlink" viewBox="0 0 1152 360"><defs><style>.cls-1{fill:#fff;}.cls-10,.cls-11,.cls-2,.cls-6,.cls-7,.cls-8,.cls-9{opacity:0.25;}.cls-2{fill:url(#New_Gradient_Swatch_1);}.cls-3{fill:#58595b;}.cls-4{fill:#a6a8ab;}.cls-5{fill:#bbbdbf;}.cls-6{fill:url(#New_Gradient_Swatch_1-2);}.cls-7{fill:url(#New_Gradient_Swatch_1-3);}.cls-8{fill:url(#New_Gradient_Swatch_1-4);}.cls-9{fill:url(#New_Gradient_Swatch_1-5);}.cls-10{fill:url(#New_Gradient_Swatch_1-6);}.cls-11{fill:url(#New_Gradient_Swatch_1-7);}</style><linearGradient id="New_Gradient_Swatch_1" x1="232.18" y1="277" x2="232.18" y2="305.05" gradientUnits="userSpaceOnUse"><stop offset="0" stop-color="#fff" stop-opacity="0"/><stop offset="1"/></linearGradient><linearGradient id="New_Gradient_Swatch_1-2" x1="575.14" y1="178.94" x2="659.73" y2="178.94" xlink:href="#New_Gradient_Swatch_1"/><linearGradient id="New_Gradient_Swatch_1-3" x1="725.38" y1="178.94" x2="828.92" y2="178.94" xlink:href="#New_Gradient_Swatch_1"/><linearGradient id="New_Gradient_Swatch_1-4" x1="321.36" y1="178.94" x2="490.54" y2="178.94" xlink:href="#New_Gradient_Swatch_1"/><linearGradient id="New_Gradient_Swatch_1-5" x1="575.14" y1="178.94" x2="490.54" y2="178.94" xlink:href="#New_Gradient_Swatch_1"/><linearGradient id="New_Gradient_Swatch_1-6" x1="424.89" y1="178.94" x2="321.36" y2="178.94" xlink:href="#New_Gradient_Swatch_1"/><linearGradient id="New_Gradient_Swatch_1-7" x1="828.92" y1="178.94" x2="659.73" y2="178.94" xlink:href="#New_Gradient_Swatch_1"/></defs><title>ljAsset 26</title><g id="Layer_2" data-name="Layer 2"><g id="Layer_2-2" data-name="Layer 2"><rect class="cls-1" width="1152" height="360"/></g><g id="Layer_1-2" data-name="Layer 1"><polygon class="cls-2" points="321.36 305.05 143 277 321.36 277 321.36 305.05"/><polygon class="cls-3" points="321.36 133.74 321.36 305.05 424.89 305.05 321.36 52.83 321.36 133.74"/><polygon class="cls-3" points="490.54 133.74 490.54 305.05 575.14 305.05 575.14 52.83 490.54 133.74"/><polygon class="cls-4" points="575.14 52.83 575.14 52.83 575.14 305.05 659.73 305.05 659.73 133.74 575.14 52.83"/><polygon class="cls-3" points="659.73 133.74 659.73 305.05 725.38 305.05 828.92 52.83 659.73 133.74"/><polygon class="cls-4" points="828.92 52.83 828.92 52.83 725.38 305.05 828.92 305.05 828.92 133.74 828.92 52.83"/><polygon class="cls-4" points="321.36 52.83 321.36 52.83 424.89 305.05 490.54 305.05 490.54 133.74 321.36 52.83"/><path class="cls-5" d="M604.38,233.75l45.25,22.63a65.38,65.38,0,0,0,58.48,0l45.25-22.63a65.38,65.38,0,0,1,58.48,0L886.33,271V191.9l-74.49-37.25a65.38,65.38,0,0,0-58.48,0l-45.25,22.63a65.38,65.38,0,0,1-58.48,0l-45.25-22.63a65.38,65.38,0,0,0-58.48,0l-45.25,22.63a65.38,65.38,0,0,1-58.48,0l-45.25-22.63a65.38,65.38,0,0,0-58.48,0L263.94,191.9V271l74.49-37.25a65.38,65.38,0,0,1,58.48,0l45.25,22.63a65.38,65.38,0,0,0,58.48,0l45.25-22.63A65.38,65.38,0,0,1,604.38,233.75Z"/><polygon class="cls-6" points="575.14 52.83 575.14 52.83 575.14 305.05 659.73 305.05 659.73 133.74 575.14 52.83"/><polygon class="cls-7" points="828.92 52.83 828.92 52.83 725.38 305.05 828.92 305.05 828.92 133.74 828.92 52.83"/><polygon class="cls-8" points="321.36 52.83 321.36 52.83 424.89 305.05 490.54 305.05 490.54 133.74 321.36 52.83"/><polygon class="cls-9" points="490.54 133.74 490.54 305.05 575.14 305.05 575.14 52.83 490.54 133.74"/><polygon class="cls-10" points="321.36 133.74 321.36 305.05 424.89 305.05 321.36 52.83 321.36 133.74"/><polygon class="cls-11" points="659.73 133.74 659.73 305.05 725.38 305.05 828.92 52.83 659.73 133.74"/></g></g></svg>