<svg id="Layer_1" data-name="Layer 1" xmlns="http://www.w3.org/2000/svg" viewBox="0 0 408.33 272.22"><defs><style>.cls-1,.cls-2{fill:none;stroke:#414042;stroke-width:2px;}.cls-1{stroke-linecap:round;stroke-linejoin:round;}.cls-2{stroke-linecap:square;stroke-linejoin:bevel;}.cls-3{fill:#414042;}</style></defs><title>kcArtboard 1</title><polyline class="cls-1" points="189.17 146.86 196.67 154.36 189.17 161.86"/><polyline class="cls-1" points="204.17 146.86 211.67 154.36 204.17 161.86"/><polyline class="cls-1" points="189.17 161.86 181.67 154.36 189.17 146.86"/><polyline class="cls-1" points="204.17 146.86 196.67 154.36 204.17 161.86"/><polygon class="cls-1" points="181.67 161.86 181.67 139.36 189.17 146.86 196.67 139.36 204.17 146.86 211.67 139.36 211.67 161.86 181.67 161.86"/><line class="cls-1" x1="121.88" y1="129.25" x2="157.88" y2="129.25"/><line class="cls-1" x1="148.88" y1="120.25" x2="157.88" y2="129.25"/><line class="cls-1" x1="121.88" y1="129.25" x2="130.88" y2="120.25"/><polyline class="cls-1" points="121.88 129.25 121.88 111.25 130.88 120.25 139.88 111.25 148.88 120.25 157.88 111.25 157.88 129.25"/><path class="cls-1" d="M121.88,129.25v3.61a23.28,23.28,0,0,0,12.87,20.82l5.13,2.57,5.13-2.57a23.28,23.28,0,0,0,12.87-20.82v-3.61"/><polyline class="cls-1" points="130.88 120.25 139.88 129.25 148.88 120.25"/><line class="cls-1" x1="130.88" y1="120.25" x2="130.88" y2="151.25"/><polyline class="cls-1" points="139.88 129.25 130.88 138.25 146 153.37"/><polyline class="cls-1" points="157.88 120.25 139.88 138.25 151 149.37"/><polyline class="cls-1" points="59.67 45.64 59.67 27.64 68.67 36.64 77.67 27.64 86.67 36.64 95.67 27.64 95.67 45.64"/><polygon class="cls-1" points="95.67 81.64 77.67 90.64 59.67 81.64 59.67 45.64 95.67 45.64 95.67 81.64"/><line class="cls-1" x1="68.67" y1="36.64" x2="77.67" y2="45.64"/><line class="cls-1" x1="86.67" y1="36.64" x2="95.67" y2="45.64"/><line class="cls-1" x1="59.67" y1="45.64" x2="68.67" y2="36.64"/><line class="cls-1" x1="77.67" y1="45.64" x2="86.67" y2="36.64"/><line class="cls-1" x1="68.67" y1="54.64" x2="68.67" y2="72.64"/><polyline class="cls-1" points="77.67 54.64 68.67 63.64 77.67 72.64"/><polyline class="cls-1" points="86.67 72.64 77.67 63.64 86.67 54.64"/><polyline class="cls-1" points="82.17 209.62 91.17 209.62 82.17 218.62"/><polyline class="cls-1" points="100.17 209.62 109.17 209.62 100.17 218.62"/><polyline class="cls-1" points="82.17 218.62 73.17 209.62 82.17 209.62"/><polyline class="cls-1" points="100.17 209.62 91.17 209.62 100.17 218.62"/><polygon class="cls-1" points="73.17 218.62 73.17 200.62 82.17 209.62 91.17 200.62 100.17 209.62 109.17 200.62 109.17 218.62 73.17 218.62"/><line class="cls-1" x1="82.17" y1="227.62" x2="82.17" y2="245.62"/><polyline class="cls-1" points="91.17 227.62 82.17 236.62 91.17 245.62"/><polyline class="cls-1" points="100.17 227.62 91.17 236.62 100.17 245.62"/><path class="cls-1" d="M96.66,256.86l-5.49,2.75-5.49-2.75a22.63,22.63,0,0,1-12.51-20.24v-18h36v18A22.63,22.63,0,0,1,96.66,256.86Z"/><line class="cls-1" x1="91.17" y1="200.62" x2="91.17" y2="218.62"/><polyline class="cls-1" points="73.17 209.62 82.17 200.62 91.17 209.62 100.17 200.62 109.17 209.62"/><polyline class="cls-1" points="34.17 124.25 34.17 115.25 43.17 124.25 52.17 106.25 61.17 124.25 70.17 115.25 70.17 124.25"/><line class="cls-1" x1="43.17" y1="124.25" x2="52.17" y2="124.25"/><line class="cls-1" x1="61.17" y1="124.25" x2="70.17" y2="124.25"/><line class="cls-1" x1="34.17" y1="124.25" x2="43.17" y2="124.25"/><line class="cls-1" x1="52.17" y1="124.25" x2="61.17" y2="124.25"/><polygon class="cls-1" points="70.17 160.25 52.17 169.25 34.17 160.25 34.17 124.25 70.17 124.25 70.17 160.25"/><line class="cls-1" x1="42.17" y1="137.25" x2="42.17" y2="155.25"/><polyline class="cls-1" points="51.17 137.25 42.17 146.25 51.17 155.25"/><polyline class="cls-1" points="64.17 155.25 55.17 146.25 64.17 137.25"/><line class="cls-1" x1="34.17" y1="124.25" x2="70.17" y2="124.25"/><rect class="cls-1" x="34.17" y="124.25" width="36" height="4.5"/><path class="cls-2" d="M300.75,145.81a9,9,0,0,0-9-9"/><path class="cls-2" d="M291.75,136.81a9,9,0,0,0,9-9"/><line class="cls-2" x1="291.75" y1="127.81" x2="291.75" y2="145.81"/><path class="cls-2" d="M312.44,152.18a5.77,5.77,0,0,1-9.69,0,11.09,11.09,0,0,1,0-12.73,5.77,5.77,0,0,1,9.69,0"/><path class="cls-2" d="M306.59,63.64a9,9,0,0,0-9-9"/><path class="cls-2" d="M297.59,54.64a16.12,16.12,0,0,0,16.12-16.12"/><line class="cls-2" x1="297.59" y1="38.52" x2="297.59" y2="72.18"/><path class="cls-2" d="M318.29,70a5.77,5.77,0,0,1-9.69,0,11.09,11.09,0,0,1,0-12.73,5.77,5.77,0,0,1,9.69,0"/><line class="cls-2" x1="291.47" y1="45.06" x2="303.72" y2="45.06"/><rect class="cls-2" x="282.38" y="28.58" width="45" height="54"/><path class="cls-2" d="M263.58,115.28a13.49,13.49,0,0,0-13.5-13.5"/><path class="cls-2" d="M250.08,101.78a13.49,13.49,0,0,0,13.5-13.5"/><line class="cls-2" x1="250.08" y1="88.28" x2="250.08" y2="115.28"/><path class="cls-2" d="M265.53,109.06a14.6,14.6,0,0,1-17.77,0,9,9,0,0,1,0-14.56,14.6,14.6,0,0,1,17.77,0"/><polyline class="cls-1" points="163.67 44.47 163.67 35.47 172.67 44.47 181.67 26.47 190.67 44.47 199.67 35.47 199.67 44.47"/><line class="cls-1" x1="172.67" y1="44.47" x2="181.67" y2="44.47"/><line class="cls-1" x1="190.67" y1="44.47" x2="199.67" y2="44.47"/><line class="cls-1" x1="163.67" y1="44.47" x2="172.67" y2="44.47"/><line class="cls-1" x1="181.67" y1="44.47" x2="190.67" y2="44.47"/><polyline class="cls-1" points="163.67 48.97 163.67 78.42 199.67 78.42 184.94 63.69 199.67 48.97"/><polyline class="cls-1" points="178.39 48.97 163.67 63.69 178.39 78.42"/><line class="cls-1" x1="163.67" y1="44.47" x2="199.67" y2="44.47"/><rect class="cls-1" x="163.67" y="44.47" width="36" height="4.5"/><line class="cls-1" x1="199.67" y1="48.97" x2="199.67" y2="78.42"/><path class="cls-3" d="M383.16,124a1,1,0,0,0-1.63-.32l-5.72,5.72a1.51,1.51,0,0,1-2.14,0L369,124.72a2.51,2.51,0,0,0-3.55,0l-4.66,4.66a1.51,1.51,0,0,1-2.14,0l-5.72-5.72a1,1,0,0,0-1.71.71v43.49a2.51,2.51,0,0,0,2.51,2.51h28.49a1,1,0,0,0,1-1v-45A1,1,0,0,0,383.16,124Zm-1.92,6.44v2.87a1.51,1.51,0,0,1-2.58,1.07l-1.44-1.44a1.51,1.51,0,0,1,0-2.14l1.44-1.44A1.51,1.51,0,0,1,381.24,130.42Zm-14,37.49-12.49-12.49a1.51,1.51,0,0,1,0-2.14l12.49-12.49a1.51,1.51,0,0,1,1.07-.44h7.9a1.51,1.51,0,0,1,1.07,2.58l-9.64,9.64a2.51,2.51,0,0,0,0,3.55l9.64,9.64a1.51,1.51,0,0,1-1.07,2.58h-7.9A1.51,1.51,0,0,1,367.21,167.92Zm-11.39-8.56,6.43,6.43a1.51,1.51,0,0,1-1.07,2.58h-6.43a1.51,1.51,0,0,1-1.51-1.51v-6.43A1.51,1.51,0,0,1,355.82,159.35Zm-1.07-19h6.43a1.51,1.51,0,0,1,1.07,2.58l-6.43,6.43a1.51,1.51,0,0,1-2.58-1.07v-6.43A1.51,1.51,0,0,1,354.75,140.36Zm2.48-4.58,1.44-1.44a1.51,1.51,0,0,1,2.14,0l1.44,1.44a1.51,1.51,0,0,1-1.07,2.58H358.3A1.51,1.51,0,0,1,357.23,135.78Zm15,0,1.44-1.44a1.51,1.51,0,0,1,2.14,0l1.44,1.44a1.51,1.51,0,0,1-1.07,2.58H373.3A1.51,1.51,0,0,1,372.23,135.78Zm9,9.64V163.3a1.51,1.51,0,0,1-2.58,1.07l-8.94-8.94a1.51,1.51,0,0,1,0-2.14l8.94-8.94A1.51,1.51,0,0,1,381.24,145.42ZM368.3,126.84l3.95,3.95a1.51,1.51,0,0,1,0,2.14l-3.95,3.95a1.51,1.51,0,0,1-2.14,0l-3.95-3.95a1.51,1.51,0,0,1,0-2.14l3.95-3.95A1.51,1.51,0,0,1,368.3,126.84Zm-15.07,6.45v-2.87a1.51,1.51,0,0,1,2.58-1.07l1.44,1.44a1.51,1.51,0,0,1,0,2.14l-1.44,1.44A1.51,1.51,0,0,1,353.24,133.3Z"/><line class="cls-1" x1="207.92" y1="211.66" x2="207.92" y2="241.66"/><polyline class="cls-1" points="222.92 211.66 207.92 226.66 222.92 241.66"/><polyline class="cls-1" points="237.92 211.66 222.92 226.66 237.92 241.66"/><line class="cls-1" x1="207.92" y1="241.66" x2="207.92" y2="211.66"/><polyline class="cls-1" points="237.92 211.66 207.92 211.66 207.92 196.66"/><line class="cls-1" x1="237.92" y1="241.66" x2="207.92" y2="241.66"/><line class="cls-1" x1="207.92" y1="196.66" x2="222.92" y2="211.66"/><line class="cls-1" x1="222.92" y1="211.66" x2="237.92" y2="196.66"/><line class="cls-1" x1="237.92" y1="196.66" x2="237.92" y2="211.66"/><line class="cls-1" x1="207.92" y1="211.66" x2="222.92" y2="196.66"/><line class="cls-1" x1="222.92" y1="196.66" x2="237.92" y2="211.66"/><line class="cls-1" x1="237.92" y1="211.66" x2="237.92" y2="241.66"/><path class="cls-3" d="M339.06,177.18a1,1,0,0,0-1.09.22l-6.79,6.79a1.25,1.25,0,0,1-2-.32l-7.6-15.21a1,1,0,0,0-1.79,0l-7.6,15.21a1.25,1.25,0,0,1-2,.32l-6.79-6.79a1,1,0,0,0-1.71.71v42.71a4.7,4.7,0,0,0,2.6,4.21l16,8a1,1,0,0,0,.89,0l16-8a4.7,4.7,0,0,0,2.6-4.21V178.1A1,1,0,0,0,339.06,177.18Zm-2.63,13.42h-31.5a1.25,1.25,0,0,1-1.25-1.25h0a1.25,1.25,0,0,1,1.25-1.25h31.5a1.25,1.25,0,0,1,1.25,1.25h0A1.25,1.25,0,0,1,336.42,190.6Zm0-4.5h-1.32a1.25,1.25,0,0,1-.88-2.13l1.32-1.32a1.25,1.25,0,0,1,2.13.88v1.32A1.25,1.25,0,0,1,336.42,186.1Zm-14.63-12.53,5.36,10.72A1.25,1.25,0,0,1,326,186.1H315.31a1.25,1.25,0,0,1-1.12-1.81l5.36-10.72A1.25,1.25,0,0,1,321.79,173.57ZM306.24,186.1h-1.32a1.25,1.25,0,0,1-1.25-1.25v-1.32a1.25,1.25,0,0,1,2.13-.88l1.32,1.32A1.25,1.25,0,0,1,306.24,186.1ZM319,230.15l-13.3-6.65a3.7,3.7,0,0,1-2-3.31V196.3a3.7,3.7,0,0,1,3.7-3.7H334a3.7,3.7,0,0,1,3.7,3.7v23.89a3.7,3.7,0,0,1-2,3.31l-13.3,6.65A3.7,3.7,0,0,1,319,230.15Z"/><path class="cls-3" d="M320.38,199.4a1,1,0,0,0-1.41,0l-5.16,5.16a1.25,1.25,0,0,1-2.13-.88V200.1a1,1,0,1,0-2,0v18a1,1,0,0,0,2,0v-3.57a1.25,1.25,0,0,1,2.13-.88l5.16,5.16a1,1,0,0,0,1.41-1.41l-5.54-5.54a3.89,3.89,0,0,1,0-5.5l5.54-5.54A1,1,0,0,0,320.38,199.4Z"/><path class="cls-3" d="M333.38,199.4a1,1,0,0,0-1.41,0l-8.12,8.12a2.25,2.25,0,0,0,0,3.18l8.12,8.12a1,1,0,0,0,1.41-1.41l-5.54-5.54a3.89,3.89,0,0,1,0-5.5l5.54-5.54A1,1,0,0,0,333.38,199.4Z"/></svg>