<svg id="Layer_1" data-name="Layer 1" xmlns="http://www.w3.org/2000/svg" viewBox="0 0 300 100"><defs><style>.cls-1{fill:#231f20;}.cls-2{fill:#c69930;}</style></defs><title>kcArtboard 2 copy 3</title><polygon class="cls-1" points="60.6 70.44 57.81 65.53 56.14 67.54 56.14 70.43 54.64 70.43 54.64 60.5 56.14 60.5 56.14 65.48 60.2 60.5 62.03 60.49 58.82 64.38 62.37 70.43 60.6 70.44"/><rect class="cls-1" x="63.81" y="60.5" width="1.51" height="9.94"/><polygon class="cls-1" points="74 70.43 69.41 63.44 69.41 70.43 67.91 70.43 67.91 60.5 69.28 60.5 73.87 67.47 73.87 60.5 75.38 60.5 75.38 70.43 74 70.43"/><path class="cls-1" d="M83.9,69.38a3.5,3.5,0,0,1-1.23.85,4,4,0,0,1-1.5.27,3.26,3.26,0,0,1-2.41-.86,3.3,3.3,0,0,1-1-1.64,15.31,15.31,0,0,1-.15-2.54,15.32,15.32,0,0,1,.15-2.53,3.3,3.3,0,0,1,1-1.65,3.27,3.27,0,0,1,2.42-.86,3.48,3.48,0,0,1,2.46.86,3.75,3.75,0,0,1,1.16,2.23H83.28a2.35,2.35,0,0,0-.73-1.29,2.21,2.21,0,0,0-2.19-.29,2.12,2.12,0,0,0-.7.5,1.88,1.88,0,0,0-.43,1,12.43,12.43,0,0,0-.12,2.07,13.2,13.2,0,0,0,.11,2.1,2.2,2.2,0,0,0,.58,1.09,1.79,1.79,0,0,0,1.37.5,2,2,0,0,0,1.56-.64,2.37,2.37,0,0,0,.56-1.62v-.56H81.17V65.07h3.62v1.51a5.5,5.5,0,0,1-.2,1.62,3.05,3.05,0,0,1-.69,1.17"/><polygon class="cls-1" points="86.8 63.23 86.8 60.5 88.36 60.5 88.36 61.96 86.8 63.23"/><path class="cls-1" d="M92.54,70.5a5.87,5.87,0,0,1-2-.3,4,4,0,0,1-1.53-1l1-1a3,3,0,0,0,1.14.73,4.25,4.25,0,0,0,1.4.22,2.51,2.51,0,0,0,1.51-.4,1.31,1.31,0,0,0,.54-1.12,1.24,1.24,0,0,0-.29-.94,1.9,1.9,0,0,0-.52-.36,2.76,2.76,0,0,0-.67-.15L92,66a3.38,3.38,0,0,1-1.91-.82,2.44,2.44,0,0,1-.7-1.87,2.7,2.7,0,0,1,.89-2.11,3.5,3.5,0,0,1,2.42-.8,4.34,4.34,0,0,1,3.08,1.13l-1,.95a2.48,2.48,0,0,0-1-.59,3.81,3.81,0,0,0-1.2-.17,1.9,1.9,0,0,0-1.33.44,1.44,1.44,0,0,0-.48,1.11,1.18,1.18,0,0,0,.38.93,2.12,2.12,0,0,0,1.11.45l1.13.17a4.67,4.67,0,0,1,1.09.27,3.79,3.79,0,0,1,1,.68,2.36,2.36,0,0,1,.57,1.83,2.58,2.58,0,0,1-1,2.13,4,4,0,0,1-2.59.78"/><path class="cls-1" d="M57.93,84.44a3.26,3.26,0,0,1-2.41-.86,3.31,3.31,0,0,1-1-1.64,22,22,0,0,1,0-5.07,3.3,3.3,0,0,1,1-1.65,3.26,3.26,0,0,1,2.41-.86,3.49,3.49,0,0,1,2.33.79,3.7,3.7,0,0,1,1.21,2.26H59.93a2.3,2.3,0,0,0-.69-1.25,1.9,1.9,0,0,0-1.32-.45,1.77,1.77,0,0,0-1.37.49A2.23,2.23,0,0,0,56,77.32a12.59,12.59,0,0,0-.12,2.08A13.09,13.09,0,0,0,56,81.5a2.18,2.18,0,0,0,.58,1.09,1.78,1.78,0,0,0,1.37.5,1.91,1.91,0,0,0,1.32-.46,2.31,2.31,0,0,0,.7-1.24h1.52a3.62,3.62,0,0,1-1.2,2.26,3.52,3.52,0,0,1-2.34.79"/><path class="cls-1" d="M68.95,84.37l-2.08-4.2H65v4.19h-1.5V74.43h3.85a3.11,3.11,0,0,1,2.24.8,2.76,2.76,0,0,1,.84,2.1,2.61,2.61,0,0,1-2,2.63l2.29,4.4Zm-1.74-8.58H65V78.9h2.23a1.77,1.77,0,0,0,1.22-.41,1.44,1.44,0,0,0,.47-1.14,1.48,1.48,0,0,0-.46-1.15,1.75,1.75,0,0,0-1.23-.42"/><path class="cls-1" d="M78.43,83.38a3.56,3.56,0,0,1-2.62,1.06,3.26,3.26,0,0,1-2.41-.86,3.3,3.3,0,0,1-1-1.64,22,22,0,0,1,0-5.07,3.29,3.29,0,0,1,1-1.65,3.26,3.26,0,0,1,2.41-.86,3.54,3.54,0,0,1,2.68,1.12,2.58,2.58,0,0,1,.74,1.39,15.46,15.46,0,0,1,.15,2.54,16.87,16.87,0,0,1-.13,2.55,2.72,2.72,0,0,1-.82,1.44m-1.14-7.07a1.8,1.8,0,0,0-.65-.45,2.18,2.18,0,0,0-1.66,0,2,2,0,0,0-.7.5,1.85,1.85,0,0,0-.42.93,13.36,13.36,0,0,0-.11,2.1,13.68,13.68,0,0,0,.1,2.11,1.83,1.83,0,0,0,.43.91,2,2,0,0,0,.7.52,2.18,2.18,0,0,0,1.66,0,2,2,0,0,0,.7-.5,1.85,1.85,0,0,0,.42-.93,13.22,13.22,0,0,0,.11-2.1,13.67,13.67,0,0,0-.1-2.11,2,2,0,0,0-.48-1"/><path class="cls-1" d="M84.24,84.44a5.87,5.87,0,0,1-2-.3,4,4,0,0,1-1.53-1l1-1a3,3,0,0,0,1.14.73,4.25,4.25,0,0,0,1.4.22,2.51,2.51,0,0,0,1.51-.4,1.31,1.31,0,0,0,.54-1.12,1.24,1.24,0,0,0-.29-.94,1.9,1.9,0,0,0-.52-.36,2.76,2.76,0,0,0-.67-.15l-1.17-.17a3.38,3.38,0,0,1-1.91-.82,2.44,2.44,0,0,1-.7-1.87A2.7,2.7,0,0,1,82,75.15a3.5,3.5,0,0,1,2.42-.8,4.34,4.34,0,0,1,3.08,1.13l-1,.95a2.48,2.48,0,0,0-1-.59,3.81,3.81,0,0,0-1.2-.17A1.9,1.9,0,0,0,83,76.1a1.44,1.44,0,0,0-.48,1.11,1.18,1.18,0,0,0,.38.93,2.12,2.12,0,0,0,1.11.45l1.13.17a4.67,4.67,0,0,1,1.09.27,3.79,3.79,0,0,1,1,.68,2.36,2.36,0,0,1,.57,1.83,2.58,2.58,0,0,1-1,2.13,4,4,0,0,1-2.59.78"/><path class="cls-1" d="M92.46,84.44a5.87,5.87,0,0,1-2-.3,4,4,0,0,1-1.53-1l1-1a3,3,0,0,0,1.14.73,4.25,4.25,0,0,0,1.4.22,2.51,2.51,0,0,0,1.51-.4,1.31,1.31,0,0,0,.54-1.12,1.24,1.24,0,0,0-.29-.94,1.9,1.9,0,0,0-.52-.36,2.76,2.76,0,0,0-.67-.15l-1.17-.17A3.38,3.38,0,0,1,90,79.13a2.44,2.44,0,0,1-.7-1.87,2.7,2.7,0,0,1,.89-2.11,3.5,3.5,0,0,1,2.42-.8,4.34,4.34,0,0,1,3.08,1.13l-1,.95a2.48,2.48,0,0,0-1-.59,3.81,3.81,0,0,0-1.2-.17,1.9,1.9,0,0,0-1.33.44,1.44,1.44,0,0,0-.48,1.11,1.18,1.18,0,0,0,.38.93,2.12,2.12,0,0,0,1.11.45l1.13.17a4.67,4.67,0,0,1,1.09.27,3.79,3.79,0,0,1,1,.68A2.36,2.36,0,0,1,96,81.52a2.58,2.58,0,0,1-1,2.13,4,4,0,0,1-2.59.78"/><path class="cls-2" d="M85.5,27,75,16.54,64.5,27,53,15.56V50.38H97V15.56ZM95,20.26v16.3l-8.15-8.15ZM85.5,48l-9.12-9.12,9.12-9.12,9.12,9.12ZM75,19.28l9.12,9.12L75,37.53l-9.12-9.12ZM55.38,38.91l9.12-9.12,9.12,9.12L64.5,48Zm7.75-10.5L55,36.56V20.26ZM55,41.26l7.18,7.18H55Zm11.87,7.18L75,40.28l8.15,8.15Zm21,0L95,41.26v7.18Z"/><path class="cls-2" d="M237.55,67.88a4.7,4.7,0,0,1-4.69,4.69c-4,0-6.8-4.29-10.06-9.25S215.88,52.77,210,50.16c7.41-1.79,18.19-6.39,18.19-18a4.7,4.7,0,0,1,4.69-4.69h1.27V24.9h-1.27a7.22,7.22,0,0,0-6,3.14,7.22,7.22,0,0,0-6-3.14h-1.27v2.53h1.27a4.7,4.7,0,0,1,4.69,4.69c0,13.08-16.46,15.93-21.3,16.49V32.12A4.7,4.7,0,0,1,209,27.43h1.27V24.9H209a7.22,7.22,0,0,0-6,3.14,7.22,7.22,0,0,0-6-3.14h-1.27v2.53h1.27a4.7,4.7,0,0,1,4.69,4.69v4.29h-6.6A2.38,2.38,0,0,1,192.82,34V32.77h-2.53V34a4.9,4.9,0,0,0,1.62,3.64,4.9,4.9,0,0,0-1.62,3.64v1.27h2.53V41.32a2.38,2.38,0,0,1,2.38-2.38h6.6V67.88a4.7,4.7,0,0,1-4.69,4.69h-1.27V75.1h1.27a7.22,7.22,0,0,0,6-3.14,7.22,7.22,0,0,0,6,3.14h1.27V72.57H209a4.7,4.7,0,0,1-4.69-4.69V51.33c8,.63,12.24,7.1,16.35,13.38,3.51,5.35,6.82,10.4,12.17,10.4a7.23,7.23,0,0,0,7.23-7.23V66.61h-2.53Z"/><path class="cls-2" d="M206.71,36.42v2.53H211a2.38,2.38,0,0,1,2.34,2.37v1.27h2.53V41.32a4.9,4.9,0,0,0-1.62-3.64A4.9,4.9,0,0,0,215.84,34V32.77H213.3V34a2.38,2.38,0,0,1-2.38,2.38h-4.22Z"/></svg>