<svg id="Layer_1" data-name="Layer 1" xmlns="http://www.w3.org/2000/svg" viewBox="0 0 200 200"><defs><style>.cls-1{fill:#c69930;}</style></defs><title>kcArtboard 1</title><path class="cls-1" d="M177,67a9.14,9.14,0,1,0-13.11,8.2,31.61,31.61,0,0,1-30,21.68c-16.19,0-30.43-14.5-31.47-31.48a9.14,9.14,0,1,0-4.91,0c-1,17-15.28,31.48-31.47,31.48a31.61,31.61,0,0,1-30-21.68,9.14,9.14,0,1,0-6.32.6V152.5H170.21V75.81A9.13,9.13,0,0,0,177,67Zm-9.14,4.43A4.43,4.43,0,1,1,172.29,67,4.43,4.43,0,0,1,167.86,71.44Zm-31.57,59.38v-29.3a36,36,0,0,0,12.25-3v32.3Zm-17,0V98.22a33.94,33.94,0,0,0,12.25,3.28v29.32Zm-4.71-35.31v35.31H102.36V81.94A38.76,38.76,0,0,0,114.61,95.51ZM100,52.22a4.43,4.43,0,1,1-4.43,4.43A4.43,4.43,0,0,1,100,52.22ZM97.64,81.94v48.88H85.39V95.51A38.76,38.76,0,0,0,97.64,81.94ZM68.43,130.82V101.5a33.94,33.94,0,0,0,12.25-3.28v32.6Zm-17,0V98.52a36,36,0,0,0,12.25,3v29.3ZM27.71,67a4.43,4.43,0,1,1,4.43,4.43A4.43,4.43,0,0,1,27.71,67ZM34.5,83.19A36.55,36.55,0,0,0,46.75,96v34.82H34.5Zm131,64.6H34.5V135.53h131Zm-12.25-17V96A36.55,36.55,0,0,0,165.5,83.19v47.63Z"/></svg>