<svg id="Layer_1" data-name="Layer 1" xmlns="http://www.w3.org/2000/svg" viewBox="0 0 300 100"><defs><style>.cls-1{fill:#eee;}.cls-2{fill:#c69930;}.cls-3{fill:#231f20;}</style></defs><title>kcArtboard 2 copy 2</title><rect class="cls-1" width="300" height="100"/><rect class="cls-2" x="150" width="150" height="100"/><polygon class="cls-3" points="60.6 70.44 57.81 65.53 56.14 67.54 56.14 70.43 54.64 70.43 54.64 60.5 56.14 60.5 56.14 65.48 60.2 60.5 62.03 60.49 58.82 64.38 62.37 70.43 60.6 70.44"/><rect class="cls-3" x="63.81" y="60.5" width="1.51" height="9.94"/><polygon class="cls-3" points="74 70.43 69.41 63.44 69.41 70.43 67.91 70.43 67.91 60.5 69.28 60.5 73.87 67.47 73.87 60.5 75.38 60.5 75.38 70.43 74 70.43"/><path class="cls-3" d="M83.9,69.38a3.5,3.5,0,0,1-1.23.85,4,4,0,0,1-1.5.27,3.26,3.26,0,0,1-2.41-.86,3.3,3.3,0,0,1-1-1.64,15.31,15.31,0,0,1-.15-2.54,15.32,15.32,0,0,1,.15-2.53,3.3,3.3,0,0,1,1-1.65,3.27,3.27,0,0,1,2.42-.86,3.48,3.48,0,0,1,2.46.86,3.75,3.75,0,0,1,1.16,2.23H83.28a2.35,2.35,0,0,0-.73-1.29,2.21,2.21,0,0,0-2.19-.29,2.12,2.12,0,0,0-.7.5,1.88,1.88,0,0,0-.43,1,12.43,12.43,0,0,0-.12,2.07,13.2,13.2,0,0,0,.11,2.1,2.2,2.2,0,0,0,.58,1.09,1.79,1.79,0,0,0,1.37.5,2,2,0,0,0,1.56-.64,2.37,2.37,0,0,0,.56-1.62v-.56H81.17V65.07h3.62v1.51a5.5,5.5,0,0,1-.2,1.62,3.05,3.05,0,0,1-.69,1.17"/><polygon class="cls-3" points="86.8 63.23 86.8 60.5 88.36 60.5 88.36 61.96 86.8 63.23"/><path class="cls-3" d="M92.54,70.5a5.87,5.87,0,0,1-2-.3,4,4,0,0,1-1.53-1l1-1a3,3,0,0,0,1.14.73,4.25,4.25,0,0,0,1.4.22,2.51,2.51,0,0,0,1.51-.4,1.31,1.31,0,0,0,.54-1.12,1.24,1.24,0,0,0-.29-.94,1.9,1.9,0,0,0-.52-.36,2.76,2.76,0,0,0-.67-.15L92,66a3.38,3.38,0,0,1-1.91-.82,2.44,2.44,0,0,1-.7-1.87,2.7,2.7,0,0,1,.89-2.11,3.5,3.5,0,0,1,2.42-.8,4.34,4.34,0,0,1,3.08,1.13l-1,.95a2.48,2.48,0,0,0-1-.59,3.81,3.81,0,0,0-1.2-.17,1.9,1.9,0,0,0-1.33.44,1.44,1.44,0,0,0-.48,1.11,1.18,1.18,0,0,0,.38.93,2.12,2.12,0,0,0,1.11.45l1.13.17a4.67,4.67,0,0,1,1.09.27,3.79,3.79,0,0,1,1,.68,2.36,2.36,0,0,1,.57,1.83,2.58,2.58,0,0,1-1,2.13,4,4,0,0,1-2.59.78"/><path class="cls-3" d="M57.93,84.44a3.26,3.26,0,0,1-2.41-.86,3.31,3.31,0,0,1-1-1.64,22,22,0,0,1,0-5.07,3.3,3.3,0,0,1,1-1.65,3.26,3.26,0,0,1,2.41-.86,3.49,3.49,0,0,1,2.33.79,3.7,3.7,0,0,1,1.21,2.26H59.93a2.3,2.3,0,0,0-.69-1.25,1.9,1.9,0,0,0-1.32-.45,1.77,1.77,0,0,0-1.37.49A2.23,2.23,0,0,0,56,77.32a12.59,12.59,0,0,0-.12,2.08A13.09,13.09,0,0,0,56,81.5a2.18,2.18,0,0,0,.58,1.09,1.78,1.78,0,0,0,1.37.5,1.91,1.91,0,0,0,1.32-.46,2.31,2.31,0,0,0,.7-1.24h1.52a3.62,3.62,0,0,1-1.2,2.26,3.52,3.52,0,0,1-2.34.79"/><path class="cls-3" d="M68.95,84.37l-2.08-4.2H65v4.19h-1.5V74.43h3.85a3.11,3.11,0,0,1,2.24.8,2.76,2.76,0,0,1,.84,2.1,2.61,2.61,0,0,1-2,2.63l2.29,4.4Zm-1.74-8.58H65V78.9h2.23a1.77,1.77,0,0,0,1.22-.41,1.44,1.44,0,0,0,.47-1.14,1.48,1.48,0,0,0-.46-1.15,1.75,1.75,0,0,0-1.23-.42"/><path class="cls-3" d="M78.43,83.38a3.56,3.56,0,0,1-2.62,1.06,3.26,3.26,0,0,1-2.41-.86,3.3,3.3,0,0,1-1-1.64,22,22,0,0,1,0-5.07,3.29,3.29,0,0,1,1-1.65,3.26,3.26,0,0,1,2.41-.86,3.54,3.54,0,0,1,2.68,1.12,2.58,2.58,0,0,1,.74,1.39,15.46,15.46,0,0,1,.15,2.54,16.87,16.87,0,0,1-.13,2.55,2.72,2.72,0,0,1-.82,1.44m-1.14-7.07a1.8,1.8,0,0,0-.65-.45,2.18,2.18,0,0,0-1.66,0,2,2,0,0,0-.7.5,1.85,1.85,0,0,0-.42.93,13.36,13.36,0,0,0-.11,2.1,13.68,13.68,0,0,0,.1,2.11,1.83,1.83,0,0,0,.43.91,2,2,0,0,0,.7.52,2.18,2.18,0,0,0,1.66,0,2,2,0,0,0,.7-.5,1.85,1.85,0,0,0,.42-.93,13.22,13.22,0,0,0,.11-2.1,13.67,13.67,0,0,0-.1-2.11,2,2,0,0,0-.48-1"/><path class="cls-3" d="M84.24,84.44a5.87,5.87,0,0,1-2-.3,4,4,0,0,1-1.53-1l1-1a3,3,0,0,0,1.14.73,4.25,4.25,0,0,0,1.4.22,2.51,2.51,0,0,0,1.51-.4,1.31,1.31,0,0,0,.54-1.12,1.24,1.24,0,0,0-.29-.94,1.9,1.9,0,0,0-.52-.36,2.76,2.76,0,0,0-.67-.15l-1.17-.17a3.38,3.38,0,0,1-1.91-.82,2.44,2.44,0,0,1-.7-1.87A2.7,2.7,0,0,1,82,75.15a3.5,3.5,0,0,1,2.42-.8,4.34,4.34,0,0,1,3.08,1.13l-1,.95a2.48,2.48,0,0,0-1-.59,3.81,3.81,0,0,0-1.2-.17A1.9,1.9,0,0,0,83,76.1a1.44,1.44,0,0,0-.48,1.11,1.18,1.18,0,0,0,.38.93,2.12,2.12,0,0,0,1.11.45l1.13.17a4.67,4.67,0,0,1,1.09.27,3.79,3.79,0,0,1,1,.68,2.36,2.36,0,0,1,.57,1.83,2.58,2.58,0,0,1-1,2.13,4,4,0,0,1-2.59.78"/><path class="cls-3" d="M92.46,84.44a5.87,5.87,0,0,1-2-.3,4,4,0,0,1-1.53-1l1-1a3,3,0,0,0,1.14.73,4.25,4.25,0,0,0,1.4.22,2.51,2.51,0,0,0,1.51-.4,1.31,1.31,0,0,0,.54-1.12,1.24,1.24,0,0,0-.29-.94,1.9,1.9,0,0,0-.52-.36,2.76,2.76,0,0,0-.67-.15l-1.17-.17A3.38,3.38,0,0,1,90,79.13a2.44,2.44,0,0,1-.7-1.87,2.7,2.7,0,0,1,.89-2.11,3.5,3.5,0,0,1,2.42-.8,4.34,4.34,0,0,1,3.08,1.13l-1,.95a2.48,2.48,0,0,0-1-.59,3.81,3.81,0,0,0-1.2-.17,1.9,1.9,0,0,0-1.33.44,1.44,1.44,0,0,0-.48,1.11,1.18,1.18,0,0,0,.38.93,2.12,2.12,0,0,0,1.11.45l1.13.17a4.67,4.67,0,0,1,1.09.27,3.79,3.79,0,0,1,1,.68A2.36,2.36,0,0,1,96,81.52a2.58,2.58,0,0,1-1,2.13,4,4,0,0,1-2.59.78"/><path class="cls-2" d="M85.5,27,75,16.54,64.5,27,53,15.56V50.38H97V15.56ZM95,20.26v16.3l-8.15-8.15ZM85.5,48l-9.12-9.12,9.12-9.12,9.12,9.12ZM75,19.28l9.12,9.12L75,37.53l-9.12-9.12ZM55.38,38.91l9.12-9.12,9.12,9.12L64.5,48Zm7.75-10.5L55,36.56V20.26ZM55,41.26l7.18,7.18H55Zm11.87,7.18L75,40.28l8.15,8.15Zm21,0L95,41.26v7.18Z"/><polygon class="cls-1" points="210.6 70.44 207.81 65.53 206.14 67.54 206.14 70.43 204.64 70.43 204.64 60.5 206.14 60.5 206.14 65.48 210.2 60.5 212.03 60.49 208.82 64.38 212.37 70.43 210.6 70.44"/><rect class="cls-1" x="213.81" y="60.5" width="1.51" height="9.94"/><polygon class="cls-1" points="224 70.43 219.41 63.44 219.41 70.43 217.91 70.43 217.91 60.5 219.28 60.5 223.87 67.47 223.87 60.5 225.38 60.5 225.38 70.43 224 70.43"/><path class="cls-1" d="M233.9,69.38a3.5,3.5,0,0,1-1.23.85,4,4,0,0,1-1.5.27,3.26,3.26,0,0,1-2.41-.86,3.3,3.3,0,0,1-1-1.64,15.31,15.31,0,0,1-.15-2.54,15.32,15.32,0,0,1,.15-2.53,3.3,3.3,0,0,1,1-1.65,3.27,3.27,0,0,1,2.42-.86,3.48,3.48,0,0,1,2.46.86,3.75,3.75,0,0,1,1.16,2.23h-1.52a2.35,2.35,0,0,0-.73-1.29,2.21,2.21,0,0,0-2.19-.29,2.12,2.12,0,0,0-.7.5,1.88,1.88,0,0,0-.43,1,12.43,12.43,0,0,0-.12,2.07,13.2,13.2,0,0,0,.11,2.1,2.2,2.2,0,0,0,.58,1.09,1.79,1.79,0,0,0,1.37.5,2,2,0,0,0,1.56-.64,2.37,2.37,0,0,0,.56-1.62v-.56h-2.12V65.07h3.62v1.51a5.5,5.5,0,0,1-.2,1.62,3.05,3.05,0,0,1-.69,1.17"/><polygon class="cls-1" points="236.8 63.23 236.8 60.5 238.36 60.5 238.36 61.96 236.8 63.23"/><path class="cls-1" d="M242.54,70.5a5.87,5.87,0,0,1-2-.3,4,4,0,0,1-1.53-1l1-1a3,3,0,0,0,1.14.73,4.25,4.25,0,0,0,1.4.22,2.51,2.51,0,0,0,1.51-.4,1.31,1.31,0,0,0,.54-1.12,1.24,1.24,0,0,0-.29-.94,1.9,1.9,0,0,0-.52-.36,2.76,2.76,0,0,0-.67-.15L242,66a3.38,3.38,0,0,1-1.91-.82,2.44,2.44,0,0,1-.7-1.87,2.7,2.7,0,0,1,.89-2.11,3.5,3.5,0,0,1,2.42-.8,4.34,4.34,0,0,1,3.08,1.13l-1,.95a2.48,2.48,0,0,0-1-.59,3.81,3.81,0,0,0-1.2-.17,1.9,1.9,0,0,0-1.33.44,1.44,1.44,0,0,0-.48,1.11,1.18,1.18,0,0,0,.38.93,2.12,2.12,0,0,0,1.11.45l1.13.17a4.67,4.67,0,0,1,1.09.27,3.79,3.79,0,0,1,1,.68,2.36,2.36,0,0,1,.57,1.83,2.58,2.58,0,0,1-1,2.13,4,4,0,0,1-2.59.78"/><path class="cls-1" d="M207.93,84.44a3.26,3.26,0,0,1-2.41-.86,3.31,3.31,0,0,1-1-1.64,22,22,0,0,1,0-5.07,3.3,3.3,0,0,1,1-1.65,3.26,3.26,0,0,1,2.41-.86,3.49,3.49,0,0,1,2.33.79,3.7,3.7,0,0,1,1.21,2.26h-1.53a2.3,2.3,0,0,0-.69-1.25,1.9,1.9,0,0,0-1.32-.45,1.77,1.77,0,0,0-1.37.49,2.23,2.23,0,0,0-.58,1.12,12.59,12.59,0,0,0-.12,2.08,13.09,13.09,0,0,0,.11,2.1,2.18,2.18,0,0,0,.58,1.09,1.78,1.78,0,0,0,1.37.5,1.91,1.91,0,0,0,1.32-.46,2.31,2.31,0,0,0,.7-1.24h1.52a3.62,3.62,0,0,1-1.2,2.26,3.52,3.52,0,0,1-2.34.79"/><path class="cls-1" d="M218.95,84.37l-2.08-4.2H215v4.19h-1.5V74.43h3.85a3.11,3.11,0,0,1,2.24.8,2.76,2.76,0,0,1,.84,2.1,2.61,2.61,0,0,1-2,2.63l2.29,4.4Zm-1.74-8.58H215V78.9h2.23a1.77,1.77,0,0,0,1.22-.41,1.44,1.44,0,0,0,.47-1.14,1.48,1.48,0,0,0-.46-1.15,1.75,1.75,0,0,0-1.23-.42"/><path class="cls-1" d="M228.43,83.38a3.56,3.56,0,0,1-2.62,1.06,3.26,3.26,0,0,1-2.41-.86,3.3,3.3,0,0,1-1-1.64,22,22,0,0,1,0-5.07,3.29,3.29,0,0,1,1-1.65,3.26,3.26,0,0,1,2.41-.86,3.54,3.54,0,0,1,2.68,1.12,2.58,2.58,0,0,1,.74,1.39,15.46,15.46,0,0,1,.15,2.54,16.87,16.87,0,0,1-.13,2.55,2.72,2.72,0,0,1-.82,1.44m-1.14-7.07a1.8,1.8,0,0,0-.65-.45,2.18,2.18,0,0,0-1.66,0,2,2,0,0,0-.7.5,1.85,1.85,0,0,0-.42.93,13.36,13.36,0,0,0-.11,2.1,13.68,13.68,0,0,0,.1,2.11,1.83,1.83,0,0,0,.43.91,2,2,0,0,0,.7.52,2.18,2.18,0,0,0,1.66,0,2,2,0,0,0,.7-.5,1.85,1.85,0,0,0,.42-.93,13.22,13.22,0,0,0,.11-2.1,13.67,13.67,0,0,0-.1-2.11,2,2,0,0,0-.48-1"/><path class="cls-1" d="M234.24,84.44a5.87,5.87,0,0,1-2-.3,4,4,0,0,1-1.53-1l1-1a3,3,0,0,0,1.14.73,4.25,4.25,0,0,0,1.4.22,2.51,2.51,0,0,0,1.51-.4,1.31,1.31,0,0,0,.54-1.12,1.24,1.24,0,0,0-.29-.94,1.9,1.9,0,0,0-.52-.36,2.76,2.76,0,0,0-.67-.15l-1.17-.17a3.38,3.38,0,0,1-1.91-.82,2.44,2.44,0,0,1-.7-1.87,2.7,2.7,0,0,1,.89-2.11,3.5,3.5,0,0,1,2.42-.8,4.34,4.34,0,0,1,3.08,1.13l-1,.95a2.48,2.48,0,0,0-1-.59,3.81,3.81,0,0,0-1.2-.17,1.9,1.9,0,0,0-1.33.44,1.44,1.44,0,0,0-.48,1.11,1.18,1.18,0,0,0,.38.93,2.12,2.12,0,0,0,1.11.45l1.13.17a4.67,4.67,0,0,1,1.09.27,3.79,3.79,0,0,1,1,.68,2.36,2.36,0,0,1,.57,1.83,2.58,2.58,0,0,1-1,2.13,4,4,0,0,1-2.59.78"/><path class="cls-1" d="M242.46,84.44a5.87,5.87,0,0,1-2-.3,4,4,0,0,1-1.53-1l1-1a3,3,0,0,0,1.14.73,4.25,4.25,0,0,0,1.4.22,2.51,2.51,0,0,0,1.51-.4,1.31,1.31,0,0,0,.54-1.12,1.24,1.24,0,0,0-.29-.94,1.9,1.9,0,0,0-.52-.36,2.76,2.76,0,0,0-.67-.15l-1.17-.17a3.38,3.38,0,0,1-1.91-.82,2.44,2.44,0,0,1-.7-1.87,2.7,2.7,0,0,1,.89-2.11,3.5,3.5,0,0,1,2.42-.8,4.34,4.34,0,0,1,3.08,1.13l-1,.95a2.48,2.48,0,0,0-1-.59,3.81,3.81,0,0,0-1.2-.17,1.9,1.9,0,0,0-1.33.44,1.44,1.44,0,0,0-.48,1.11,1.18,1.18,0,0,0,.38.93,2.12,2.12,0,0,0,1.11.45l1.13.17a4.67,4.67,0,0,1,1.09.27,3.79,3.79,0,0,1,1,.68,2.36,2.36,0,0,1,.57,1.83,2.58,2.58,0,0,1-1,2.13,4,4,0,0,1-2.59.78"/><path class="cls-1" d="M235.5,27,225,16.54,214.5,27,203,15.56V50.38H247V15.56ZM245,20.26v16.3l-8.15-8.15ZM235.5,48l-9.12-9.12,9.12-9.12,9.12,9.12ZM225,19.28l9.12,9.12L225,37.53l-9.12-9.12ZM205.38,38.91l9.12-9.12,9.12,9.12L214.5,48Zm7.75-10.5L205,36.56V20.26ZM205,41.26l7.18,7.18H205Zm11.87,7.18L225,40.28l8.15,8.15Zm21,0L245,41.26v7.18Z"/></svg>