<svg id="Layer_1" data-name="Layer 1" xmlns="http://www.w3.org/2000/svg" viewBox="0 0 200 200"><defs><style>.cls-1{fill:#c69930;}</style></defs><title>kcArtboard 1</title><path class="cls-1" d="M41.23,99.65c0-9.87,4.25-19.26,12.07-26.91a5.85,5.85,0,0,0,1.81-4.16V61.51q-1.24.88-2.44,1.82C41.61,72.08,35.26,87.65,27.65,97a4.27,4.27,0,0,0,0,5.38c7,8.85,14.07,24.94,25,33.6q1.19.94,2.44,1.82v-7.06a5.85,5.85,0,0,0-1.81-4.16C45.48,118.91,41.23,109.51,41.23,99.65Z"/><path class="cls-1" d="M67.26,134.11a3.51,3.51,0,0,0,2,3.21,68.21,68.21,0,0,0,28,5.81,72.14,72.14,0,0,0,10.42-.76,1.86,1.86,0,0,1,1.83.82c1.28,2,2.56,3.88,3.85,5.76a78.9,78.9,0,0,1-16.1,1.65A77.06,77.06,0,0,1,72,146.42a3.54,3.54,0,0,0-4.73,3.32v.7a13.09,13.09,0,0,0,13.08,13.08A3.74,3.74,0,0,1,84,167.8,3.92,3.92,0,0,1,80,171a20.43,20.43,0,0,1-13.24-5.13,5,5,0,0,0-6.6.07A20.43,20.43,0,0,1,46.7,171,3.74,3.74,0,0,1,43,166.81a3.9,3.9,0,0,1,3.9-3.29,13.11,13.11,0,0,0,12.89-13.08V49.55A13.11,13.11,0,0,0,46.7,36.47,3.74,3.74,0,0,1,43,32.2,3.92,3.92,0,0,1,47,29a20.43,20.43,0,0,1,13.24,5.13,5,5,0,0,0,6.6-.07A20.43,20.43,0,0,1,80.34,29,3.74,3.74,0,0,1,84,33.19a3.91,3.91,0,0,1-3.92,3.29A13.09,13.09,0,0,0,67.26,49.55a3.61,3.61,0,0,0,4.84,3.29,78.46,78.46,0,0,1,50.13,0,38.62,38.62,0,0,1-.8,5.41A1.87,1.87,0,0,1,119,59.58a69.83,69.83,0,0,0-21.76-3.41,68.21,68.21,0,0,0-28,5.81,3.51,3.51,0,0,0-2,3.21V92a3.42,3.42,0,0,0,3.94,3.38C88.22,92.79,127,83.22,127,49.55A13.11,13.11,0,0,0,114,36.47a3.74,3.74,0,0,1-3.7-4.28,3.92,3.92,0,0,1,4-3.19,20.43,20.43,0,0,1,13.24,5.13,5,5,0,0,0,6.6-.07A20.43,20.43,0,0,1,147.6,29a3.74,3.74,0,0,1,3.71,4.19,3.91,3.91,0,0,1-3.92,3.29,13.09,13.09,0,0,0-12.87,13.08c0,1.57-.07,3.08-.21,4.56A6.27,6.27,0,0,0,137.13,60q2.42,1.57,4.67,3.34l4.44,2.85c6.66,4.27,15,2.75,20.79-2.64a3.74,3.74,0,0,1,5.61.59,3.92,3.92,0,0,1-1,5.28A28.15,28.15,0,0,1,154.54,75q-.92,0-1.84-.06A3,3,0,0,0,149.46,78q0,.09,0,.19c0,5.66-2.72,10.92-7.65,14.82a3.74,3.74,0,0,1-5.66-1.24,3.85,3.85,0,0,1,1.12-4.7A11.48,11.48,0,0,0,142,78.16c0-3.32-1.71-6.51-4.81-9Q135.63,68,134,66.88a2.12,2.12,0,0,0-3.13.85c-7.72,17.63-26.28,26.71-42,31.33a2.2,2.2,0,0,0-.48,4c13,7.73,22,20.8,29.67,32.49a5.36,5.36,0,0,0,6.62,2,57,57,0,0,0,12.46-7.43c3.11-2.45,4.82-5.64,4.82-9s-1.71-6.51-4.81-9a3.74,3.74,0,0,1-.24-5.66,3.93,3.93,0,0,1,5.14,0c4.77,3.88,7.39,9.05,7.39,14.61q0,.1,0,.21a3,3,0,0,0,3.22,3.06,28.39,28.39,0,0,1,19,5.48,3.92,3.92,0,0,1,1.27,4.86,3.74,3.74,0,0,1-5.27,1.46,29.07,29.07,0,0,0-2.77-1.51,23.94,23.94,0,0,0-15.61-2c-5.58,1.31-9.67,5.21-14.49,8a66.84,66.84,0,0,1-6.24,3.24,3.33,3.33,0,0,0-1.32,5c7.7,10.47,15.45,17.22,26.26,13.47,4.9-1.7,7.41-6.71,7.23-11.9a3.74,3.74,0,0,1,4.23-3.84,3.91,3.91,0,0,1,3.24,4A20.58,20.58,0,0,1,147.6,171a23.14,23.14,0,0,1-3.32-.26c-13.29-1.92-22-15.16-31.17-29.15C102.25,125,91.06,108,71.25,104.42a3.43,3.43,0,0,0-4,3.39Z"/></svg>