<svg id="Layer_1" data-name="Layer 1" xmlns="http://www.w3.org/2000/svg" viewBox="0 0 300 100"><defs><style>.cls-1{fill:#eee;}.cls-2{fill:#c69930;}.cls-3{fill:#fff;}</style></defs><title>kcArtboard 2 copy</title><rect class="cls-1" width="300" height="100"/><rect class="cls-2" x="150" width="150" height="100"/><path class="cls-2" d="M89.69,41.89,75.36,27.56,61,41.89,45.36,26.23V73.77h60V26.23Zm13-9.25V54.9L91.57,43.77Zm-13,37.93L77.23,58.11,89.69,45.65l12.46,12.46ZM75.36,31.31,87.82,43.77,75.36,56.23,62.9,43.77Zm-26.8,26.8L61,45.65,73.48,58.11,61,70.57ZM59.14,43.77,48,54.9V32.64ZM48,61.31l9.8,9.8H48Zm16.21,9.8L75.36,60,86.49,71.12Zm28.67,0,9.8-9.8v9.8Z"/><path class="cls-3" d="M239.34,41.89,225,27.56,210.66,41.89,195,26.23V73.77h60V26.23Zm13-9.25V54.9L241.21,43.77Zm-13,37.93L226.88,58.11l12.46-12.46L251.8,58.11ZM225,31.31l12.46,12.46L225,56.23,212.54,43.77Zm-26.8,26.8,12.46-12.46,12.46,12.46L210.66,70.57Zm10.58-14.34L197.65,54.9V32.64ZM197.65,61.31l9.8,9.8h-9.8Zm16.21,9.8L225,60l11.13,11.13Zm28.67,0,9.8-9.8v9.8Z"/></svg>