<svg id="Layer_1" data-name="Layer 1" xmlns="http://www.w3.org/2000/svg" viewBox="0 0 300 100"><defs><style>.cls-1{fill:#eee;}.cls-2{fill:#c69930;}.cls-3{fill:#fff;}</style></defs><title>kcArtboard 2</title><rect class="cls-1" width="300" height="100"/><path class="cls-2" d="M105.36,37.15a3.56,3.56,0,1,0-5.11,3.19,12.32,12.32,0,0,1-11.67,8.45c-6.31,0-11.86-5.65-12.26-12.27a3.56,3.56,0,1,0-1.91,0c-.41,6.62-6,12.27-12.26,12.27a12.32,12.32,0,0,1-11.67-8.45,3.56,3.56,0,1,0-2.46.23V70.45h54.71V40.58A3.56,3.56,0,0,0,105.36,37.15Zm-3.56,1.73a1.73,1.73,0,1,1,1.73-1.73A1.73,1.73,0,0,1,101.79,38.87ZM89.49,62V50.59a14,14,0,0,0,4.77-1.17V62Zm-6.61,0V49.31a13.22,13.22,0,0,0,4.77,1.28V62ZM81,48.25V62H76.27V43A15.1,15.1,0,0,0,81,48.25ZM75.36,31.38a1.73,1.73,0,1,1-1.73,1.73A1.73,1.73,0,0,1,75.36,31.38ZM74.44,43V62H69.66V48.25A15.1,15.1,0,0,0,74.44,43ZM63.05,62V50.59a13.22,13.22,0,0,0,4.77-1.28V62Zm-6.61,0V49.42a14,14,0,0,0,4.77,1.17V62ZM47.19,37.15a1.73,1.73,0,1,1,1.73,1.73A1.73,1.73,0,0,1,47.19,37.15Zm2.64,6.3a14.24,14.24,0,0,0,4.77,5V62H49.84Zm51,25.17h-51V63.84h51ZM96.1,62V48.44a14.24,14.24,0,0,0,4.77-5V62Z"/><rect class="cls-2" x="150" width="150" height="100"/><path class="cls-3" d="M255,37.15a3.56,3.56,0,1,0-5.11,3.19,12.32,12.32,0,0,1-11.67,8.45c-6.31,0-11.86-5.65-12.26-12.27a3.56,3.56,0,1,0-1.91,0c-.41,6.62-6,12.27-12.26,12.27a12.32,12.32,0,0,1-11.67-8.45,3.56,3.56,0,1,0-2.46.23V70.45h54.71V40.58A3.56,3.56,0,0,0,255,37.15Zm-3.56,1.73a1.73,1.73,0,1,1,1.73-1.73A1.73,1.73,0,0,1,251.44,38.87ZM239.14,62V50.59a14,14,0,0,0,4.77-1.17V62Zm-6.61,0V49.31a13.22,13.22,0,0,0,4.77,1.28V62Zm-1.84-13.76V62h-4.77V43A15.1,15.1,0,0,0,230.69,48.25ZM225,31.38a1.73,1.73,0,1,1-1.73,1.73A1.73,1.73,0,0,1,225,31.38ZM224.08,43V62h-4.77V48.25A15.1,15.1,0,0,0,224.08,43ZM212.7,62V50.59a13.22,13.22,0,0,0,4.77-1.28V62Zm-6.61,0V49.42a14,14,0,0,0,4.77,1.17V62Zm-9.25-24.86a1.73,1.73,0,1,1,1.73,1.73A1.73,1.73,0,0,1,196.84,37.15Zm2.64,6.3a14.24,14.24,0,0,0,4.77,5V62h-4.77Zm51,25.17h-51V63.84h51ZM245.75,62V48.44a14.24,14.24,0,0,0,4.77-5V62Z"/></svg>