<svg xmlns="http://www.w3.org/2000/svg" xmlns:xlink="http://www.w3.org/1999/xlink" viewBox="0 0 1152 360"><defs><style>.cls-1{fill:#fff;}.cls-2{fill:url(#linear-gradient);}.cls-3{fill:#a6a8ab;}.cls-4{fill:#58595b;}</style><linearGradient id="linear-gradient" x1="461.48" y1="136" x2="461.48" y2="317.05" gradientUnits="userSpaceOnUse"><stop offset="0" stop-color="#fff" stop-opacity="0"/><stop offset="1" stop-opacity="0.5"/></linearGradient></defs><title>ljAsset 19</title><g id="Layer_2" data-name="Layer 2"><g id="Layer_2-2" data-name="Layer 2"><rect class="cls-1" width="1152" height="360"/></g><g id="Layer_1-2" data-name="Layer 1"><polygon class="cls-2" points="518.59 136 175.9 136 404.36 317.05 518.59 259.93 632.82 317.05 747.06 259.93 747.06 136.28 518.59 136"/><polygon class="cls-3" points="518.59 40.95 404.36 98.07 404.36 193.4 518.59 136.28 518.59 40.95"/><polygon class="cls-3" points="404.36 221.72 404.36 317.05 518.59 259.93 518.59 164.6 404.36 221.72"/><polygon class="cls-4" points="518.59 164.6 518.59 164.6 518.59 259.93 632.82 317.05 632.82 221.72 518.59 164.6"/><polygon class="cls-4" points="518.59 136.28 632.82 193.4 632.82 98.07 518.59 40.95 518.59 136.28 518.59 136.28"/><polygon class="cls-3" points="632.82 193.4 747.06 136.28 747.06 40.95 632.82 98.07 632.82 193.4 632.82 193.4"/><polygon class="cls-3" points="632.82 221.72 632.82 221.72 632.82 317.05 747.06 259.93 747.06 164.6 632.82 221.72"/></g></g></svg>