<svg id="Layer_1" data-name="Layer 1" xmlns="http://www.w3.org/2000/svg" viewBox="0 0 414.82 133.98"><defs><style>.cls-1{fill:#d34d35;}.cls-2{fill:none;stroke:#d34d35;stroke-miterlimit:10;stroke-width:5px;}</style></defs><title>Artboard 12</title><rect class="cls-1" x="286.13" y="65.87" width="10.54" height="26.78" transform="translate(29.31 229.26) rotate(-45)"/><polygon class="cls-1" points="287.78 63.94 306.71 82.88 317.62 71.97 317.62 52.91 308.21 43.51 287.78 63.94"/><rect class="cls-1" x="274.42" y="34.7" width="28.9" height="19.81" transform="translate(53.07 217.32) rotate(-45)"/><polygon class="cls-1" points="245.45 102.02 264.17 83.3 245.45 64.58 245.45 102.02"/><polygon class="cls-1" points="283.53 63.94 269.53 49.93 269.53 49.93 269.38 49.78 268.47 48.87 268.47 48.87 263.31 43.72 246.07 60.96 266.29 81.18 275.02 72.45 283.53 63.94"/><polygon class="cls-2" points="172.1 50.59 172.1 70.89 150.12 92.87 129.06 71.81 96.94 103.94 96.94 59.26 116.3 39.89 122.51 46.11 145.07 23.55 172.1 50.59"/><line class="cls-2" x1="96.94" y1="59.26" x2="119.28" y2="81.6"/><line class="cls-2" x1="122.51" y1="46.11" x2="159.7" y2="83.29"/><line class="cls-2" x1="129.07" y1="71.81" x2="161.19" y2="39.68"/></svg>