<svg xmlns="http://www.w3.org/2000/svg" viewBox="0 0 1152 216"><defs><style>.cls-1{fill:#fff;}.cls-2{fill:#58595b;}.cls-3{fill:#a6a8ab;}.cls-4{fill:#6d6e70;}</style></defs><title>ljAsset 6</title><g id="Layer_2" data-name="Layer 2"><g id="Layer_2-2" data-name="Layer 2"><rect class="cls-1" width="1152" height="216"/></g><g id="Layer_1-2" data-name="Layer 1"><polygon class="cls-2" points="545.61 36 485.42 66.1 485.42 115.41 545.61 85.31 545.61 36"/><polygon class="cls-2" points="485.42 132.18 485.42 181.49 545.61 151.39 545.61 102.08 485.42 132.18"/><polygon class="cls-3" points="545.61 102.08 545.61 102.08 545.61 151.39 605.81 181.49 605.81 132.18 545.61 102.08"/><polygon class="cls-3" points="545.61 85.31 605.81 115.41 605.81 66.1 545.61 36 545.61 85.31 545.61 85.31"/><polygon class="cls-4" points="605.81 115.41 666 85.31 666 36 605.81 66.1 605.81 115.41 605.81 115.41"/><polygon class="cls-4" points="605.81 132.18 605.81 132.18 605.81 181.49 666 151.39 666 102.08 605.81 132.18"/></g></g></svg>
