<svg id="Layer_1" data-name="Layer 1" xmlns="http://www.w3.org/2000/svg" viewBox="0 0 414.82 133.98"><defs><style>.cls-1{fill:#d34d35;}</style></defs><title>Artboard 12</title><rect class="cls-1" x="275.7" y="33.49" width="28.53" height="21.15" transform="translate(53.77 217.94) rotate(-45)"/><polygon class="cls-1" points="241.5 67.87 241.5 107.48 261.31 87.67 241.5 67.87"/><rect class="cls-1" x="249.01" y="48.33" width="28.84" height="30.84" transform="translate(32.08 204.95) rotate(-45)"/><polygon class="cls-1" points="287.36 67.28 268.97 85.67 305.75 85.67 287.36 67.28"/><polygon class="cls-1" points="290.19 64.45 310.57 84.84 320.38 75.04 320.38 54.31 310.36 44.28 290.19 64.45"/><path class="cls-1" d="M145.07,22,124.21,42.87,118,36.66,94.44,60.21V112l25.88-25.88h42.12L174.6,73.92V51.55Zm12.59,19.66L140.34,59,127.74,46.41l17.32-17.32Zm-33.45,8.27h0L136.8,62.53,119.28,80.06,100.47,61.25,118,43.73ZM99.44,67.29l16.31,16.31L99.44,99.9Zm40.9-1.22,15,15h-30Zm29.27,5.78-8.21,8.21L143.87,62.53l17.32-17.32,8.41,8.41Z"/></svg>